<svg width="33" height="33" viewBox="0 0 33 33" fill="none" xmlns="http://www.w3.org/2000/svg">
<path d="M16.8528 20.4521C17.0729 20.4521 17.2083 20.3294 17.2591 20.084C17.4284 19.1276 17.5976 18.3574 17.7669 17.7734C17.9446 17.1895 18.1901 16.7324 18.5032 16.4023C18.8164 16.0638 19.2607 15.8057 19.8362 15.6279C20.4117 15.4502 21.1819 15.2979 22.1468 15.1709C22.4091 15.137 22.5403 14.9974 22.5403 14.752C22.5403 14.515 22.4091 14.3711 22.1468 14.3203C21.3766 14.2188 20.7291 14.1045 20.2044 13.9775C19.6797 13.8421 19.248 13.6686 18.9095 13.457C18.5794 13.2454 18.3128 12.9704 18.1097 12.6318C17.9065 12.2848 17.7415 11.8532 17.6145 11.3369C17.4876 10.8122 17.3691 10.1774 17.2591 9.43262C17.2168 9.17871 17.0813 9.05176 16.8528 9.05176C16.6158 9.05176 16.4677 9.17448 16.4085 9.41992C16.2731 10.1816 16.1377 10.8249 16.0022 11.3496C15.8753 11.8743 15.7103 12.3102 15.5071 12.6572C15.3125 12.9958 15.0501 13.2708 14.72 13.4824C14.3984 13.6855 13.9795 13.8506 13.4632 13.9775C12.9469 14.1045 12.3037 14.2188 11.5335 14.3203C11.2711 14.3626 11.1399 14.5065 11.1399 14.752C11.1399 14.9974 11.2711 15.137 11.5335 15.1709C12.5068 15.2555 13.2854 15.3825 13.8694 15.5518C14.4534 15.721 14.9062 15.9792 15.2278 16.3262C15.5494 16.6732 15.7907 17.1471 15.9515 17.748C16.1207 18.349 16.2731 19.1234 16.4085 20.0713C16.4508 20.3252 16.5989 20.4521 16.8528 20.4521ZM11.9524 22.4199C12.1217 22.4199 12.2317 22.3395 12.2825 22.1787C12.3841 21.5778 12.4729 21.1377 12.5491 20.8584C12.6338 20.5791 12.8115 20.3844 13.0823 20.2744C13.3532 20.1644 13.8229 20.0586 14.4915 19.957C14.6692 19.9232 14.7581 19.8216 14.7581 19.6523C14.7581 19.4746 14.6692 19.373 14.4915 19.3477C13.8313 19.2461 13.3658 19.1361 13.095 19.0176C12.8242 18.8991 12.6464 18.7044 12.5618 18.4336C12.4772 18.1628 12.3841 17.7354 12.2825 17.1514C12.2233 16.9567 12.1132 16.8594 11.9524 16.8594C11.8086 16.8594 11.707 16.9567 11.6478 17.1514C11.5377 17.7354 11.4404 18.1628 11.3558 18.4336C11.2796 18.7044 11.1103 18.8991 10.8479 19.0176C10.5856 19.1361 10.1158 19.2461 9.43877 19.3477C9.2695 19.373 9.18486 19.4746 9.18486 19.6523C9.18486 19.8301 9.27796 19.9316 9.46416 19.957C10.1243 20.0586 10.5856 20.1644 10.8479 20.2744C11.1103 20.376 11.2796 20.5664 11.3558 20.8457C11.4404 21.125 11.5377 21.5566 11.6478 22.1406C11.707 22.3268 11.8086 22.4199 11.9524 22.4199ZM4.34795 25.2383C3.36618 25.2383 2.62562 24.9971 2.12627 24.5146C1.62692 24.0238 1.37724 23.2747 1.37724 22.2676V8.48047C1.37724 7.47331 1.62692 6.72852 2.12627 6.24609C2.62562 5.75521 3.36618 5.50977 4.34795 5.50977H28.1009C29.0826 5.50977 29.8232 5.75521 30.3226 6.24609C30.8219 6.72852 31.0716 7.47331 31.0716 8.48047V22.2676C31.0716 23.2747 30.8219 24.0238 30.3226 24.5146C29.8232 24.9971 29.0826 25.2383 28.1009 25.2383H4.34795ZM10.2386 29.1484C10.0016 29.1484 9.79424 29.0596 9.6165 28.8818C9.44723 28.7126 9.36259 28.5094 9.36259 28.2725C9.36259 28.0186 9.44723 27.807 9.6165 27.6377C9.79424 27.4684 10.0016 27.3838 10.2386 27.3838H22.2229C22.4599 27.3838 22.663 27.4684 22.8323 27.6377C23.0101 27.807 23.0989 28.0186 23.0989 28.2725C23.0989 28.5094 23.0101 28.7126 22.8323 28.8818C22.663 29.0596 22.4599 29.1484 22.2229 29.1484H10.2386Z" fill="black"/>
</svg>
