<svg width="33" height="33" viewBox="0 0 33 33" fill="none" xmlns="http://www.w3.org/2000/svg">
<path d="M13.375 27.0264H19.625V20.166C19.625 19.9056 19.5477 19.6981 19.3931 19.5435C19.2384 19.3888 19.035 19.3115 18.7827 19.3115H14.2295C13.9691 19.3115 13.7616 19.3888 13.6069 19.5435C13.4523 19.6981 13.375 19.9056 13.375 20.166V27.0264ZM6.39258 26.2451V16.7969L15.792 8.89893C16.264 8.5083 16.7319 8.5083 17.1958 8.89893L26.6074 16.7969V26.2451C26.6074 27.0264 26.3877 27.6327 25.9482 28.064C25.5088 28.5034 24.8944 28.7231 24.105 28.7231H8.89502C8.10563 28.7231 7.49121 28.5034 7.05176 28.064C6.6123 27.6327 6.39258 27.0264 6.39258 26.2451ZM3.80469 16.687C3.52799 16.687 3.30827 16.6016 3.14551 16.4307C2.98275 16.2598 2.90137 16.0685 2.90137 15.8569C2.90137 15.5802 3.01937 15.3483 3.25537 15.1611L15.1694 5.15137C15.5845 4.79329 16.028 4.61426 16.5 4.61426C16.972 4.61426 17.4115 4.79329 17.8184 5.15137L29.7568 15.1611C29.9847 15.3483 30.0986 15.5802 30.0986 15.8569C30.0986 16.0685 30.0173 16.2598 29.8545 16.4307C29.6999 16.6016 29.4801 16.687 29.1953 16.687C29.0488 16.687 28.9146 16.6545 28.7925 16.5894C28.6785 16.5243 28.5646 16.4429 28.4507 16.3452L16.9272 6.67725C16.797 6.56331 16.6546 6.50635 16.5 6.50635C16.3535 6.50635 16.2152 6.56331 16.085 6.67725L4.53711 16.3452C4.43945 16.4429 4.32959 16.5243 4.20752 16.5894C4.08545 16.6545 3.95117 16.687 3.80469 16.687ZM24.0806 10.9009V8.06885C24.0806 7.83284 24.1497 7.64567 24.2881 7.50732C24.4346 7.36084 24.6258 7.2876 24.8618 7.2876H26.0337C26.2697 7.2876 26.4569 7.36084 26.5952 7.50732C26.7417 7.64567 26.8149 7.83284 26.8149 8.06885V13.1958L24.0806 10.9009Z" fill="black"/>
</svg>
