<svg width="33" height="33" viewBox="0 0 33 33" fill="none" xmlns="http://www.w3.org/2000/svg">
<path d="M4.23535 22.6011C4.10547 22.7433 3.94157 22.8145 3.74365 22.8145C3.54574 22.8083 3.37256 22.7217 3.22412 22.5547C2.4943 21.7754 1.93148 20.8817 1.53564 19.8735C1.13981 18.8654 0.941895 17.7954 0.941895 16.6636C0.941895 15.5379 1.13981 14.471 1.53564 13.4629C1.93148 12.4548 2.4943 11.5579 3.22412 10.7725C3.37256 10.6055 3.54574 10.522 3.74365 10.522C3.94157 10.5158 4.10547 10.5869 4.23535 10.7354C4.35905 10.8776 4.40544 11.0384 4.37451 11.2178C4.34359 11.391 4.257 11.5579 4.11475 11.7188C3.51481 12.3743 3.05094 13.1258 2.72314 13.9731C2.40153 14.8143 2.24072 15.7111 2.24072 16.6636C2.24072 17.6222 2.40153 18.5252 2.72314 19.3726C3.05094 20.2137 3.51481 20.9621 4.11475 21.6177C4.257 21.7785 4.34359 21.9455 4.37451 22.1187C4.40544 22.2918 4.35905 22.4526 4.23535 22.6011ZM6.67529 20.1147C6.53923 20.2632 6.36914 20.3374 6.16504 20.3374C5.96094 20.3312 5.78776 20.2384 5.64551 20.0591C5.26204 19.5952 4.96208 19.0757 4.74561 18.5005C4.53532 17.9191 4.43018 17.3068 4.43018 16.6636C4.43018 16.0265 4.53532 15.4204 4.74561 14.8452C4.96208 14.2638 5.26204 13.7381 5.64551 13.2681C5.78776 13.0949 5.96094 13.0083 6.16504 13.0083C6.36914 13.0021 6.53923 13.0701 6.67529 13.2124C6.79281 13.3608 6.8361 13.5216 6.80518 13.6948C6.77425 13.8618 6.69385 14.0319 6.56396 14.2051C6.28564 14.5329 6.07536 14.9102 5.93311 15.3369C5.79704 15.7575 5.729 16.1997 5.729 16.6636C5.729 17.1336 5.79704 17.582 5.93311 18.0088C6.07536 18.4294 6.28564 18.8035 6.56396 19.1313C6.69385 19.3045 6.77425 19.4777 6.80518 19.6509C6.8361 19.8179 6.79281 19.9725 6.67529 20.1147ZM28.7739 22.6011C28.6502 22.4526 28.6007 22.2918 28.6255 22.1187C28.6564 21.9455 28.743 21.7785 28.8853 21.6177C29.4852 20.9621 29.9491 20.2137 30.2769 19.3726C30.6047 18.5252 30.7686 17.6222 30.7686 16.6636C30.7686 15.7111 30.6047 14.8143 30.2769 13.9731C29.9491 13.1258 29.4852 12.3743 28.8853 11.7188C28.743 11.5579 28.6564 11.391 28.6255 11.2178C28.6007 11.0384 28.6502 10.8776 28.7739 10.7354C28.9038 10.5869 29.0646 10.5158 29.2563 10.522C29.4543 10.522 29.6274 10.6055 29.7759 10.7725C30.5057 11.5579 31.0685 12.4548 31.4644 13.4629C31.8602 14.471 32.0581 15.5379 32.0581 16.6636C32.0581 17.7954 31.8602 18.8654 31.4644 19.8735C31.0685 20.8817 30.5057 21.7754 29.7759 22.5547C29.6274 22.7217 29.4543 22.8083 29.2563 22.8145C29.0646 22.8145 28.9038 22.7433 28.7739 22.6011ZM26.334 20.1147C26.2103 19.9725 26.1639 19.8179 26.1948 19.6509C26.2319 19.4777 26.3123 19.3045 26.436 19.1313C26.7205 18.8035 26.9308 18.4294 27.0669 18.0088C27.203 17.582 27.271 17.1336 27.271 16.6636C27.271 16.1997 27.203 15.7575 27.0669 15.3369C26.9308 14.9102 26.7205 14.5329 26.436 14.2051C26.3123 14.0319 26.2319 13.8618 26.1948 13.6948C26.1639 13.5216 26.2103 13.3608 26.334 13.2124C26.4639 13.0701 26.6309 13.0021 26.835 13.0083C27.0391 13.0083 27.2122 13.0949 27.3545 13.2681C27.7441 13.7381 28.0441 14.2638 28.2544 14.8452C28.4647 15.4204 28.5698 16.0265 28.5698 16.6636C28.5698 17.3068 28.4647 17.9191 28.2544 18.5005C28.0441 19.0757 27.7441 19.5952 27.3545 20.0591C27.2122 20.2384 27.0391 20.3312 26.835 20.3374C26.6309 20.3374 26.4639 20.2632 26.334 20.1147ZM16.5093 25.0039C15.3527 25.0039 14.2703 24.7874 13.2622 24.3545C12.2541 23.9215 11.3665 23.3216 10.5996 22.5547C9.83268 21.7878 9.23275 20.9033 8.7998 19.9014C8.36686 18.8932 8.15039 17.8109 8.15039 16.6543C8.15039 15.5039 8.36686 14.4246 8.7998 13.4165C9.23275 12.4084 9.83268 11.5208 10.5996 10.7539C11.3665 9.98698 12.2541 9.38704 13.2622 8.9541C14.2703 8.52116 15.3527 8.30469 16.5093 8.30469C17.6597 8.30469 18.7389 8.52116 19.7471 8.9541C20.7552 9.38704 21.6427 9.98698 22.4097 10.7539C23.1766 11.5208 23.7734 12.4084 24.2002 13.4165C24.6331 14.4246 24.8496 15.5039 24.8496 16.6543C24.8496 17.8109 24.6331 18.8932 24.2002 19.9014C23.7734 20.9033 23.1766 21.7878 22.4097 22.5547C21.6427 23.3216 20.7552 23.9215 19.7471 24.3545C18.7389 24.7874 17.6597 25.0039 16.5093 25.0039ZM12.3994 17.582H16.5C16.6546 17.582 16.7845 17.5295 16.8896 17.4243C17.001 17.313 17.0566 17.1769 17.0566 17.0161V11.5796C17.0566 11.4188 17.001 11.2858 16.8896 11.1807C16.7845 11.0755 16.6546 11.0229 16.5 11.0229C16.3392 11.0229 16.2031 11.0755 16.0918 11.1807C15.9867 11.2858 15.9341 11.4188 15.9341 11.5796V16.4688H12.3994C12.2448 16.4688 12.1118 16.5244 12.0005 16.6357C11.8953 16.7409 11.8428 16.8677 11.8428 17.0161C11.8428 17.1769 11.8953 17.313 12.0005 17.4243C12.1118 17.5295 12.2448 17.582 12.3994 17.582ZM9.42139 10.4941C9.31006 10.4941 9.20801 10.4632 9.11523 10.4014C9.02865 10.3333 8.9637 10.2467 8.92041 10.1416C8.87712 10.0426 8.8431 9.91895 8.81836 9.77051C8.79362 9.62207 8.78125 9.47054 8.78125 9.31592C8.78125 8.86442 8.88949 8.45931 9.10596 8.10059C9.32243 7.73568 9.61312 7.44499 9.97803 7.22852C10.3429 7.01204 10.7542 6.90381 11.2119 6.90381C11.4655 6.90381 11.7253 6.94092 11.9912 7.01514C12.2572 7.08936 12.4736 7.20378 12.6406 7.3584C12.7952 7.50065 12.8726 7.65837 12.8726 7.83154C12.8726 7.97998 12.8014 8.10677 12.6592 8.21191L9.76465 10.3735C9.7028 10.423 9.64404 10.457 9.58838 10.4756C9.5389 10.488 9.48324 10.4941 9.42139 10.4941ZM23.5879 10.4941C23.526 10.4941 23.4673 10.488 23.4116 10.4756C23.3621 10.457 23.3065 10.423 23.2446 10.3735L20.3408 8.21191C20.1986 8.10677 20.1274 7.97998 20.1274 7.83154C20.1274 7.65837 20.2078 7.50065 20.3687 7.3584C20.5356 7.20378 20.749 7.08936 21.0088 7.01514C21.2747 6.94092 21.5376 6.90381 21.7974 6.90381C22.2489 6.90381 22.6571 7.01204 23.022 7.22852C23.3931 7.44499 23.6838 7.73568 23.894 8.10059C24.1105 8.45931 24.2188 8.86442 24.2188 9.31592C24.2188 9.47054 24.2064 9.62207 24.1816 9.77051C24.1569 9.91895 24.126 10.0426 24.0889 10.1416C24.0332 10.2406 23.9621 10.3241 23.8755 10.3921C23.7951 10.4601 23.6992 10.4941 23.5879 10.4941ZM9.25439 24.7627C9.13688 24.6452 9.07812 24.4998 9.07812 24.3267C9.07812 24.1597 9.13688 24.0174 9.25439 23.8999L10.9058 22.2578L11.7593 23.1113L10.1265 24.7534C10.0028 24.8771 9.85433 24.939 9.68115 24.939C9.51416 24.939 9.37191 24.8802 9.25439 24.7627ZM23.7549 24.7627C23.6312 24.8802 23.4858 24.939 23.3188 24.939C23.1519 24.939 23.0034 24.8771 22.8735 24.7534L21.2407 23.1113L22.0942 22.2578L23.7456 23.8999C23.8693 24.0174 23.9312 24.1597 23.9312 24.3267C23.9312 24.4998 23.8724 24.6452 23.7549 24.7627Z" fill="black"/>
</svg>
