<svg width="33" height="33" viewBox="0 0 33 33" fill="none" xmlns="http://www.w3.org/2000/svg">
<path d="M20.3145 25.0703C20.5514 25.0703 20.6973 24.9382 20.752 24.6738C20.9342 23.653 21.1165 22.8281 21.2988 22.1992C21.4902 21.5703 21.7546 21.0781 22.0918 20.7227C22.429 20.3581 22.903 20.0801 23.5137 19.8887C24.1335 19.6973 24.9674 19.5286 26.0156 19.3828C26.2982 19.3555 26.4395 19.2051 26.4395 18.9316C26.4395 18.6673 26.2982 18.5169 26.0156 18.4805C25.1862 18.362 24.4889 18.2344 23.9238 18.0977C23.3587 17.9518 22.8939 17.765 22.5293 17.5371C22.1738 17.3092 21.8867 17.013 21.668 16.6484C21.4492 16.2747 21.2715 15.8099 21.1348 15.2539C20.998 14.6979 20.8704 14.0189 20.752 13.2168C20.7064 12.9342 20.5605 12.793 20.3145 12.793C20.0592 12.793 19.8997 12.9297 19.8359 13.2031C19.6901 14.0234 19.5443 14.7161 19.3984 15.2812C19.2617 15.8372 19.084 16.3021 18.8652 16.6758C18.6556 17.0404 18.373 17.3366 18.0176 17.5645C17.6712 17.7832 17.2201 17.9609 16.6641 18.0977C16.1081 18.2344 15.4154 18.362 14.5859 18.4805C14.3034 18.5169 14.1621 18.6673 14.1621 18.9316C14.1621 19.196 14.3034 19.3464 14.5859 19.3828C15.625 19.474 16.459 19.6107 17.0879 19.793C17.7259 19.9753 18.2181 20.2533 18.5645 20.627C18.9108 21.0007 19.1706 21.5156 19.3438 22.1719C19.526 22.819 19.6901 23.6484 19.8359 24.6602C19.8815 24.9336 20.041 25.0703 20.3145 25.0703ZM15.0508 27.2031C15.224 27.2031 15.3333 27.112 15.3789 26.9297C15.4974 26.2826 15.5977 25.8086 15.6797 25.5078C15.7708 25.207 15.9622 24.9974 16.2539 24.8789C16.5456 24.7604 17.0514 24.6465 17.7715 24.5371C17.9629 24.5007 18.0586 24.3913 18.0586 24.209C18.0586 24.0176 17.9629 23.9082 17.7715 23.8809C17.0605 23.7715 16.5547 23.653 16.2539 23.5254C15.9622 23.3978 15.7708 23.1882 15.6797 22.8965C15.5977 22.6048 15.4974 22.1445 15.3789 21.5156C15.3242 21.306 15.2148 21.2012 15.0508 21.2012C14.8867 21.2012 14.7728 21.306 14.709 21.5156C14.5905 22.1445 14.4857 22.6048 14.3945 22.8965C14.3125 23.1882 14.1302 23.3978 13.8477 23.5254C13.5651 23.653 13.0592 23.7715 12.3301 23.8809C12.1478 23.9082 12.0566 24.0176 12.0566 24.209C12.0566 24.4004 12.1569 24.5098 12.3574 24.5371C13.0775 24.6465 13.5742 24.7604 13.8477 24.8789C14.1302 24.9974 14.3125 25.2025 14.3945 25.4941C14.4857 25.7858 14.5905 26.2507 14.709 26.8887C14.7728 27.0983 14.8867 27.2031 15.0508 27.2031ZM6.88867 24.209C5.56706 24.209 4.57357 23.8809 3.9082 23.2246C3.25195 22.5684 2.92383 21.5931 2.92383 20.2988V7.22852C2.92383 5.92513 3.25195 4.94987 3.9082 4.30273C4.57357 3.64648 5.56706 3.31836 6.88867 3.31836H19.8633C21.1667 3.31836 22.151 3.64648 22.8164 4.30273C23.4818 4.95898 23.8145 5.93424 23.8145 7.22852V10.0312H21.9277V7.33789C21.9277 6.63607 21.7409 6.10742 21.3672 5.75195C21.0026 5.38737 20.4876 5.20508 19.8223 5.20508H6.91602C6.24154 5.20508 5.72201 5.38737 5.35742 5.75195C5.00195 6.10742 4.82422 6.63607 4.82422 7.33789V20.2031C4.82422 20.9049 5.00195 21.4336 5.35742 21.7891C5.72201 22.1445 6.24154 22.3223 6.91602 22.3223H10.1289V24.209H6.88867ZM13.1504 30.0605C11.8288 30.0605 10.8398 29.7324 10.1836 29.0762C9.52734 28.4199 9.19922 27.4447 9.19922 26.1504V13.0801C9.19922 11.7767 9.52734 10.8014 10.1836 10.1543C10.8398 9.49805 11.8288 9.16992 13.1504 9.16992H26.125C27.4375 9.16992 28.4219 9.49805 29.0781 10.1543C29.7435 10.8105 30.0762 11.7858 30.0762 13.0801V26.1504C30.0762 27.4447 29.7435 28.4199 29.0781 29.0762C28.4219 29.7324 27.4375 30.0605 26.125 30.0605H13.1504Z" fill="black"/>
</svg>
