<svg width="33" height="33" viewBox="0 0 33 33" fill="none" xmlns="http://www.w3.org/2000/svg">
<path d="M12.5953 13.6349L13.7769 12.4532C14.0777 12.6466 14.4 12.7325 14.7437 12.711C15.0875 12.6824 15.3883 12.5427 15.6461 12.2921C15.9111 12.0271 16.0543 11.7228 16.0758 11.379C16.1044 11.0281 16.0149 10.7094 15.8072 10.423L22.0592 4.171C22.8398 3.39756 23.6311 3.00726 24.4332 3.0001C25.2424 2.99294 26.0266 3.36892 26.7857 4.12803L28.3326 5.66416C29.0846 6.42328 29.457 7.20388 29.4498 8.00596C29.4498 8.80088 29.0595 9.59222 28.2789 10.38L22.0269 16.6427C21.7333 16.435 21.4146 16.3455 21.0709 16.3741C20.7343 16.4028 20.4335 16.546 20.1685 16.8038C19.9107 17.0616 19.7675 17.3624 19.7389 17.7062C19.7102 18.0499 19.7961 18.3686 19.9967 18.6622L18.8258 19.8439C18.5608 20.1088 18.2708 20.2485 17.9557 20.2628C17.6405 20.27 17.3505 20.1411 17.0855 19.8761L12.5953 15.3751C12.3303 15.1101 12.1978 14.8201 12.1978 14.505C12.205 14.1899 12.3375 13.8998 12.5953 13.6349ZM18.6217 11.3897C18.5357 11.4757 18.4928 11.5795 18.4928 11.7013C18.4999 11.8159 18.5501 11.9197 18.6432 12.0128C18.7148 12.0844 18.8079 12.1238 18.9224 12.131C19.037 12.131 19.1409 12.088 19.234 12.0021L24.3902 6.8458C24.469 6.76703 24.512 6.66677 24.5191 6.54502C24.5335 6.41612 24.4941 6.31227 24.401 6.2335C24.3079 6.16188 24.1969 6.1225 24.068 6.11533C23.9391 6.10817 23.8352 6.14756 23.7564 6.2335L18.6217 11.3897ZM20.4693 13.2052C20.3691 13.3126 20.3189 13.4236 20.3189 13.5382C20.3189 13.6456 20.3691 13.7494 20.4693 13.8497C20.5481 13.9285 20.6484 13.9715 20.7701 13.9786C20.8918 13.9858 20.9957 13.9428 21.0816 13.8497L26.2164 8.69346C26.2952 8.61468 26.3346 8.518 26.3346 8.40342C26.3346 8.28168 26.2952 8.17783 26.2164 8.0919C26.1376 7.9988 26.0374 7.95583 25.9156 7.96299C25.7939 7.96299 25.6864 8.00596 25.5933 8.0919L20.4693 13.2052ZM5.12948 23.5929C5.22974 23.4067 5.36223 23.2599 5.52694 23.1524C5.69882 23.045 5.87069 22.9913 6.04257 22.9913L7.19198 22.9269L12.649 17.4806L14.9478 19.7901L9.50155 25.2364L9.44784 26.4073C9.44068 26.5649 9.38339 26.726 9.27597 26.8907C9.16854 27.0626 9.02531 27.1987 8.84628 27.2989L5.20468 29.2862C5.04712 29.365 4.90389 29.4116 4.77499 29.4259C4.64608 29.4402 4.52434 29.3937 4.40975 29.2862L3.14218 28.0079C3.03475 27.9005 2.9882 27.7823 3.00253 27.6534C3.01685 27.5245 3.06698 27.3777 3.15292 27.213L5.12948 23.5929Z" fill="black"/>
</svg>
