<svg width="34" height="33" viewBox="0 0 34 33" fill="none" xmlns="http://www.w3.org/2000/svg">
<path d="M16.5 28.4912C14.8327 28.4912 13.2669 28.1738 11.8027 27.5391C10.3385 26.9043 9.04362 26.0283 7.91797 24.9111C6.80078 23.7939 5.9248 22.5033 5.29004 21.0391C4.65527 19.5664 4.33789 17.9964 4.33789 16.3291C4.33789 14.6702 4.65527 13.1087 5.29004 11.6445C5.9248 10.1719 6.80078 8.87695 7.91797 7.75977C9.03516 6.63411 10.3258 5.75391 11.79 5.11914C13.2542 4.48438 14.82 4.16699 16.4873 4.16699C18.0531 4.16699 19.5299 4.45052 20.918 5.01758C22.306 5.58464 23.5501 6.37174 24.6504 7.37891C25.7507 8.3776 26.6436 9.54134 27.3291 10.8701C28.0146 12.1904 28.4336 13.6165 28.5859 15.1484C28.112 15.0553 27.6253 15.0088 27.126 15.0088C26.085 15.0088 25.1074 15.2077 24.1934 15.6055C23.2793 15.9948 22.471 16.5407 21.7686 17.2432C21.0745 17.9372 20.5286 18.7412 20.1309 19.6553C19.7331 20.5693 19.5342 21.5511 19.5342 22.6006C19.5342 23.5146 19.695 24.3864 20.0166 25.2158C20.3382 26.0452 20.7826 26.7943 21.3496 27.4629C20.5964 27.793 19.8135 28.0469 19.001 28.2246C18.1885 28.4023 17.3548 28.4912 16.5 28.4912ZM10.1143 17.5859H16.4873C16.7074 17.5859 16.8893 17.514 17.0332 17.3701C17.1771 17.2178 17.249 17.0316 17.249 16.8115V8.59766C17.249 8.38607 17.1771 8.20833 17.0332 8.06445C16.8893 7.91211 16.7074 7.83594 16.4873 7.83594C16.2757 7.83594 16.098 7.91211 15.9541 8.06445C15.8102 8.20833 15.7383 8.38607 15.7383 8.59766V16.0625H10.1143C9.90267 16.0625 9.7207 16.1387 9.56836 16.291C9.42448 16.4349 9.35254 16.6084 9.35254 16.8115C9.35254 17.0316 9.42448 17.2178 9.56836 17.3701C9.7207 17.514 9.90267 17.5859 10.1143 17.5859ZM27.1514 28.6436C26.3135 28.6436 25.5306 28.487 24.8027 28.1738C24.0749 27.8607 23.4316 27.4248 22.873 26.8662C22.3145 26.3076 21.8786 25.6644 21.5654 24.9365C21.2523 24.2087 21.0957 23.4258 21.0957 22.5879C21.0957 21.4876 21.3708 20.4805 21.9209 19.5664C22.471 18.6523 23.2031 17.9202 24.1172 17.3701C25.0312 16.82 26.0426 16.5449 27.1514 16.5449C28.2432 16.5449 29.2461 16.82 30.1602 17.3701C31.0827 17.9202 31.8148 18.6523 32.3564 19.5664C32.9066 20.4805 33.1816 21.4876 33.1816 22.5879C33.1816 23.4173 33.0208 24.196 32.6992 24.9238C32.3861 25.6517 31.9502 26.2949 31.3916 26.8535C30.833 27.4121 30.1898 27.848 29.4619 28.1611C28.734 28.4827 27.9639 28.6436 27.1514 28.6436ZM27.126 26.4473C27.3968 26.4473 27.6253 26.3499 27.8115 26.1553C28.0062 25.9606 28.1035 25.7279 28.1035 25.457C28.1035 25.1862 28.0062 24.9535 27.8115 24.7588C27.6253 24.5641 27.3968 24.4668 27.126 24.4668C26.8551 24.4668 26.6224 24.5641 26.4277 24.7588C26.2331 24.9535 26.1357 25.1862 26.1357 25.457C26.1357 25.7279 26.2331 25.9606 26.4277 26.1553C26.6224 26.3499 26.8551 26.4473 27.126 26.4473ZM27.126 23.6289C27.3291 23.6289 27.4941 23.5654 27.6211 23.4385C27.748 23.3115 27.8115 23.1507 27.8115 22.9561L27.9131 19.4902C27.9131 19.2533 27.8411 19.0628 27.6973 18.9189C27.5534 18.7666 27.363 18.6904 27.126 18.6904C26.8805 18.6904 26.6859 18.7666 26.542 18.9189C26.3981 19.0628 26.3304 19.2533 26.3389 19.4902L26.4277 22.9561C26.4362 23.1507 26.5039 23.3115 26.6309 23.4385C26.7578 23.5654 26.9229 23.6289 27.126 23.6289Z" fill="black"/>
</svg>
