<svg width="33" height="33" viewBox="0 0 33 33" fill="none" xmlns="http://www.w3.org/2000/svg">
<defs>
    <!-- Define the gradient -->
    <linearGradient id="lightGradient" x1="0" y1="0" x2="33" y2="33" gradientUnits="userSpaceOnUse">
      <stop offset="0%" stop-color="#25C1B3" /> 
      <stop offset="100%" stop-color="#3372FF" /> 
    </linearGradient>
  </defs>
    <!-- Apply the gradient to the path using fill="url(#lightGradient)" -->
<path d="M16.9492 29.8984C15.1634 29.8984 13.4876 29.5599 11.9219 28.8828C10.3561 28.2142 8.98079 27.2874 7.7959 26.1025C6.611 24.9092 5.68001 23.5339 5.00293 21.9766C4.33431 20.4108 4 18.735 4 16.9492C4 15.1634 4.33431 13.4876 5.00293 11.9219C5.68001 10.3561 6.611 8.98079 7.7959 7.7959C8.98079 6.611 10.3561 5.68424 11.9219 5.01562C13.4876 4.33854 15.1634 4 16.9492 4C18.735 4 20.4108 4.33854 21.9766 5.01562C23.5423 5.68424 24.9176 6.611 26.1025 7.7959C27.2874 8.98079 28.2142 10.3561 28.8828 11.9219C29.5599 13.4876 29.8984 15.1634 29.8984 16.9492C29.8984 18.735 29.5599 20.4108 28.8828 21.9766C28.2142 23.5339 27.2874 24.9092 26.1025 26.1025C24.9176 27.2874 23.5423 28.2142 21.9766 28.8828C20.4108 29.5599 18.735 29.8984 16.9492 29.8984ZM16.9619 8.65918C16.7419 8.65918 16.5514 8.74381 16.3906 8.91309C16.2298 9.07389 16.1494 9.26432 16.1494 9.48438V11.0459C16.1494 11.2575 16.2298 11.4437 16.3906 11.6045C16.5514 11.7653 16.7419 11.8457 16.9619 11.8457C17.1735 11.8457 17.3597 11.7653 17.5205 11.6045C17.6813 11.4437 17.7617 11.2575 17.7617 11.0459V9.48438C17.7617 9.26432 17.6813 9.07389 17.5205 8.91309C17.3597 8.74381 17.1735 8.65918 16.9619 8.65918ZM22.8145 11.084C22.6536 10.9316 22.459 10.8555 22.2305 10.8555C22.0104 10.8555 21.8242 10.9316 21.6719 11.084L20.5547 12.2266C20.3939 12.3958 20.3135 12.5905 20.3135 12.8105C20.3219 13.0221 20.4023 13.2041 20.5547 13.3564C20.707 13.5173 20.8932 13.5977 21.1133 13.5977C21.3418 13.5892 21.5322 13.5088 21.6846 13.3564L22.8145 12.2266C22.9668 12.0742 23.043 11.888 23.043 11.668C23.043 11.4395 22.9668 11.2448 22.8145 11.084ZM25.2139 16.9492C25.2139 16.7292 25.1335 16.5387 24.9727 16.3779C24.8203 16.2171 24.6341 16.1367 24.4141 16.1367H22.8525C22.6325 16.1367 22.4421 16.2214 22.2812 16.3906C22.1204 16.5514 22.04 16.7376 22.04 16.9492C22.04 17.1608 22.1204 17.347 22.2812 17.5078C22.4421 17.6686 22.6325 17.749 22.8525 17.749H24.4141C24.6341 17.749 24.8203 17.6729 24.9727 17.5205C25.1335 17.3597 25.2139 17.1693 25.2139 16.9492ZM22.8145 22.8018C22.9753 22.641 23.0514 22.4505 23.043 22.2305C23.043 22.002 22.9668 21.8158 22.8145 21.6719L21.6719 20.542C21.528 20.3896 21.3418 20.3135 21.1133 20.3135C20.8932 20.3135 20.707 20.3896 20.5547 20.542C20.3939 20.7028 20.3135 20.8932 20.3135 21.1133C20.3135 21.3333 20.3939 21.5195 20.5547 21.6719L21.6719 22.8018C21.8242 22.9541 22.0104 23.0303 22.2305 23.0303C22.459 23.0303 22.6536 22.9541 22.8145 22.8018ZM16.9619 25.2266C17.1735 25.2266 17.3597 25.1462 17.5205 24.9854C17.6813 24.8245 17.7617 24.6341 17.7617 24.4141V22.8525C17.7617 22.641 17.6813 22.4548 17.5205 22.2939C17.3597 22.1331 17.1735 22.0527 16.9619 22.0527C16.7419 22.0527 16.5514 22.1331 16.3906 22.2939C16.2298 22.4548 16.1494 22.641 16.1494 22.8525V24.4141C16.1494 24.6341 16.2298 24.8245 16.3906 24.9854C16.5514 25.1462 16.7419 25.2266 16.9619 25.2266ZM11.0967 22.7891C11.2575 22.9499 11.4479 23.0303 11.668 23.0303C11.888 23.0303 12.0785 22.9541 12.2393 22.8018L13.3564 21.6846C13.5088 21.5322 13.585 21.346 13.585 21.126C13.5934 20.9059 13.5173 20.7113 13.3564 20.542C13.2041 20.3896 13.0137 20.3135 12.7852 20.3135C12.5566 20.3135 12.3704 20.3896 12.2266 20.542L11.0967 21.6719C10.9443 21.8242 10.8682 22.0104 10.8682 22.2305C10.8682 22.4505 10.9443 22.6367 11.0967 22.7891ZM8.69727 16.9492C8.69727 17.1693 8.77344 17.3597 8.92578 17.5205C9.08659 17.6729 9.28125 17.749 9.50977 17.749H11.0586C11.2786 17.749 11.4691 17.6686 11.6299 17.5078C11.7907 17.347 11.8711 17.1608 11.8711 16.9492C11.8711 16.7376 11.7907 16.5514 11.6299 16.3906C11.4691 16.2214 11.2786 16.1367 11.0586 16.1367H9.50977C9.28125 16.1367 9.08659 16.2171 8.92578 16.3779C8.77344 16.5387 8.69727 16.7292 8.69727 16.9492ZM11.1094 11.084C10.957 11.2448 10.8766 11.4395 10.8682 11.668C10.8682 11.888 10.9443 12.0742 11.0967 12.2266L12.2266 13.3564C12.3789 13.5173 12.5651 13.5977 12.7852 13.5977C13.0137 13.5892 13.2041 13.5088 13.3564 13.3564C13.5088 13.2041 13.585 13.0179 13.585 12.7979C13.585 12.5693 13.5088 12.3789 13.3564 12.2266L12.2393 11.084C12.0869 10.9401 11.9007 10.8682 11.6807 10.8682C11.4606 10.8682 11.2702 10.9401 11.1094 11.084ZM16.9492 20.9229C17.6855 20.9229 18.3542 20.7451 18.9551 20.3896C19.556 20.0342 20.0342 19.556 20.3896 18.9551C20.7536 18.3457 20.9355 17.6771 20.9355 16.9492C20.9355 16.2129 20.7536 15.5443 20.3896 14.9434C20.0342 14.3424 19.556 13.8643 18.9551 13.5088C18.3542 13.1533 17.6855 12.9756 16.9492 12.9756C16.2214 12.9756 15.557 13.1533 14.9561 13.5088C14.3551 13.8643 13.8727 14.3424 13.5088 14.9434C13.1533 15.5443 12.9756 16.2129 12.9756 16.9492C12.9756 17.6771 13.1533 18.3457 13.5088 18.9551C13.8727 19.556 14.3551 20.0342 14.9561 20.3896C15.557 20.7451 16.2214 20.9229 16.9492 20.9229Z" fill="url(#lightGradient)"/>
</svg>
