<svg width="33" height="33" viewBox="0 0 33 33" fill="none" xmlns="http://www.w3.org/2000/svg">
<path d="M16.6636 17.0199C16.4136 16.8089 16.2886 16.5706 16.2886 16.305C16.2964 16.0316 16.4214 15.7894 16.6636 15.5785L20.2144 12.4261C20.4488 12.2152 20.6949 12.1136 20.9527 12.1214C21.2183 12.1292 21.441 12.2269 21.6207 12.4144C21.8082 12.5941 21.9019 12.8441 21.9019 13.1644V15.3089H28.23C28.5113 15.3089 28.7496 15.4066 28.9449 15.6019C29.1402 15.7894 29.2379 16.0277 29.2379 16.3167C29.2379 16.5902 29.1402 16.8246 28.9449 17.0199C28.7496 17.2152 28.5113 17.3128 28.23 17.3128H21.9019V19.4339C21.9019 19.7621 21.8082 20.0199 21.6207 20.2074C21.4332 20.3871 21.2066 20.4769 20.941 20.4769C20.6832 20.4769 20.441 20.3714 20.2144 20.1605L16.6636 17.0199ZM3.59723 8.27768C3.59723 6.50424 4.0152 5.06284 4.85114 3.95346C5.69489 2.84409 6.98785 2.20737 8.73004 2.0433C7.8941 2.75424 7.24176 3.64877 6.77301 4.7269C6.31207 5.79721 6.0816 6.9808 6.0816 8.27768V24.3324C6.0816 25.6292 6.31207 26.8128 6.77301 27.8831C7.24176 28.9613 7.8941 29.8558 8.73004 30.5667C6.98785 30.4105 5.69489 29.7738 4.85114 28.6566C4.0152 27.5472 3.59723 26.1058 3.59723 24.3324V8.27768ZM7.68707 8.27768C7.68707 7.05893 7.91754 5.9769 8.37848 5.03159C8.84723 4.08627 9.50739 3.34409 10.3589 2.80502C11.2183 2.26596 12.2261 1.99643 13.3824 1.99643C14.5386 1.99643 15.5425 2.26596 16.3941 2.80502C17.2535 3.34409 17.9136 4.08627 18.3746 5.03159C18.8433 5.9769 19.0777 7.05893 19.0777 8.27768V11.2894L15.6089 14.3831C15.2027 14.7269 14.9332 15.1331 14.8004 15.6019C14.6675 16.0628 14.6675 16.5238 14.8004 16.9847C14.9332 17.4456 15.1988 17.8558 15.5972 18.2152L19.0777 21.3206V24.3324C19.0777 25.5511 18.8433 26.6292 18.3746 27.5667C17.9136 28.5121 17.2535 29.2542 16.3941 29.7933C15.5425 30.3324 14.5386 30.6019 13.3824 30.6019C12.2261 30.6019 11.2183 30.3324 10.3589 29.7933C9.50739 29.2542 8.84723 28.5121 8.37848 27.5667C7.91754 26.6292 7.68707 25.5511 7.68707 24.3324V8.27768Z" fill="black"/>
</svg>
