<svg width="33" height="33" viewBox="0 0 33 33" fill="none" xmlns="http://www.w3.org/2000/svg">
<path d="M8.90625 27.7007C7.83398 27.7007 7.04736 27.4458 6.54639 26.936C6.04541 26.4351 5.79492 25.6528 5.79492 24.5894V21.8208C5.79492 21.5659 5.70703 21.3462 5.53125 21.1616L3.56689 19.1841C2.81982 18.437 2.44189 17.7119 2.43311 17.0088C2.43311 16.2969 2.81104 15.563 3.56689 14.8071L5.53125 12.8428C5.70703 12.6582 5.79492 12.4385 5.79492 12.1836V9.41504C5.79492 8.33398 6.04541 7.54297 6.54639 7.04199C7.04736 6.54101 7.83398 6.29053 8.90625 6.29053H11.688C11.9429 6.29053 12.1538 6.20264 12.3208 6.02685L14.2983 4.0625C15.0542 3.31543 15.7881 2.94189 16.5 2.94189C17.2119 2.9331 17.9414 3.30664 18.6885 4.0625L20.666 6.02685C20.8418 6.20264 21.0571 6.29053 21.312 6.29053H24.0938C25.166 6.29053 25.9526 6.54541 26.4536 7.05517C26.9546 7.56494 27.2051 8.35156 27.2051 9.41504V12.1836C27.2051 12.4385 27.293 12.6582 27.4688 12.8428L29.4199 14.8071C30.1846 15.563 30.5669 16.2969 30.5669 17.0088C30.5669 17.7119 30.1846 18.437 29.4199 19.1841L27.4688 21.1616C27.293 21.3462 27.2051 21.5659 27.2051 21.8208V24.5894C27.2051 25.6616 26.9502 26.4482 26.4404 26.9492C25.9395 27.4502 25.1572 27.7007 24.0938 27.7007H21.312C21.0571 27.7007 20.8418 27.793 20.666 27.9775L18.6885 29.9287C17.9414 30.6846 17.2119 31.0625 16.5 31.0625C15.7969 31.0713 15.063 30.6934 14.2983 29.9287L12.3208 27.9775C12.1538 27.793 11.9429 27.7007 11.688 27.7007H8.90625ZM15.1289 23.0601C15.5156 23.0601 15.8276 22.8799 16.0649 22.5195L22.0371 13.1196C22.1074 13.0054 22.1689 12.8867 22.2217 12.7637C22.2832 12.6318 22.314 12.5044 22.314 12.3813C22.314 12.1177 22.2173 11.9067 22.0239 11.7485C21.8306 11.5903 21.6108 11.5112 21.3647 11.5112C21.0396 11.5112 20.7715 11.6826 20.5605 12.0254L15.0762 20.7925L12.3735 17.3911C12.2417 17.2065 12.1055 17.0835 11.9648 17.022C11.833 16.9517 11.688 16.9165 11.5298 16.9165C11.2749 16.9165 11.0596 17.0088 10.8838 17.1934C10.708 17.3691 10.6201 17.5889 10.6201 17.8525C10.6201 18.1074 10.7124 18.3491 10.897 18.5776L14.127 22.5195C14.2764 22.7041 14.4302 22.8403 14.5884 22.9282C14.7466 23.0161 14.9268 23.0601 15.1289 23.0601Z" fill="black"/>
</svg>
