<svg width="33" height="33" viewBox="0 0 33 33" fill="none" xmlns="http://www.w3.org/2000/svg">
<defs>
    <!-- Define the gradient -->
    <linearGradient id="nightGradient" x1="0" y1="0" x2="33" y2="33" gradientUnits="userSpaceOnUse">
      <stop offset="0%" stop-color="#6EEAD2" />
      <stop offset="100%" stop-color="#25BBFF" /> 
    </linearGradient>
  </defs>
    <!-- Apply the gradient to the path using fill="url(#nightGradient)" -->
<path d="M16.9492 29.8984C15.1634 29.8984 13.4876 29.5599 11.9219 28.8828C10.3561 28.2142 8.98079 27.2874 7.7959 26.1025C6.611 24.9092 5.68001 23.5339 5.00293 21.9766C4.33431 20.4108 4 18.735 4 16.9492C4 15.1634 4.33431 13.4876 5.00293 11.9219C5.68001 10.3561 6.611 8.98079 7.7959 7.7959C8.98079 6.611 10.3561 5.68424 11.9219 5.01562C13.4876 4.33854 15.1634 4 16.9492 4C18.735 4 20.4108 4.33854 21.9766 5.01562C23.5423 5.68424 24.9176 6.611 26.1025 7.7959C27.2874 8.98079 28.2142 10.3561 28.8828 11.9219C29.5599 13.4876 29.8984 15.1634 29.8984 16.9492C29.8984 18.735 29.5599 20.4108 28.8828 21.9766C28.2142 23.5339 27.2874 24.9092 26.1025 26.1025C24.9176 27.2874 23.5423 28.2142 21.9766 28.8828C20.4108 29.5599 18.735 29.8984 16.9492 29.8984ZM17.0762 24.5791C18.1172 24.5791 19.082 24.3844 19.9707 23.9951C20.8594 23.5973 21.6296 23.0726 22.2812 22.4209C22.9414 21.7692 23.445 21.054 23.792 20.2754C23.8258 20.1908 23.847 20.1146 23.8555 20.0469C23.8639 19.9707 23.8682 19.9157 23.8682 19.8818C23.8682 19.7464 23.8216 19.6364 23.7285 19.5518C23.6354 19.4671 23.5339 19.4248 23.4238 19.4248C23.373 19.4248 23.3138 19.4333 23.2461 19.4502C23.1868 19.4671 23.1149 19.4883 23.0303 19.5137C22.7425 19.5898 22.3997 19.666 22.002 19.7422C21.6126 19.8184 21.2021 19.8564 20.7705 19.8564C19.4925 19.8564 18.3838 19.6068 17.4443 19.1074C16.5133 18.5996 15.7897 17.8887 15.2734 16.9746C14.7572 16.0521 14.499 14.9688 14.499 13.7246C14.499 13.2676 14.5456 12.8105 14.6387 12.3535C14.7402 11.888 14.8799 11.4352 15.0576 10.9951C15.0999 10.8682 15.1211 10.7666 15.1211 10.6904C15.1211 10.555 15.0788 10.4492 14.9941 10.373C14.9095 10.2969 14.8037 10.2588 14.6768 10.2588C14.5329 10.2588 14.4017 10.2842 14.2832 10.335C13.3776 10.7158 12.5778 11.249 11.8838 11.9346C11.1898 12.6117 10.6481 13.403 10.2588 14.3086C9.86947 15.2057 9.6748 16.1663 9.6748 17.1904C9.6748 18.2061 9.86523 19.1624 10.2461 20.0596C10.6354 20.9567 11.1686 21.7438 11.8457 22.4209C12.5228 23.098 13.3057 23.627 14.1943 24.0078C15.0915 24.3887 16.0521 24.5791 17.0762 24.5791Z" fill="url(#nightGradient)"/>
</svg>
