<svg width="33" height="33" viewBox="0 0 33 33" fill="none" xmlns="http://www.w3.org/2000/svg">
<path d="M11.7114 27.4453C12.0122 26.9736 12.2446 26.4609 12.4087 25.9072C12.5796 25.3604 12.665 24.793 12.665 24.2051C12.665 23.3574 12.5044 22.5645 12.1831 21.8262C11.8618 21.0879 11.4175 20.4351 10.8501 19.8677C10.2896 19.3003 9.63672 18.8594 8.8916 18.5449C8.15332 18.2236 7.36377 18.063 6.52295 18.063V14.7612C6.52295 13.8179 6.76221 13.1069 7.24072 12.6284C7.72607 12.1499 8.45068 11.9106 9.41455 11.9106H23.5854C24.5425 11.9106 25.2637 12.1533 25.749 12.6387C26.2344 13.1172 26.4771 13.8247 26.4771 14.7612V24.5845C26.4771 25.5278 26.2344 26.2388 25.749 26.7173C25.2637 27.2026 24.5425 27.4453 23.5854 27.4453H11.7114ZM8.40967 10.311C8.47119 9.91455 8.60791 9.60693 8.81982 9.38818C9.03174 9.16943 9.35645 9.06006 9.79395 9.06006H23.2061C23.6367 9.06006 23.958 9.16943 24.1699 9.38818C24.3887 9.60693 24.5288 9.91455 24.5903 10.311H8.40967ZM10.3887 7.70654C10.4092 7.3374 10.5254 7.05371 10.7373 6.85547C10.9561 6.65723 11.2671 6.55811 11.6704 6.55811H21.3398C21.7363 6.55811 22.0405 6.65723 22.2524 6.85547C22.4712 7.05371 22.5942 7.3374 22.6216 7.70654H10.3887ZM6.5332 29.0962C5.85645 29.0962 5.22412 28.9697 4.63623 28.7168C4.04834 28.4639 3.52881 28.1118 3.07764 27.6606C2.62646 27.2095 2.27441 26.6899 2.02148 26.1021C1.76855 25.5142 1.64209 24.8818 1.64209 24.2051C1.64209 23.3164 1.86426 22.5029 2.30859 21.7646C2.75293 21.0264 3.34424 20.4351 4.08252 19.9907C4.8208 19.5464 5.6377 19.3242 6.5332 19.3242C7.41504 19.3242 8.2251 19.5464 8.96338 19.9907C9.7085 20.4351 10.2998 21.0264 10.7373 21.7646C11.1816 22.5029 11.4038 23.3164 11.4038 24.2051C11.4038 24.875 11.2739 25.5039 11.0142 26.0918C10.7612 26.6797 10.4092 27.1992 9.95801 27.6504C9.50684 28.1016 8.9873 28.4536 8.39941 28.7065C7.81152 28.9663 7.18945 29.0962 6.5332 29.0962ZM6.5332 27.2812C6.7041 27.2812 6.84082 27.23 6.94336 27.1274C7.0459 27.0249 7.09717 26.8882 7.09717 26.7173V24.769H9.03516C9.20605 24.769 9.34277 24.7178 9.44531 24.6152C9.54785 24.5127 9.59912 24.376 9.59912 24.2051C9.59912 24.0342 9.54785 23.8975 9.44531 23.7949C9.34277 23.6924 9.20605 23.6411 9.03516 23.6411H7.09717V21.7031C7.09717 21.5322 7.0459 21.3955 6.94336 21.293C6.84082 21.1904 6.7041 21.1392 6.5332 21.1392C6.3623 21.1392 6.22559 21.1904 6.12305 21.293C6.02051 21.3955 5.96924 21.5322 5.96924 21.7031V23.6411H4.021C3.85693 23.6411 3.72363 23.6924 3.62109 23.7949C3.51172 23.8975 3.45703 24.0342 3.45703 24.2051C3.45703 24.376 3.51172 24.5127 3.62109 24.6152C3.72363 24.7178 3.85693 24.769 4.021 24.769H5.96924V26.7173C5.96924 26.8882 6.02051 27.0249 6.12305 27.1274C6.22559 27.23 6.3623 27.2812 6.5332 27.2812Z" fill="black"/>
</svg>
