<svg width="33" height="33" viewBox="0 0 33 33" fill="none" xmlns="http://www.w3.org/2000/svg">
<path d="M4.37842 29.0161C3.90641 29.0161 3.54834 28.89 3.3042 28.6377C3.06006 28.3854 2.93799 28.0355 2.93799 27.5879V8.19092C2.93799 7.72705 3.06006 7.37305 3.3042 7.12891C3.54834 6.87663 3.90641 6.75049 4.37842 6.75049H6.46582C6.94596 6.75049 7.30404 6.87663 7.54004 7.12891C7.77604 7.37305 7.89404 7.72705 7.89404 8.19092V27.5879C7.89404 28.0355 7.77604 28.3854 7.54004 28.6377C7.30404 28.89 6.94596 29.0161 6.46582 29.0161H4.37842ZM10.6162 29.0161C10.1523 29.0161 9.79834 28.89 9.5542 28.6377C9.31006 28.3854 9.18799 28.0355 9.18799 27.5879V12.1094C9.18799 11.6536 9.31006 11.2996 9.5542 11.0474C9.79834 10.7951 10.1523 10.6689 10.6162 10.6689H15.2061C15.6781 10.6689 16.0321 10.7951 16.2681 11.0474C16.5122 11.2996 16.6343 11.6536 16.6343 12.1094V27.5879C16.6343 28.0355 16.5122 28.3854 16.2681 28.6377C16.0321 28.89 15.6781 29.0161 15.2061 29.0161H10.6162ZM11.6416 14.6362H14.2051C14.4004 14.6362 14.5591 14.5752 14.6812 14.4531C14.8032 14.3229 14.8643 14.1642 14.8643 13.9771C14.8643 13.798 14.8032 13.6475 14.6812 13.5254C14.5591 13.3952 14.4004 13.3301 14.2051 13.3301H11.6416C11.4463 13.3301 11.2835 13.3952 11.1533 13.5254C11.0231 13.6475 10.958 13.798 10.958 13.9771C10.958 14.1642 11.0231 14.3229 11.1533 14.4531C11.2835 14.5752 11.4463 14.6362 11.6416 14.6362ZM11.6416 26.3672H14.2051C14.4004 26.3672 14.5591 26.3021 14.6812 26.1719C14.8032 26.0498 14.8643 25.8952 14.8643 25.708C14.8643 25.529 14.8032 25.3784 14.6812 25.2563C14.5591 25.1343 14.4004 25.0732 14.2051 25.0732H11.6416C11.4463 25.0732 11.2835 25.1343 11.1533 25.2563C11.0231 25.3784 10.958 25.529 10.958 25.708C10.958 25.8952 11.0231 26.0498 11.1533 26.1719C11.2835 26.3021 11.4463 26.3672 11.6416 26.3672ZM19.3442 29.0161C18.8804 29.0161 18.5264 28.89 18.2822 28.6377C18.0381 28.3854 17.916 28.0355 17.916 27.5879V5.07812C17.916 4.6224 18.0381 4.27246 18.2822 4.02832C18.5264 3.77604 18.8804 3.6499 19.3442 3.6499H22.0908C22.5628 3.6499 22.9168 3.77604 23.1528 4.02832C23.397 4.27246 23.519 4.6224 23.519 5.07812V27.5879C23.519 28.0355 23.397 28.3854 23.1528 28.6377C22.9168 28.89 22.5628 29.0161 22.0908 29.0161H19.3442ZM27.0225 29.0771C26.5505 29.1341 26.1842 29.0487 25.9238 28.8208C25.6634 28.5929 25.5088 28.2552 25.46 27.8076L23.3237 8.87451C23.2749 8.41878 23.3563 8.05664 23.5679 7.78809C23.7795 7.51953 24.1172 7.3527 24.5811 7.2876L26.3511 7.05566C26.8149 6.99056 27.1812 7.07194 27.4497 7.2998C27.7183 7.51953 27.877 7.85726 27.9258 8.31299L30.0376 27.2461C30.0864 27.7018 30.005 28.064 29.7935 28.3325C29.5819 28.6092 29.2441 28.776 28.7803 28.833L27.0225 29.0771Z" fill="black"/>
</svg>
