<svg width="33" height="33" viewBox="0 0 33 33" fill="none" xmlns="http://www.w3.org/2000/svg">
<path d="M16.9439 29.9C15.1625 29.9 13.4873 29.5607 11.9183 28.8821C10.3575 28.2118 8.9847 27.2838 7.79981 26.0984C6.61492 24.9129 5.68336 23.5395 5.00511 21.9779C4.33504 20.4082 4 18.7323 4 16.95C4 15.1596 4.33504 13.4836 5.00511 11.9221C5.68336 10.3524 6.61492 8.97479 7.79981 7.78935C8.9847 6.6039 10.3575 5.67598 11.9183 5.00559C13.4873 4.3352 15.1625 4 16.9439 4C18.7335 4 20.4086 4.3352 21.9694 5.00559C23.5384 5.67598 24.9153 6.6039 26.1002 7.78935C27.2851 8.97479 28.2126 10.3524 28.8826 11.9221C29.5609 13.4836 29.9 15.1596 29.9 16.95C29.9 18.7323 29.5609 20.4082 28.8826 21.9779C28.2126 23.5395 27.2851 24.9129 26.1002 26.0984C24.9153 27.2838 23.5384 28.2118 21.9694 28.8821C20.4086 29.5607 18.7335 29.9 16.9439 29.9ZM8.97653 14.5587C8.97653 15.0165 9.20942 15.3476 9.6752 15.552L11.6854 16.4472L15.5588 14.6568C15.5506 14.6322 15.5465 14.5995 15.5465 14.5587C15.5465 14.297 15.6936 14.0927 15.9878 13.9455C16.282 13.7902 16.6088 13.7125 16.9684 13.7125C17.3198 13.7125 17.6425 13.7902 17.9367 13.9455C18.2309 14.0927 18.378 14.297 18.378 14.5587C18.378 14.8203 18.2309 15.0328 17.9367 15.1964C17.6507 15.3517 17.3279 15.4294 16.9684 15.4294C16.7232 15.4294 16.5067 15.3967 16.3187 15.3313L12.7641 16.9623L15.3014 18.1273C15.6119 18.2744 15.902 18.3807 16.1717 18.4461C16.4413 18.5115 16.6987 18.5401 16.9439 18.532C17.1972 18.5401 17.4587 18.5115 17.7283 18.4461C17.998 18.3807 18.2881 18.2744 18.5986 18.1273L24.2125 15.552C24.6865 15.3394 24.9235 15.0083 24.9235 14.5587C24.9235 14.3543 24.8622 14.1622 24.7396 13.9823C24.617 13.8024 24.4413 13.6594 24.2125 13.5531L18.5986 11.0023C17.9531 10.708 17.4015 10.5649 16.9439 10.5731C16.4863 10.5649 15.9388 10.708 15.3014 11.0023L9.6752 13.5531C9.45457 13.6594 9.28296 13.8024 9.16039 13.9823C9.03781 14.1622 8.97653 14.3543 8.97653 14.5587ZM11.0726 18.7895C11.0726 19.3127 11.2809 19.8196 11.6977 20.3101V17.5141L11.0726 17.2321V18.7895ZM11.1461 23.6703C11.1461 23.9401 11.2278 24.1608 11.3912 24.3325C11.5547 24.496 11.7753 24.5777 12.0531 24.5777H12.3964C12.666 24.5777 12.8826 24.496 13.046 24.3325C13.2176 24.1608 13.3034 23.9401 13.3034 23.6703V22.5175C13.3034 22.0842 13.1155 21.8022 12.7396 21.6714V21.1686C12.3228 20.9315 11.9755 20.6453 11.6977 20.3101V21.6591C11.33 21.7899 11.1461 22.076 11.1461 22.5175V23.6703ZM12.7396 21.1686C13.2707 21.4792 13.8959 21.7245 14.615 21.9044C15.3341 22.076 16.1104 22.1619 16.9439 22.1619C18.0716 22.1619 19.0767 22.0147 19.9592 21.7204C20.8499 21.4179 21.5486 21.0132 22.0552 20.5063C22.5619 19.9913 22.8152 19.419 22.8152 18.7895V17.2321L18.9786 18.998C18.6109 19.1615 18.2554 19.2841 17.9122 19.3659C17.5772 19.4476 17.2544 19.4844 16.9439 19.4762C16.6333 19.4844 16.3065 19.4517 15.9633 19.3781C15.6282 19.2964 15.2809 19.1696 14.9214 18.998L12.7396 18.0046V21.1686Z" fill="black"/>
</svg>
