<svg width="33" height="33" viewBox="0 0 33 33" fill="none" xmlns="http://www.w3.org/2000/svg">
<path d="M5.8158 20.3659C5.8158 19.4343 6.0531 18.5158 6.52771 17.6105C7.00232 16.6965 7.68347 15.8615 8.57117 15.1057C9.45886 14.3498 10.5179 13.7477 11.7484 13.2995L12.1835 7.24823C11.5419 6.88788 10.9442 6.51874 10.3905 6.14081C9.84558 5.75409 9.36658 5.38055 8.95349 5.0202C8.54041 4.65985 8.2196 4.33026 7.99109 4.03143C7.6571 3.59198 7.49011 3.16132 7.49011 2.73944C7.49011 2.33514 7.63074 2.00116 7.91199 1.73749C8.19324 1.47382 8.56677 1.34198 9.03259 1.34198H23.0863C23.5433 1.34198 23.9125 1.47382 24.1937 1.73749C24.4838 2.00116 24.6288 2.33514 24.6288 2.73944C24.6288 3.16132 24.4574 3.59198 24.1146 4.03143C23.8861 4.33026 23.5653 4.65985 23.1522 5.0202C22.7391 5.38055 22.2557 5.74969 21.702 6.12762C21.1571 6.50555 20.5638 6.87909 19.9222 7.24823L20.3573 13.2995C21.5878 13.7477 22.6469 14.3498 23.5345 15.1057C24.4222 15.8615 25.1034 16.6965 25.578 17.6105C26.0526 18.5158 26.2899 19.4343 26.2899 20.3659C26.2899 20.9284 26.1141 21.381 25.7626 21.7238C25.4198 22.0578 24.9496 22.2248 24.3519 22.2248H17.2196V28.3815C17.2196 28.8825 17.1757 29.3571 17.0878 29.8054C16.9999 30.2536 16.89 30.6447 16.7582 30.9787C16.6263 31.3215 16.4945 31.5895 16.3627 31.7829C16.2396 31.9763 16.1385 32.0729 16.0594 32.0729C15.9716 32.0729 15.8617 31.9763 15.7299 31.7829C15.6068 31.5895 15.4794 31.3215 15.3475 30.9787C15.2157 30.6447 15.1058 30.2536 15.0179 29.8054C14.9301 29.3571 14.8861 28.8825 14.8861 28.3815V22.2248H7.75378C7.16492 22.2248 6.6947 22.0578 6.34314 21.7238C5.99158 21.381 5.8158 20.9284 5.8158 20.3659Z" fill="black"/>
</svg>
