<svg width="33" height="33" viewBox="0 0 33 33" fill="none" xmlns="http://www.w3.org/2000/svg">
<path d="M11.1045 18.7583H16.8906C17.2243 18.7583 17.505 18.6444 17.7329 18.4165C17.9608 18.1886 18.0747 17.9079 18.0747 17.5742V9.98145C18.0747 9.65592 17.9608 9.37923 17.7329 9.15137C17.505 8.9235 17.2243 8.80957 16.8906 8.80957C16.557 8.80957 16.2762 8.9235 16.0483 9.15137C15.8205 9.37923 15.7065 9.65592 15.7065 9.98145V16.3901H11.1045C10.7708 16.3901 10.4901 16.5041 10.2622 16.7319C10.0343 16.9598 9.92041 17.2406 9.92041 17.5742C9.92041 17.9079 10.0343 18.1886 10.2622 18.4165C10.4901 18.6444 10.7708 18.7583 11.1045 18.7583ZM16.8906 29.7812C15.1165 29.7812 13.4482 29.4435 11.8857 28.7681C10.3314 28.1007 8.96419 27.1771 7.78418 25.9971C6.60417 24.8171 5.67643 23.4499 5.00098 21.8955C4.33366 20.333 4 18.6647 4 16.8906C4 15.1084 4.33366 13.4401 5.00098 11.8857C5.67643 10.3232 6.60417 8.95199 7.78418 7.77197C8.96419 6.59196 10.3314 5.66829 11.8857 5.00098C13.4482 4.33366 15.1165 4 16.8906 4C18.6729 4 20.3411 4.33366 21.8955 5.00098C23.458 5.66829 24.8293 6.59196 26.0093 7.77197C27.1893 8.95199 28.113 10.3232 28.7803 11.8857C29.4557 13.4401 29.7935 15.1084 29.7935 16.8906C29.7935 18.6647 29.4557 20.333 28.7803 21.8955C28.113 23.4499 27.1893 24.8171 26.0093 25.9971C24.8293 27.1771 23.458 28.1007 21.8955 28.7681C20.3411 29.4435 18.6729 29.7812 16.8906 29.7812Z" fill="black"/>
</svg>
