<svg width="33" height="33" viewBox="0 0 33 33" fill="none" xmlns="http://www.w3.org/2000/svg">
<path d="M9.70801 29.0752C9.33561 29.0752 9.04362 28.9567 8.83203 28.7197C8.62044 28.4827 8.51465 28.1442 8.51465 27.7041V6.90918C8.51465 5.80046 8.79395 4.9668 9.35254 4.4082C9.91113 3.84115 10.7363 3.55762 11.8281 3.55762H21.1719C22.2721 3.55762 23.0973 3.84115 23.6475 4.4082C24.2061 4.9668 24.4854 5.80046 24.4854 6.90918V27.7041C24.4854 28.1442 24.3796 28.4827 24.168 28.7197C23.9564 28.9567 23.6644 29.0752 23.292 29.0752C23.0127 29.0752 22.7546 28.9863 22.5176 28.8086C22.2891 28.6309 21.9294 28.305 21.4385 27.8311L16.6143 23.0195C16.5381 22.9518 16.4661 22.9518 16.3984 23.0195L11.5488 27.8311C11.0664 28.305 10.7067 28.6309 10.4697 28.8086C10.2327 28.9863 9.97884 29.0752 9.70801 29.0752Z" fill="black"/>
</svg>
