<svg width="33" height="33" viewBox="0 0 33 33" fill="none" xmlns="http://www.w3.org/2000/svg">
<path d="M16.5742 17.0234L13.0234 20.1641C12.7969 20.375 12.5508 20.4805 12.2852 20.4805C12.0273 20.4805 11.8047 20.3906 11.6172 20.2109C11.4297 20.0234 11.3359 19.7656 11.3359 19.4375V17.3164H5.00781C4.72656 17.3164 4.48828 17.2188 4.29297 17.0234C4.09766 16.8281 4 16.5938 4 16.3203C4 16.0312 4.09766 15.793 4.29297 15.6055C4.48828 15.4102 4.72656 15.3125 5.00781 15.3125H11.3359V13.168C11.3359 12.8477 11.4258 12.5977 11.6055 12.418C11.793 12.2305 12.0156 12.1328 12.2734 12.125C12.5391 12.1172 12.7891 12.2188 13.0234 12.4297L16.5742 15.582C16.8164 15.793 16.9375 16.0352 16.9375 16.3086C16.9453 16.5742 16.8242 16.8125 16.5742 17.0234ZM29.6406 8.28125V24.3359C29.6406 26.1094 29.2188 27.5508 28.375 28.6602C27.5391 29.7773 26.25 30.4141 24.5078 30.5703C25.3438 29.8594 25.9922 28.9648 26.4531 27.8867C26.9219 26.8164 27.1562 25.6328 27.1562 24.3359V8.28125C27.1562 6.98438 26.9219 5.80078 26.4531 4.73047C25.9922 3.65234 25.3438 2.75781 24.5078 2.04688C26.25 2.21094 27.5391 2.84766 28.375 3.95703C29.2188 5.06641 29.6406 6.50781 29.6406 8.28125ZM25.5508 8.28125V24.3359C25.5508 25.5547 25.3164 26.6328 24.8477 27.5703C24.3867 28.5156 23.7266 29.2578 22.8672 29.7969C22.0156 30.3359 21.0117 30.6055 19.8555 30.6055C18.6992 30.6055 17.6914 30.3359 16.832 29.7969C15.9805 29.2578 15.3203 28.5156 14.8516 27.5703C14.3906 26.6328 14.1602 25.5547 14.1602 24.3359V21.3242L17.6406 18.2188C18.0391 17.8594 18.3047 17.4492 18.4375 16.9883C18.5703 16.5273 18.5703 16.0664 18.4375 15.6055C18.3047 15.1367 18.0352 14.7305 17.6289 14.3867L14.1602 11.293V8.28125C14.1602 7.0625 14.3906 5.98047 14.8516 5.03516C15.3203 4.08984 15.9805 3.34766 16.832 2.80859C17.6914 2.26953 18.6992 2 19.8555 2C21.0117 2 22.0156 2.26953 22.8672 2.80859C23.7266 3.34766 24.3867 4.08984 24.8477 5.03516C25.3164 5.98047 25.5508 7.0625 25.5508 8.28125Z" fill="black"/>
</svg>
