<svg width="33" height="33" viewBox="0 0 33 33" fill="none" xmlns="http://www.w3.org/2000/svg">
<path d="M11.2266 26.7773C10.7656 26.7773 10.3984 26.6719 10.125 26.4609C9.85938 26.25 9.72656 25.9609 9.72656 25.5938C9.72656 25.0078 9.90234 24.3945 10.2539 23.7539C10.6055 23.1133 11.1094 22.5117 11.7656 21.9492C12.4297 21.3789 13.2305 20.918 14.168 20.5664C15.1055 20.2148 16.1602 20.0391 17.332 20.0391C18.5039 20.0391 19.5547 20.2148 20.4844 20.5664C21.4219 20.918 22.2227 21.3789 22.8867 21.9492C23.5508 22.5117 24.0586 23.1133 24.4102 23.7539C24.7617 24.3945 24.9375 25.0078 24.9375 25.5938C24.9375 25.9609 24.8008 26.25 24.5273 26.4609C24.2617 26.6719 23.8906 26.7773 23.4141 26.7773H11.2266ZM17.3438 18.4219C16.6875 18.4219 16.0859 18.2461 15.5391 17.8945C14.9922 17.5352 14.5547 17.0586 14.2266 16.4648C13.8984 15.8633 13.7344 15.1914 13.7344 14.4492C13.7344 13.7148 13.8984 13.0547 14.2266 12.4688C14.5547 11.8828 14.9922 11.418 15.5391 11.0742C16.0938 10.7227 16.6953 10.5469 17.3438 10.5469C17.9844 10.5469 18.5742 10.7188 19.1133 11.0625C19.6602 11.3984 20.1016 11.8594 20.4375 12.4453C20.7734 13.0312 20.9414 13.6914 20.9414 14.4258C20.9414 15.1758 20.7734 15.8516 20.4375 16.4531C20.1094 17.0547 19.6719 17.5352 19.125 17.8945C18.5781 18.2461 17.9844 18.4219 17.3438 18.4219ZM4.57031 22.2773C4.04688 22.2773 3.65234 22.1523 3.38672 21.9023C3.12891 21.6445 3 21.2578 3 20.7422V18.4688C3 17.9531 3.12891 17.5703 3.38672 17.3203C3.65234 17.0625 4.04688 16.9336 4.57031 16.9336H6.78516C7.30859 16.9336 7.69922 17.0625 7.95703 17.3203C8.22266 17.5703 8.35547 17.9531 8.35547 18.4688V20.7422C8.35547 21.25 8.22266 21.6328 7.95703 21.8906C7.69922 22.1484 7.30859 22.2773 6.78516 22.2773H4.57031ZM7.45312 14.4023C6.92969 14.4023 6.53516 14.2734 6.26953 14.0156C6.01172 13.7578 5.88281 13.375 5.88281 12.8672V7.53516C5.88281 7.01953 6.01172 6.63672 6.26953 6.38672C6.53516 6.12891 6.92969 6 7.45312 6H15.4102C15.9336 6 16.3242 6.12891 16.582 6.38672C16.8477 6.64453 16.9805 7.02734 16.9805 7.53516V9.14062C16.1055 9.21094 15.3164 9.48828 14.6133 9.97266C13.918 10.457 13.3594 11.0859 12.9375 11.8594C12.5234 12.625 12.3125 13.4727 12.3047 14.4023H7.45312ZM25.1719 20.2266C24.6562 20.2266 24.2656 20.1016 24 19.8516C23.7344 19.5938 23.6016 19.207 23.6016 18.6914V12.3047C23.6016 11.7969 23.7344 11.4141 24 11.1562C24.2656 10.8984 24.6562 10.7695 25.1719 10.7695H28.418C28.9414 10.7695 29.332 10.8984 29.5898 11.1562C29.8477 11.4141 29.9766 11.7969 29.9766 12.3047V18.6914C29.9766 19.207 29.8477 19.5938 29.5898 19.8516C29.332 20.1016 28.9414 20.2266 28.418 20.2266H25.1719Z" fill="black"/>
</svg>
