<svg width="33" height="33" viewBox="0 0 33 33" fill="none" xmlns="http://www.w3.org/2000/svg">
<path d="M12.8311 25C13.0426 25 13.2119 24.9365 13.3389 24.8096C13.4743 24.6826 13.5378 24.5176 13.5293 24.3145L13.1484 10.9717C13.14 10.777 13.068 10.6204 12.9326 10.502C12.8057 10.375 12.6449 10.3115 12.4502 10.3115C12.2217 10.3115 12.0439 10.375 11.917 10.502C11.79 10.6204 11.7308 10.7812 11.7393 10.9844L12.1201 24.3271C12.1201 24.5303 12.1836 24.6953 12.3105 24.8223C12.446 24.9408 12.6195 25 12.8311 25ZM16.5 25C16.7116 25 16.8851 24.9408 17.0205 24.8223C17.1559 24.6953 17.2236 24.526 17.2236 24.3145V10.9844C17.2236 10.7897 17.1559 10.6289 17.0205 10.502C16.8851 10.375 16.7116 10.3115 16.5 10.3115C16.2799 10.3115 16.1022 10.375 15.9668 10.502C15.8314 10.6289 15.7637 10.7897 15.7637 10.9844V24.3145C15.7637 24.526 15.8314 24.6953 15.9668 24.8223C16.1022 24.9408 16.2799 25 16.5 25ZM20.1562 25C20.3678 25 20.5371 24.9408 20.6641 24.8223C20.791 24.7038 20.8587 24.543 20.8672 24.3398L21.248 10.9971C21.2565 10.7939 21.1973 10.6289 21.0703 10.502C20.9434 10.375 20.7656 10.3115 20.5371 10.3115C20.3424 10.3115 20.1774 10.375 20.042 10.502C19.9066 10.6204 19.8389 10.7812 19.8389 10.9844L19.458 24.3271C19.4495 24.5303 19.5088 24.6953 19.6357 24.8223C19.7712 24.9408 19.9447 25 20.1562 25ZM11.2822 7.37891V4.71289C11.2822 3.86654 11.5404 3.20215 12.0566 2.71973C12.5729 2.2373 13.2796 1.99609 14.1768 1.99609H18.7852C19.6823 1.99609 20.389 2.2373 20.9053 2.71973C21.43 3.20215 21.6924 3.86654 21.6924 4.71289V7.37891H19.9531V4.81445C19.9531 4.45052 19.8389 4.16276 19.6104 3.95117C19.3818 3.73112 19.0729 3.62109 18.6836 3.62109H14.2783C13.8975 3.62109 13.5928 3.73112 13.3643 3.95117C13.1357 4.16276 13.0215 4.45052 13.0215 4.81445V7.37891H11.2822ZM5.74707 8.24219C5.52702 8.24219 5.33659 8.16178 5.17578 8.00098C5.01497 7.84017 4.93457 7.64551 4.93457 7.41699C4.93457 7.18848 5.01497 6.99381 5.17578 6.83301C5.33659 6.6722 5.52702 6.5918 5.74707 6.5918H27.2402C27.4603 6.5918 27.6507 6.6722 27.8115 6.83301C27.9723 6.99381 28.0527 7.18848 28.0527 7.41699C28.0527 7.64551 27.9723 7.84017 27.8115 8.00098C27.6592 8.16178 27.4688 8.24219 27.2402 8.24219H5.74707ZM11.0156 28.6182C10.1862 28.6182 9.50911 28.3685 8.98438 27.8691C8.4681 27.3698 8.1888 26.7054 8.14648 25.876L7.2832 8.00098H25.7041L24.8408 25.8633C24.7985 26.6927 24.515 27.3571 23.9902 27.8564C23.474 28.3643 22.8053 28.6182 21.9844 28.6182H11.0156Z" fill="black"/>
</svg>
