<svg width="33" height="33" viewBox="0 0 33 33" fill="none" xmlns="http://www.w3.org/2000/svg">
<path d="M9.10417 27.6596L11.3053 25.4584H28.8327C29.1335 25.4584 29.3887 25.5678 29.5983 25.7865C29.8171 26.0053 29.9264 26.265 29.9264 26.5658C29.9264 26.8666 29.8171 27.1218 29.5983 27.3315C29.3887 27.5502 29.1335 27.6596 28.8327 27.6596H9.10417ZM7.73698 26.4018L4.57878 27.6186C4.41471 27.6824 4.26432 27.6413 4.1276 27.4955C4 27.3588 3.9681 27.2084 4.0319 27.0443L5.33073 23.9955L20.2604 9.09317L22.653 11.4994L7.73698 26.4018ZM23.8561 10.3236L21.4362 7.91739L22.8171 6.5502C23.1634 6.21296 23.5143 6.03067 23.8698 6.00333C24.2344 5.97598 24.5716 6.11726 24.8815 6.42715L25.3464 6.892C25.6654 7.21101 25.8158 7.54825 25.7975 7.90372C25.7793 8.25918 25.5924 8.61465 25.237 8.97012L23.8561 10.3236Z" fill="black"/>
</svg>
