<svg width="33" height="33" viewBox="0 0 33 33" fill="none" xmlns="http://www.w3.org/2000/svg">
<defs>
    <linearGradient id="gradient-fill" x1="50%" y1="0%" x2="50%" y2="100%">
       <stop offset="0%" stop-color="#6EEAD2" /> 
      <stop offset="100%" stop-color="#25bbff" /> 
    </linearGradient>
  </defs>
<path d="M7.98633 29.0753C6.66602 29.0753 5.67155 28.7452 5.00293 28.085C4.33431 27.4333 4 26.4516 4 25.1397V10.5147C4 9.20288 4.33431 8.22111 5.00293 7.56941C5.67155 6.90926 6.66602 6.57918 7.98633 6.57918H22.3701L20.3262 8.62313H8.02441C7.38965 8.62313 6.89876 8.7924 6.55176 9.13094C6.21322 9.46948 6.04395 9.96883 6.04395 10.629V25.0382C6.04395 25.6983 6.21322 26.1977 6.55176 26.5362C6.89876 26.8663 7.38965 27.0313 8.02441 27.0313H22.8652C23.3053 27.0313 23.6777 26.8663 23.9824 26.5362C24.2956 26.1977 24.4521 25.6983 24.4521 25.0382V12.8507L26.4961 10.8067V25.1397C26.4961 26.4516 26.1787 27.4333 25.5439 28.085C24.9176 28.7452 24.0332 29.0753 22.8906 29.0753H7.98633ZM12.6074 20.8487C12.4889 20.8995 12.3789 20.8741 12.2773 20.7725C12.1842 20.6625 12.1631 20.5525 12.2139 20.4425L13.3564 18.0557L25.2012 6.21102L26.9404 7.92488L15.083 19.7696L12.6074 20.8487ZM27.8799 6.99813L26.1406 5.24617L27.0674 4.33211C27.279 4.12898 27.5202 4.01896 27.791 4.00203C28.0703 3.9851 28.3073 4.07397 28.502 4.26863L28.7939 4.57332C29.014 4.78491 29.1198 5.03035 29.1113 5.30965C29.1113 5.58048 29.0055 5.83016 28.7939 6.05867L27.8799 6.99813Z" fill="url(#gradient-fill)"/>
</svg>
