<svg width="523" height="85" viewBox="0 0 523 85" fill="none" xmlns="http://www.w3.org/2000/svg">
<g clip-path="url(#clip0_17_11004)">
<path d="M67.72 1.55C63.55 0.54 59.2 0 54.72 0C50.24 0 45.89 0.54 41.72 1.55C32.65 3.75 24.46 8.19 17.77 14.26V4.31H0V49.26H18.01C20.77 31.47 36.16 17.86 54.72 17.86C73.28 17.86 88.66 31.47 91.43 49.26V84.46H109.43V55.22C109.43 40.56 103.89 26.32 93.49 15.98C86.49 9.02 77.63 3.94 67.72 1.54V1.55Z" fill="url(#paint0_linear_17_11004)"/>
<path d="M104.45 66.7C97.43 51.88 83.99 40.7 67.72 36.76C66.36 36.43 64.99 36.15 63.6 35.93V54.14C71.53 56.09 78.46 60.58 83.47 66.7H25.97C30.98 60.58 37.9 56.09 45.83 54.15V35.94C44.44 36.15 43.07 36.43 41.72 36.76C25.45 40.7 12 51.88 4.98 66.7C2.37 72.18 0.65 78.17 0 84.47H109.43C108.77 78.17 107.05 72.18 104.45 66.7Z" fill="url(#paint1_linear_17_11004)"/>
<path d="M171.78 77.84C168.52 72.05 164.99 66.33 161.19 60.68C157.39 55.03 153.35 49.7 149.07 44.69V77.84H137.82V27.23H147.09C148.7 28.84 150.47 30.81 152.42 33.15C154.37 35.49 156.35 37.98 158.37 40.64C160.39 43.29 162.4 46.04 164.39 48.89C166.39 51.74 168.26 54.48 170.01 57.11V27.24H181.33V77.85H171.76L171.78 77.84Z" fill="#4E97FF"/>
<path d="M227.5 58.56C227.5 61.58 227.06 64.34 226.19 66.85C225.31 69.36 224.05 71.5 222.39 73.28C220.73 75.06 218.75 76.43 216.44 77.41C214.13 78.38 211.53 78.87 208.66 78.87C205.79 78.87 203.27 78.38 200.96 77.41C198.65 76.44 196.66 75.06 195.01 73.28C193.35 71.5 192.06 69.36 191.14 66.85C190.21 64.34 189.75 61.58 189.75 58.56C189.75 55.54 190.22 52.79 191.17 50.31C192.12 47.83 193.43 45.71 195.11 43.96C196.79 42.21 198.79 40.85 201.1 39.87C203.41 38.9 205.93 38.41 208.66 38.41C211.39 38.41 213.98 38.9 216.29 39.87C218.6 40.84 220.59 42.21 222.24 43.96C223.89 45.71 225.19 47.83 226.11 50.31C227.03 52.79 227.5 55.54 227.5 58.56ZM216.4 58.56C216.4 55.2 215.73 52.56 214.39 50.64C213.05 48.72 211.14 47.76 208.66 47.76C206.18 47.76 204.25 48.72 202.89 50.64C201.53 52.56 200.85 55.2 200.85 58.56C200.85 61.92 201.53 64.58 202.89 66.56C204.25 68.53 206.18 69.52 208.66 69.52C211.14 69.52 213.05 68.53 214.39 66.56C215.73 64.59 216.4 61.92 216.4 58.56Z" fill="#4E97FF"/>
<path d="M234.81 29.86L245.69 28.11V39.43H258.76V48.49H245.69V62C245.69 64.29 246.09 66.11 246.9 67.48C247.7 68.84 249.32 69.52 251.76 69.52C252.93 69.52 254.13 69.41 255.37 69.19C256.61 68.97 257.74 68.67 258.77 68.28L260.3 76.75C258.99 77.29 257.52 77.75 255.92 78.14C254.32 78.53 252.34 78.72 250 78.72C247.03 78.72 244.57 78.32 242.62 77.51C240.67 76.71 239.11 75.59 237.95 74.15C236.78 72.71 235.97 70.97 235.5 68.93C235.04 66.89 234.81 64.62 234.81 62.14V29.86Z" fill="#4E97FF"/>
<path d="M263.58 58.92C263.58 55.51 264.1 52.53 265.15 49.97C266.2 47.41 267.57 45.28 269.28 43.58C270.99 41.88 272.94 40.59 275.16 39.71C277.38 38.83 279.65 38.4 281.99 38.4C287.44 38.4 291.75 40.07 294.92 43.4C298.08 46.73 299.67 51.64 299.67 58.11C299.67 58.74 299.64 59.44 299.6 60.19C299.55 60.95 299.5 61.61 299.45 62.2H274.77C275.01 64.44 276.06 66.22 277.91 67.53C279.76 68.84 282.24 69.5 285.36 69.5C287.36 69.5 289.31 69.32 291.24 68.95C293.16 68.58 294.73 68.14 295.95 67.6L297.41 76.44C296.83 76.73 296.05 77.02 295.07 77.32C294.09 77.62 293.01 77.87 291.82 78.09C290.63 78.31 289.35 78.49 287.99 78.64C286.63 78.79 285.26 78.86 283.9 78.86C280.44 78.86 277.44 78.35 274.88 77.33C272.32 76.31 270.21 74.91 268.53 73.13C266.85 71.35 265.61 69.25 264.81 66.81C264.01 64.38 263.6 61.75 263.6 58.92H263.58ZM289.14 54.76C289.09 53.84 288.93 52.93 288.67 52.06C288.4 51.18 287.99 50.41 287.43 49.72C286.87 49.04 286.16 48.48 285.31 48.04C284.46 47.6 283.4 47.38 282.13 47.38C280.86 47.38 279.87 47.59 278.99 48C278.11 48.41 277.38 48.96 276.8 49.64C276.22 50.32 275.76 51.11 275.45 52.01C275.13 52.91 274.9 53.82 274.76 54.75H289.15L289.14 54.76Z" fill="#4E97FF"/>
<path d="M332.74 35.99C327.43 35.99 323.6 37.46 321.24 40.41C318.88 43.36 317.7 47.38 317.7 52.5C317.7 54.98 317.99 57.24 318.58 59.26C319.16 61.28 320.04 63.02 321.21 64.48C322.38 65.94 323.84 67.07 325.59 67.88C327.34 68.68 329.39 69.09 331.72 69.09C332.99 69.09 334.07 69.07 334.97 69.02C335.87 68.97 336.66 68.87 337.34 68.73V51.13H348.73V76.18C347.37 76.72 345.18 77.29 342.16 77.9C339.14 78.51 335.42 78.81 330.99 78.81C327.19 78.81 323.75 78.23 320.66 77.06C317.57 75.89 314.93 74.19 312.74 71.95C310.55 69.71 308.86 66.96 307.66 63.7C306.47 60.44 305.87 56.71 305.87 52.53C305.87 48.35 306.53 44.55 307.84 41.28C309.15 38.02 310.96 35.26 313.24 32.99C315.53 30.73 318.22 29.01 321.31 27.84C324.4 26.67 327.7 26.09 331.21 26.09C333.59 26.09 335.75 26.25 337.67 26.56C339.59 26.88 341.25 27.24 342.64 27.66C344.03 28.07 345.17 28.5 346.07 28.94C346.97 29.38 347.61 29.72 348.01 29.96L344.72 39.09C343.16 38.26 341.37 37.55 339.35 36.94C337.33 36.33 335.13 36.03 332.74 36.03V35.99Z" fill="#4E97FF"/>
<path d="M356.03 58.92C356.03 55.51 356.55 52.53 357.6 49.97C358.65 47.41 360.02 45.28 361.73 43.58C363.43 41.88 365.39 40.59 367.61 39.71C369.82 38.83 372.1 38.4 374.44 38.4C379.89 38.4 384.2 40.07 387.37 43.4C390.53 46.73 392.12 51.64 392.12 58.11C392.12 58.74 392.09 59.44 392.05 60.19C392 60.95 391.95 61.61 391.9 62.2H367.22C367.46 64.44 368.51 66.22 370.36 67.53C372.21 68.84 374.69 69.5 377.81 69.5C379.81 69.5 381.77 69.32 383.69 68.95C385.61 68.58 387.18 68.14 388.4 67.6L389.86 76.44C389.28 76.73 388.5 77.02 387.52 77.32C386.55 77.61 385.46 77.87 384.27 78.09C383.08 78.31 381.8 78.49 380.44 78.64C379.08 78.79 377.71 78.86 376.35 78.86C372.89 78.86 369.89 78.35 367.33 77.33C364.77 76.31 362.66 74.91 360.98 73.13C359.3 71.35 358.06 69.25 357.26 66.81C356.46 64.38 356.05 61.75 356.05 58.92H356.03ZM381.59 54.76C381.54 53.84 381.38 52.93 381.12 52.06C380.85 51.18 380.44 50.41 379.88 49.72C379.32 49.04 378.61 48.48 377.76 48.04C376.91 47.6 375.85 47.38 374.58 47.38C373.31 47.38 372.32 47.59 371.44 48C370.56 48.41 369.83 48.96 369.25 49.64C368.67 50.32 368.22 51.11 367.9 52.01C367.58 52.91 367.35 53.82 367.21 54.75H381.6L381.59 54.76Z" fill="#4E97FF"/>
<path d="M399.78 40.74C401.63 40.2 404.02 39.71 406.94 39.24C409.86 38.78 412.93 38.55 416.14 38.55C419.35 38.55 422.12 38.98 424.28 39.83C426.45 40.68 428.16 41.89 429.43 43.44C430.7 45 431.6 46.85 432.13 48.99C432.67 51.13 432.93 53.52 432.93 56.15V77.84H422.05V57.46C422.05 53.95 421.59 51.47 420.66 50.01C419.73 48.55 418.01 47.82 415.48 47.82C414.7 47.82 413.87 47.86 413 47.93C412.12 48 411.34 48.09 410.66 48.19V77.84H399.78V40.74Z" fill="#4E97FF"/>
<path d="M493.54 77.84C492.98 76.08 492.37 74.28 491.72 72.42C491.07 70.57 490.43 68.72 489.78 66.88H470.01C469.37 68.73 468.73 70.58 468.09 72.43C467.45 74.29 466.85 76.09 466.3 77.83H454.47C456.37 72.38 458.18 67.34 459.89 62.71C461.6 58.09 463.27 53.73 464.91 49.64C466.55 45.55 468.16 41.67 469.74 37.99C471.33 34.31 472.98 30.72 474.69 27.22H485.49C487.15 30.73 488.79 34.32 490.41 37.99C492.02 41.67 493.65 45.55 495.29 49.64C496.93 53.73 498.6 58.09 500.32 62.71C502.03 67.34 503.84 72.37 505.75 77.83H493.55L493.54 77.84ZM479.85 38.7C479.6 39.43 479.22 40.44 478.73 41.7C478.24 42.97 477.68 44.43 477.06 46.08C476.43 47.74 475.73 49.56 474.96 51.56C474.19 53.55 473.4 55.64 472.6 57.83H487.07C486.29 55.64 485.55 53.54 484.82 51.54C484.09 49.54 483.4 47.71 482.75 46.05C482.1 44.39 481.52 42.93 481.03 41.67C480.54 40.41 480.14 39.42 479.84 38.7H479.85Z" fill="#4E97FF"/>
<path d="M511.51 27.23H522.9V77.84H511.51V27.23Z" fill="#4E97FF"/>
</g>
<defs>
<linearGradient id="paint0_linear_17_11004" x1="54.715" y1="0" x2="54.715" y2="84.46" gradientUnits="userSpaceOnUse">
<stop stop-color="#6EEAD2"/>
<stop offset="1" stop-color="#25BBFF"/>
</linearGradient>
<linearGradient id="paint1_linear_17_11004" x1="54.715" y1="35.93" x2="54.715" y2="84.47" gradientUnits="userSpaceOnUse">
<stop stop-color="#6EEAD2"/>
<stop offset="1" stop-color="#25BBFF"/>
</linearGradient>
<clipPath id="clip0_17_11004">
<rect width="522.9" height="84.47" fill="white"/>
</clipPath>
</defs>
</svg>
