<svg width="109" height="85" viewBox="0 0 109 85" fill="none" xmlns="http://www.w3.org/2000/svg">
<g clip-path="url(#clip0_17_11032)">
<path d="M67.72 1.96C63.55 0.950004 59.2 0.410004 54.72 0.410004C50.24 0.410004 45.89 0.950004 41.72 1.96C32.65 4.16 24.46 8.6 17.77 14.67V4.72H0V49.67H18.01C20.77 31.88 36.16 18.27 54.72 18.27C73.28 18.27 88.66 31.88 91.43 49.67V84.87H109.43V55.63C109.43 40.97 103.89 26.73 93.49 16.39C86.49 9.43 77.63 4.35 67.72 1.95V1.96Z" fill="white"/>
<path d="M104.45 67.11C97.43 52.29 83.99 41.11 67.72 37.17C66.36 36.84 64.99 36.56 63.6 36.34V54.55C71.53 56.5 78.46 60.99 83.47 67.11H25.97C30.98 60.99 37.9 56.5 45.83 54.56V36.35C44.44 36.56 43.07 36.84 41.72 37.17C25.45 41.11 12 52.29 4.98 67.11C2.37 72.59 0.65 78.58 0 84.88H109.43C108.77 78.58 107.05 72.59 104.45 67.11Z" fill="white"/>
</g>
<defs>
<clipPath id="clip0_17_11032">
<rect width="109" height="85" fill="white"/>
</clipPath>
</defs>
</svg>
