<svg width="523" height="85" viewBox="0 0 523 85" fill="none" xmlns="http://www.w3.org/2000/svg">
<g clip-path="url(#clip0_17_11006)">
<path d="M67.72 2.02C63.55 1.01 59.2 0.470001 54.72 0.470001C50.24 0.470001 45.89 1.01 41.72 2.02C32.65 4.22 24.46 8.66 17.77 14.73V4.78H0V49.73H18.01C20.77 31.94 36.16 18.33 54.72 18.33C73.28 18.33 88.66 31.94 91.43 49.73V84.93H109.43V55.69C109.43 41.03 103.89 26.79 93.49 16.45C86.49 9.49 77.63 4.41 67.72 2.01V2.02Z" fill="white"/>
<path d="M104.45 67.17C97.43 52.35 83.99 41.17 67.72 37.23C66.36 36.9 64.99 36.62 63.6 36.4V54.61C71.53 56.56 78.46 61.05 83.47 67.17H25.97C30.98 61.05 37.9 56.56 45.83 54.62V36.41C44.44 36.62 43.07 36.9 41.72 37.23C25.45 41.17 12 52.35 4.98 67.17C2.37 72.65 0.65 78.64 0 84.94H109.43C108.77 78.64 107.05 72.65 104.45 67.17Z" fill="white"/>
<path d="M171.78 78.31C168.52 72.52 164.99 66.8 161.19 61.15C157.39 55.5 153.35 50.17 149.07 45.16V78.31H137.82V27.7H147.09C148.7 29.31 150.47 31.28 152.42 33.62C154.37 35.96 156.35 38.45 158.37 41.11C160.39 43.76 162.4 46.51 164.39 49.36C166.39 52.21 168.26 54.95 170.01 57.58V27.71H181.33V78.32H171.76L171.78 78.31Z" fill="white"/>
<path d="M227.5 59.03C227.5 62.05 227.06 64.81 226.19 67.32C225.31 69.83 224.05 71.97 222.39 73.75C220.73 75.53 218.75 76.9 216.44 77.88C214.13 78.85 211.53 79.34 208.66 79.34C205.79 79.34 203.27 78.85 200.96 77.88C198.65 76.91 196.66 75.53 195.01 73.75C193.35 71.97 192.06 69.83 191.14 67.32C190.21 64.81 189.75 62.05 189.75 59.03C189.75 56.01 190.22 53.26 191.17 50.78C192.12 48.3 193.43 46.18 195.11 44.43C196.79 42.68 198.79 41.32 201.1 40.34C203.41 39.37 205.93 38.88 208.66 38.88C211.39 38.88 213.98 39.37 216.29 40.34C218.6 41.31 220.59 42.68 222.24 44.43C223.89 46.18 225.19 48.3 226.11 50.78C227.03 53.26 227.5 56.01 227.5 59.03ZM216.4 59.03C216.4 55.67 215.73 53.03 214.39 51.11C213.05 49.19 211.14 48.23 208.66 48.23C206.18 48.23 204.25 49.19 202.89 51.11C201.53 53.03 200.85 55.67 200.85 59.03C200.85 62.39 201.53 65.05 202.89 67.03C204.25 69 206.18 69.99 208.66 69.99C211.14 69.99 213.05 69 214.39 67.03C215.73 65.06 216.4 62.39 216.4 59.03Z" fill="white"/>
<path d="M234.81 30.33L245.69 28.58V39.9H258.76V48.96H245.69V62.47C245.69 64.76 246.09 66.58 246.9 67.95C247.7 69.31 249.32 69.99 251.76 69.99C252.93 69.99 254.13 69.88 255.37 69.66C256.61 69.44 257.74 69.14 258.77 68.75L260.3 77.22C258.99 77.76 257.52 78.22 255.92 78.61C254.32 79 252.34 79.19 250 79.19C247.03 79.19 244.57 78.79 242.62 77.98C240.67 77.18 239.11 76.06 237.95 74.62C236.78 73.18 235.97 71.44 235.5 69.4C235.04 67.36 234.81 65.09 234.81 62.61V30.33Z" fill="white"/>
<path d="M263.58 59.39C263.58 55.98 264.1 53 265.15 50.44C266.2 47.88 267.57 45.75 269.28 44.05C270.99 42.35 272.94 41.06 275.16 40.18C277.38 39.3 279.65 38.87 281.99 38.87C287.44 38.87 291.75 40.54 294.92 43.87C298.08 47.2 299.67 52.11 299.67 58.58C299.67 59.21 299.64 59.91 299.6 60.66C299.55 61.42 299.5 62.08 299.45 62.67H274.77C275.01 64.91 276.06 66.69 277.91 68C279.76 69.31 282.24 69.97 285.36 69.97C287.36 69.97 289.31 69.79 291.24 69.42C293.16 69.05 294.73 68.61 295.95 68.07L297.41 76.91C296.83 77.2 296.05 77.49 295.07 77.79C294.09 78.09 293.01 78.34 291.82 78.56C290.63 78.78 289.35 78.96 287.99 79.11C286.63 79.26 285.26 79.33 283.9 79.33C280.44 79.33 277.44 78.82 274.88 77.8C272.32 76.78 270.21 75.38 268.53 73.6C266.85 71.82 265.61 69.72 264.81 67.28C264.01 64.85 263.6 62.22 263.6 59.39H263.58ZM289.14 55.23C289.09 54.31 288.93 53.4 288.67 52.53C288.4 51.65 287.99 50.88 287.43 50.19C286.87 49.51 286.16 48.95 285.31 48.51C284.46 48.07 283.4 47.85 282.13 47.85C280.86 47.85 279.87 48.06 278.99 48.47C278.11 48.88 277.38 49.43 276.8 50.11C276.22 50.79 275.76 51.58 275.45 52.48C275.13 53.38 274.9 54.29 274.76 55.22H289.15L289.14 55.23Z" fill="white"/>
<path d="M332.74 36.46C327.43 36.46 323.6 37.93 321.24 40.88C318.88 43.83 317.7 47.85 317.7 52.97C317.7 55.45 317.99 57.71 318.58 59.73C319.16 61.75 320.04 63.49 321.21 64.95C322.38 66.41 323.84 67.54 325.59 68.35C327.34 69.15 329.39 69.56 331.72 69.56C332.99 69.56 334.07 69.54 334.97 69.49C335.87 69.44 336.66 69.34 337.34 69.2V51.6H348.73V76.65C347.37 77.19 345.18 77.76 342.16 78.37C339.14 78.98 335.42 79.28 330.99 79.28C327.19 79.28 323.75 78.7 320.66 77.53C317.57 76.36 314.93 74.66 312.74 72.42C310.55 70.18 308.86 67.43 307.66 64.17C306.47 60.91 305.87 57.18 305.87 53C305.87 48.82 306.53 45.02 307.84 41.75C309.15 38.49 310.96 35.73 313.24 33.46C315.53 31.2 318.22 29.48 321.31 28.31C324.4 27.14 327.7 26.56 331.21 26.56C333.59 26.56 335.75 26.72 337.67 27.03C339.59 27.35 341.25 27.71 342.64 28.13C344.03 28.54 345.17 28.97 346.07 29.41C346.97 29.85 347.61 30.19 348.01 30.43L344.72 39.56C343.16 38.73 341.37 38.02 339.35 37.41C337.33 36.8 335.13 36.5 332.74 36.5V36.46Z" fill="white"/>
<path d="M356.03 59.39C356.03 55.98 356.55 53 357.6 50.44C358.65 47.88 360.02 45.75 361.73 44.05C363.43 42.35 365.39 41.06 367.61 40.18C369.82 39.3 372.1 38.87 374.44 38.87C379.89 38.87 384.2 40.54 387.37 43.87C390.53 47.2 392.12 52.11 392.12 58.58C392.12 59.21 392.09 59.91 392.05 60.66C392 61.42 391.95 62.08 391.9 62.67H367.22C367.46 64.91 368.51 66.69 370.36 68C372.21 69.31 374.69 69.97 377.81 69.97C379.81 69.97 381.77 69.79 383.69 69.42C385.61 69.05 387.18 68.61 388.4 68.07L389.86 76.91C389.28 77.2 388.5 77.49 387.52 77.79C386.55 78.08 385.46 78.34 384.27 78.56C383.08 78.78 381.8 78.96 380.44 79.11C379.08 79.26 377.71 79.33 376.35 79.33C372.89 79.33 369.89 78.82 367.33 77.8C364.77 76.78 362.66 75.38 360.98 73.6C359.3 71.82 358.06 69.72 357.26 67.28C356.46 64.85 356.05 62.22 356.05 59.39H356.03ZM381.59 55.23C381.54 54.31 381.38 53.4 381.12 52.53C380.85 51.65 380.44 50.88 379.88 50.19C379.32 49.51 378.61 48.95 377.76 48.51C376.91 48.07 375.85 47.85 374.58 47.85C373.31 47.85 372.32 48.06 371.44 48.47C370.56 48.88 369.83 49.43 369.25 50.11C368.67 50.79 368.22 51.58 367.9 52.48C367.58 53.38 367.35 54.29 367.21 55.22H381.6L381.59 55.23Z" fill="white"/>
<path d="M399.78 41.21C401.63 40.67 404.02 40.18 406.94 39.71C409.86 39.25 412.93 39.02 416.14 39.02C419.35 39.02 422.12 39.45 424.28 40.3C426.45 41.15 428.16 42.36 429.43 43.91C430.7 45.47 431.6 47.32 432.13 49.46C432.67 51.6 432.93 53.99 432.93 56.62V78.31H422.05V57.93C422.05 54.42 421.59 51.94 420.66 50.48C419.73 49.02 418.01 48.29 415.48 48.29C414.7 48.29 413.87 48.33 413 48.4C412.12 48.47 411.34 48.56 410.66 48.66V78.31H399.78V41.21Z" fill="white"/>
<path d="M493.54 78.31C492.98 76.55 492.37 74.75 491.72 72.89C491.07 71.04 490.43 69.19 489.78 67.35H470.01C469.37 69.2 468.73 71.05 468.09 72.9C467.45 74.76 466.85 76.56 466.3 78.3H454.47C456.37 72.85 458.18 67.81 459.89 63.18C461.6 58.56 463.27 54.2 464.91 50.11C466.55 46.02 468.16 42.14 469.74 38.46C471.33 34.78 472.98 31.19 474.69 27.69H485.49C487.15 31.2 488.79 34.79 490.41 38.46C492.02 42.14 493.65 46.02 495.29 50.11C496.93 54.2 498.6 58.56 500.32 63.18C502.03 67.81 503.84 72.84 505.75 78.3H493.55L493.54 78.31ZM479.85 39.17C479.6 39.9 479.22 40.91 478.73 42.17C478.24 43.44 477.68 44.9 477.06 46.55C476.43 48.21 475.73 50.03 474.96 52.03C474.19 54.02 473.4 56.11 472.6 58.3H487.07C486.29 56.11 485.55 54.01 484.82 52.01C484.09 50.01 483.4 48.18 482.75 46.52C482.1 44.86 481.52 43.4 481.03 42.14C480.54 40.88 480.14 39.89 479.84 39.17H479.85Z" fill="white"/>
<path d="M511.51 27.7H522.9V78.31H511.51V27.7Z" fill="white"/>
</g>
<defs>
<clipPath id="clip0_17_11006">
<rect width="522.9" height="84.47" fill="white" transform="translate(0 0.470001)"/>
</clipPath>
</defs>
</svg>
