<svg width="31" height="29" viewBox="0 0 31 29" fill="none" xmlns="http://www.w3.org/2000/svg">
<defs>
    <linearGradient id="gradient-fill" x1="50%" y1="0%" x2="50%" y2="100%">
       <stop offset="0%" stop-color="#6EEAD2" /> 
      <stop offset="100%" stop-color="#25bbff" /> 
    </linearGradient>
  </defs>
<path d="M2.98438 21.6523V12.5H28.0039V21.6523C28.0039 22.7617 27.7344 23.5977 27.1953 24.1602C26.6562 24.7227 25.8945 25.0039 24.9102 25.0039H6.38281C5.25 25.0039 4.39844 24.7227 3.82812 24.1602C3.26562 23.6055 2.98438 22.7695 2.98438 21.6523ZM2.98438 11.1641V8.09375C2.98438 7.01562 3.24219 6.21094 3.75781 5.67969C4.27344 5.14844 5.00781 4.88281 5.96094 4.88281H9.11328C9.66797 4.88281 10.1094 4.94141 10.4375 5.05859C10.7734 5.16797 11.1211 5.38281 11.4805 5.70312L12.1484 6.25391C12.4375 6.49609 12.7109 6.66797 12.9688 6.76953C13.2266 6.86328 13.5547 6.91016 13.9531 6.91016H24.6172C25.7422 6.91016 26.5859 7.19141 27.1484 7.75391C27.7188 8.31641 28.0039 9.15234 28.0039 10.2617V11.1641H2.98438Z" fill="url(#gradient-fill)"/>
</svg>
