<svg width="33" height="33" viewBox="0 0 33 33" fill="none" xmlns="http://www.w3.org/2000/svg">
<defs>
    <linearGradient id="gradient-fill" x1="50%" y1="0%" x2="50%" y2="100%">
       <stop offset="0%" stop-color="#6EEAD2" /> 
      <stop offset="100%" stop-color="#25bbff" /> 
    </linearGradient>
  </defs>
<path d="M7.60547 22.2593H25.4058L25.0913 23.5171C24.8892 24.3407 24.556 24.9546 24.0918 25.3589C23.6351 25.7632 22.9762 25.9653 22.1152 25.9653H10.8848C10.0312 25.9653 9.3724 25.7594 8.9082 25.3477C8.44401 24.9434 8.11084 24.3332 7.90869 23.5171L7.60547 22.2593ZM7.26855 20.8779L5.2583 12.7358L6.24658 12.4326L10.8735 15.7456C11.0532 15.8729 11.2067 15.9215 11.334 15.8916C11.4688 15.8617 11.5885 15.7756 11.6934 15.6333L16.208 8.91748L16.8032 8.93994L21.2729 15.5771C21.5125 15.9215 21.812 15.9702 22.1714 15.7231L26.8433 12.3765L27.708 12.8818L25.7539 20.8779H7.26855ZM5.55029 14.7573C5.10107 14.7573 4.68929 14.645 4.31494 14.4204C3.94059 14.1958 3.63737 13.8963 3.40527 13.522C3.18066 13.1401 3.06836 12.7209 3.06836 12.2642C3.06836 11.8075 3.18066 11.3919 3.40527 11.0176C3.62988 10.6432 3.92936 10.3438 4.30371 10.1191C4.68555 9.89453 5.10107 9.78223 5.55029 9.78223C6.01449 9.78223 6.43376 9.89453 6.80811 10.1191C7.18245 10.3438 7.48193 10.647 7.70654 11.0288C7.93115 11.4032 8.04346 11.8149 8.04346 12.2642C8.04346 12.7209 7.93115 13.1401 7.70654 13.522C7.48193 13.8963 7.18245 14.1958 6.80811 14.4204C6.43376 14.645 6.01449 14.7573 5.55029 14.7573ZM16.5112 10.4897C16.0545 10.4897 15.6353 10.3774 15.2534 10.1528C14.8791 9.92822 14.5758 9.62874 14.3438 9.25439C14.1191 8.87256 14.0068 8.44954 14.0068 7.98535C14.0068 7.53613 14.1191 7.12435 14.3438 6.75C14.5684 6.37565 14.8678 6.07617 15.2422 5.85156C15.624 5.62695 16.047 5.51465 16.5112 5.51465C16.9604 5.51465 17.3722 5.62695 17.7466 5.85156C18.1209 6.07617 18.4204 6.37939 18.645 6.76123C18.8696 7.13558 18.9819 7.54362 18.9819 7.98535C18.9819 8.44954 18.8696 8.87256 18.645 9.25439C18.4204 9.62874 18.1209 9.92822 17.7466 10.1528C17.3722 10.3774 16.9604 10.4897 16.5112 10.4897ZM27.4385 14.7573C26.9818 14.7573 26.5662 14.645 26.1919 14.4204C25.8175 14.1958 25.5181 13.8963 25.2935 13.522C25.0688 13.1401 24.9565 12.7209 24.9565 12.2642C24.9565 11.8149 25.0688 11.4032 25.2935 11.0288C25.5181 10.647 25.8175 10.3438 26.1919 10.1191C26.5662 9.89453 26.9818 9.78223 27.4385 9.78223C27.8952 9.78223 28.3107 9.89453 28.6851 10.1191C29.0669 10.3438 29.3701 10.6432 29.5947 11.0176C29.8193 11.3919 29.9316 11.8075 29.9316 12.2642C29.9316 12.7209 29.8156 13.1401 29.5835 13.522C29.3589 13.8963 29.0557 14.1958 28.6738 14.4204C28.2995 14.645 27.8877 14.7573 27.4385 14.7573Z" fill="url(#gradient-fill)"/>
</svg>
