<svg width="33" height="33" viewBox="0 0 33 33" fill="none" xmlns="http://www.w3.org/2000/svg">
<defs>
    <linearGradient id="gradient-fill" x1="50%" y1="0%" x2="50%" y2="100%">
       <stop offset="0%" stop-color="#6EEAD2" /> 
      <stop offset="100%" stop-color="#25bbff" /> 
    </linearGradient>
  </defs>
<path d="M16.5 29.7598C14.6953 29.7598 13 29.418 11.4141 28.7344C9.83724 28.0599 8.44727 27.1211 7.24414 25.918C6.04102 24.7148 5.09766 23.3249 4.41406 21.748C3.73958 20.1621 3.40234 18.4668 3.40234 16.6621C3.40234 14.8574 3.73958 13.1667 4.41406 11.5898C5.09766 10.0039 6.04102 8.60938 7.24414 7.40625C8.44727 6.20312 9.83724 5.26432 11.4141 4.58984C13 3.90625 14.6953 3.56445 16.5 3.56445C18.3047 3.56445 19.9954 3.90625 21.5723 4.58984C23.1582 5.26432 24.5527 6.20312 25.7559 7.40625C26.959 8.60938 27.8978 10.0039 28.5723 11.5898C29.2559 13.1667 29.5977 14.8574 29.5977 16.6621C29.5977 18.4668 29.2559 20.1621 28.5723 21.748C27.8978 23.3249 26.959 24.7148 25.7559 25.918C24.5527 27.1211 23.1582 28.0599 21.5723 28.7344C19.9954 29.418 18.3047 29.7598 16.5 29.7598ZM16.5 27.9961C17.5117 27.9961 18.5052 27.8594 19.4805 27.5859C20.4648 27.3125 21.3854 26.9206 22.2422 26.4102C23.1081 25.9089 23.8691 25.3073 24.5254 24.6055C24.0514 23.8581 23.4089 23.2201 22.5977 22.6914C21.7865 22.1536 20.8568 21.748 19.8086 21.4746C18.7695 21.1921 17.6667 21.0508 16.5 21.0508C15.3151 21.0508 14.1986 21.1921 13.1504 21.4746C12.1113 21.7572 11.1862 22.1673 10.375 22.7051C9.5638 23.2337 8.92122 23.8672 8.44727 24.6055C9.11263 25.3073 9.8737 25.9089 10.7305 26.4102C11.5872 26.9206 12.5033 27.3125 13.4785 27.5859C14.4629 27.8594 15.4701 27.9961 16.5 27.9961ZM16.5 18.8496C17.3294 18.8587 18.0768 18.6491 18.7422 18.2207C19.4076 17.7923 19.9362 17.209 20.3281 16.4707C20.7201 15.7324 20.916 14.903 20.916 13.9824C20.916 13.1074 20.7155 12.3099 20.3145 11.5898C19.9225 10.8607 19.3939 10.2819 18.7285 9.85352C18.0632 9.41602 17.3203 9.19727 16.5 9.19727C15.6706 9.19727 14.9186 9.41602 14.2441 9.85352C13.5788 10.2819 13.0501 10.8607 12.6582 11.5898C12.2663 12.3099 12.0703 13.1074 12.0703 13.9824C12.0703 14.903 12.2663 15.7279 12.6582 16.457C13.0501 17.1862 13.5788 17.765 14.2441 18.1934C14.9186 18.6217 15.6706 18.8405 16.5 18.8496Z" fill="url(#gradient-fill)"/>
</svg>
