<svg width="33" height="33" viewBox="0 0 33 33" fill="none" xmlns="http://www.w3.org/2000/svg">
<defs>
    <linearGradient id="gradient-fill" x1="50%" y1="0%" x2="50%" y2="100%">
       <stop offset="0%" stop-color="#6EEAD2" /> 
      <stop offset="100%" stop-color="#25bbff" /> 
    </linearGradient>
  </defs>
<path d="M10.9609 28.3164C10.625 28.3164 10.3672 28.207 10.1875 27.9883C10.0078 27.7695 9.91797 27.4766 9.91797 27.1094V23.6992H9.36719C8.20312 23.6992 7.22266 23.4922 6.42578 23.0781C5.62891 22.6641 5.02344 22.0586 4.60938 21.2617C4.20312 20.4648 4 19.4922 4 18.3438V9.36719C4 8.21875 4.20312 7.24609 4.60938 6.44922C5.02344 5.65234 5.62891 5.04688 6.42578 4.63281C7.22266 4.21094 8.20312 4 9.36719 4H24.4609C25.625 4 26.6055 4.21094 27.4023 4.63281C28.1992 5.04688 28.8008 5.65234 29.207 6.44922C29.6211 7.24609 29.8281 8.21875 29.8281 9.36719V18.3438C29.8281 19.4922 29.6211 20.4648 29.207 21.2617C28.8008 22.0586 28.1992 22.6641 27.4023 23.0781C26.6055 23.4922 25.625 23.6992 24.4609 23.6992H16.5391L12.3086 27.5664C12.0273 27.8242 11.7891 28.0117 11.5938 28.1289C11.4062 28.2539 11.1953 28.3164 10.9609 28.3164ZM16.6797 16.3516C16.9844 16.3516 17.2227 16.2695 17.3945 16.1055C17.5664 15.9336 17.6523 15.7266 17.6523 15.4844C17.6523 15.4609 17.6523 15.4375 17.6523 15.4141C17.6523 15.3828 17.6523 15.3594 17.6523 15.3438C17.6523 15 17.7539 14.707 17.957 14.4648C18.1602 14.2148 18.4727 13.9531 18.8945 13.6797C19.4805 13.2969 19.9609 12.8945 20.3359 12.4727C20.7188 12.0508 20.9102 11.4766 20.9102 10.75C20.9102 10.0781 20.7305 9.51562 20.3711 9.0625C20.0117 8.60156 19.5391 8.25391 18.9531 8.01953C18.375 7.78516 17.7422 7.66797 17.0547 7.66797C16.0078 7.66797 15.1562 7.875 14.5 8.28906C13.8516 8.70312 13.4414 9.19141 13.2695 9.75391C13.2383 9.84766 13.2109 9.94531 13.1875 10.0469C13.1719 10.1484 13.1641 10.25 13.1641 10.3516C13.1641 10.6172 13.2539 10.8242 13.4336 10.9727C13.6133 11.1133 13.8047 11.1836 14.0078 11.1836C14.2109 11.1836 14.3828 11.1406 14.5234 11.0547C14.6641 10.9609 14.7891 10.8438 14.8984 10.7031L15.1094 10.4102C15.2578 10.1758 15.4258 9.97656 15.6133 9.8125C15.8008 9.64844 16.0078 9.52344 16.2344 9.4375C16.4609 9.35156 16.707 9.30859 16.9727 9.30859C17.5195 9.30859 17.957 9.44922 18.2852 9.73047C18.6211 10.0117 18.7891 10.3828 18.7891 10.8438C18.7891 11.2578 18.6602 11.5977 18.4023 11.8633C18.1445 12.1211 17.75 12.4336 17.2188 12.8008C16.7891 13.1055 16.4297 13.4375 16.1406 13.7969C15.8516 14.1562 15.707 14.6367 15.707 15.2383C15.707 15.2617 15.707 15.2891 15.707 15.3203C15.707 15.3438 15.707 15.3672 15.707 15.3906C15.707 16.0312 16.0312 16.3516 16.6797 16.3516ZM16.6445 19.9492C16.9961 19.9492 17.3008 19.8281 17.5586 19.5859C17.8242 19.3438 17.957 19.0469 17.957 18.6953C17.957 18.3438 17.8281 18.0469 17.5703 17.8047C17.3125 17.5547 17.0039 17.4297 16.6445 17.4297C16.293 17.4297 15.9883 17.5547 15.7305 17.8047C15.4727 18.0547 15.3438 18.3516 15.3438 18.6953C15.3438 19.0469 15.4727 19.3438 15.7305 19.5859C15.9961 19.8281 16.3008 19.9492 16.6445 19.9492Z" fill="url(#gradient-fill)"/>
</svg>
