<svg width="33" height="33" viewBox="0 0 33 33" fill="none" xmlns="http://www.w3.org/2000/svg">
<defs>
    <linearGradient id="gradient-fill" x1="50%" y1="0%" x2="50%" y2="100%">
       <stop offset="0%" stop-color="#6EEAD2" /> 
      <stop offset="100%" stop-color="#25bbff" /> 
    </linearGradient>
  </defs>
<path d="M7.15283 7.66162C7.6626 7.14307 8.25586 6.74316 8.93262 6.46191C9.61816 6.17188 10.2422 6.02686 10.8047 6.02686C11.0068 6.02686 11.165 6.08398 11.2793 6.19824C11.4023 6.3125 11.4639 6.46191 11.4639 6.64648C11.4639 6.97168 11.2881 7.17383 10.9365 7.25293C10.3652 7.3584 9.84668 7.49463 9.38086 7.66162C8.92383 7.82861 8.47559 8.11865 8.03613 8.53174C7.6582 8.93604 7.37256 9.37549 7.1792 9.8501C6.99463 10.3247 6.854 10.8345 6.75732 11.3794C6.6958 11.7397 6.48486 11.9199 6.12451 11.9199C5.93994 11.9199 5.79053 11.8584 5.67627 11.7354C5.56201 11.6123 5.50928 11.4497 5.51807 11.2476C5.53564 10.6499 5.69385 10.0215 5.99268 9.3623C6.2915 8.70312 6.67822 8.13623 7.15283 7.66162ZM19.73 5.89502C19.897 5.89502 20.042 5.95654 20.165 6.07959C20.2969 6.20264 20.3628 6.35205 20.3628 6.52783C20.3628 6.70361 20.2969 6.85742 20.165 6.98926C20.042 7.1123 19.897 7.17383 19.73 7.17383H13.27C13.0942 7.17383 12.9404 7.1123 12.8086 6.98926C12.6855 6.85742 12.624 6.70361 12.624 6.52783C12.624 6.35205 12.6855 6.20264 12.8086 6.07959C12.9404 5.95654 13.0942 5.89502 13.27 5.89502H19.73ZM25.834 7.66162C26.3086 8.13623 26.6953 8.70312 26.9941 9.3623C27.293 10.0215 27.4512 10.6499 27.4688 11.2476C27.4775 11.4497 27.4248 11.6123 27.3105 11.7354C27.2051 11.8584 27.0601 11.9199 26.8755 11.9199C26.5063 11.9199 26.291 11.7397 26.2295 11.3794C26.1416 10.8345 26.001 10.3247 25.8076 9.8501C25.623 9.37549 25.3374 8.93604 24.9507 8.53174C24.5112 8.11865 24.0542 7.82861 23.5796 7.66162C23.1138 7.48584 22.6084 7.34961 22.0635 7.25293C21.7031 7.17383 21.5229 6.97168 21.5229 6.64648C21.5229 6.46191 21.5845 6.3125 21.7075 6.19824C21.8306 6.08398 21.9888 6.02686 22.1821 6.02686C22.7446 6.02686 23.3643 6.17188 24.041 6.46191C24.7266 6.74316 25.3242 7.14307 25.834 7.66162ZM27.6006 20.252C27.6006 20.4277 27.5347 20.5815 27.4028 20.7134C27.2798 20.8364 27.1348 20.8979 26.9678 20.8979C26.792 20.8979 26.6382 20.8364 26.5063 20.7134C26.3833 20.5815 26.3218 20.4277 26.3218 20.252V13.7788C26.3218 13.603 26.3833 13.4536 26.5063 13.3306C26.6382 13.2075 26.792 13.146 26.9678 13.146C27.1348 13.146 27.2798 13.2075 27.4028 13.3306C27.5347 13.4536 27.6006 13.603 27.6006 13.7788V20.252ZM25.834 26.3428C25.3242 26.8613 24.7266 27.2612 24.041 27.5425C23.3643 27.8237 22.7446 27.9688 22.1821 27.9775C21.9888 27.9775 21.8306 27.9204 21.7075 27.8062C21.5845 27.6919 21.5229 27.5425 21.5229 27.3579C21.5229 27.0327 21.7031 26.8262 22.0635 26.7383C22.6348 26.6416 23.1489 26.5054 23.606 26.3296C24.0718 26.1626 24.52 25.8682 24.9507 25.4463C25.3374 25.0508 25.623 24.6201 25.8076 24.1543C26.001 23.6797 26.1416 23.1699 26.2295 22.625C26.291 22.2646 26.5063 22.0845 26.8755 22.0845C27.0601 22.0845 27.2051 22.146 27.3105 22.269C27.4248 22.3921 27.4775 22.5503 27.4688 22.7437C27.4512 23.3501 27.293 23.9829 26.9941 24.6421C26.6953 25.3013 26.3086 25.8682 25.834 26.3428ZM13.27 28.1094C13.0942 28.1094 12.9404 28.0435 12.8086 27.9116C12.6855 27.7886 12.624 27.6392 12.624 27.4634C12.624 27.2876 12.6855 27.1382 12.8086 27.0151C12.9404 26.8921 13.0942 26.8306 13.27 26.8306H19.73C19.897 26.8306 20.042 26.8921 20.165 27.0151C20.2969 27.1382 20.3628 27.2876 20.3628 27.4634C20.3628 27.6392 20.2969 27.7886 20.165 27.9116C20.042 28.0435 19.897 28.1094 19.73 28.1094H13.27ZM7.15283 26.3428C6.67822 25.8682 6.2915 25.3013 5.99268 24.6421C5.69385 23.9829 5.53564 23.3501 5.51807 22.7437C5.50928 22.5503 5.56201 22.3921 5.67627 22.269C5.79053 22.146 5.93994 22.0845 6.12451 22.0845C6.48486 22.0845 6.6958 22.2646 6.75732 22.625C6.854 23.1699 6.99463 23.6797 7.1792 24.1543C7.37256 24.6201 7.6582 25.0508 8.03613 25.4463C8.47559 25.8682 8.92822 26.167 9.39404 26.3428C9.86865 26.5186 10.3828 26.6504 10.9365 26.7383C11.2881 26.8262 11.4639 27.0327 11.4639 27.3579C11.4639 27.5425 11.4023 27.6919 11.2793 27.8062C11.165 27.9204 11.0068 27.9775 10.8047 27.9775C10.2422 27.9688 9.61816 27.8237 8.93262 27.5425C8.25586 27.2612 7.6626 26.8613 7.15283 26.3428ZM5.38623 13.7788C5.38623 13.603 5.44775 13.4536 5.5708 13.3306C5.70264 13.2075 5.85645 13.146 6.03223 13.146C6.19922 13.146 6.34424 13.2075 6.46729 13.3306C6.59912 13.4536 6.66504 13.603 6.66504 13.7788V20.252C6.66504 20.4277 6.59912 20.5815 6.46729 20.7134C6.34424 20.8364 6.19922 20.8979 6.03223 20.8979C5.85645 20.8979 5.70264 20.8364 5.5708 20.7134C5.44775 20.5815 5.38623 20.4277 5.38623 20.252V13.7788ZM12.9932 25.2485C12.2021 25.2485 11.4946 25.187 10.8706 25.064C10.2554 24.9321 9.72363 24.6465 9.27539 24.207C8.82715 23.7588 8.5415 23.2271 8.41846 22.6118C8.29541 21.9878 8.23389 21.2803 8.23389 20.4893V13.4624C8.23389 12.6978 8.29541 12.0078 8.41846 11.3926C8.5415 10.7773 8.82715 10.25 9.27539 9.81055C9.72363 9.3623 10.2554 9.07227 10.8706 8.94043C11.4858 8.80859 12.1802 8.74268 12.9536 8.74268H19.9805C20.7715 8.74268 21.479 8.80859 22.103 8.94043C22.7271 9.06348 23.2588 9.34912 23.6982 9.79736C24.1465 10.2368 24.4321 10.7686 24.5552 11.3926C24.6782 12.0078 24.7397 12.7153 24.7397 13.5151V20.4893C24.7397 21.2803 24.6782 21.9878 24.5552 22.6118C24.4321 23.2271 24.1465 23.7588 23.6982 24.207C23.2588 24.6465 22.7271 24.9321 22.103 25.064C21.479 25.187 20.7715 25.2485 19.9805 25.2485H12.9932Z" fill="url(#gradient-fill)"/>
</svg>
