<svg width="31" height="29" viewBox="0 0 31 29" fill="none" xmlns="http://www.w3.org/2000/svg">
<path d="M6.05884 24.9138C4.92603 24.9138 4.07446 24.6326 3.50415 24.0701C2.94165 23.5154 2.6604 22.6795 2.6604 21.5623V8.00369C2.6604 6.92557 2.91821 6.12088 3.43384 5.58963C3.94946 5.05838 4.68384 4.79276 5.63696 4.79276H8.78931C9.34399 4.79276 9.7854 4.85135 10.1135 4.96854C10.4495 5.07791 10.7971 5.29276 11.1565 5.61307L11.8245 6.16385C12.1135 6.40604 12.387 6.57791 12.6448 6.67947C12.9026 6.77322 13.2307 6.8201 13.6292 6.8201H24.2932C25.4182 6.8201 26.262 7.10135 26.8245 7.66385C27.3948 8.22635 27.6799 9.06229 27.6799 10.1717V21.5623C27.6799 22.6717 27.4104 23.5076 26.8713 24.0701C26.3323 24.6326 25.5706 24.9138 24.5862 24.9138H6.05884ZM6.08228 23.2967H24.2698C24.8401 23.2967 25.2815 23.1443 25.594 22.8396C25.9065 22.5349 26.0627 22.0857 26.0627 21.492V10.2537C26.0627 9.65994 25.9065 9.21072 25.594 8.90604C25.2815 8.59354 24.8401 8.43729 24.2698 8.43729H13.2073C12.6604 8.43729 12.2151 8.37869 11.8713 8.26151C11.5276 8.13651 11.176 7.92557 10.8167 7.62869L10.1721 7.07791C9.87524 6.8201 9.5979 6.64432 9.34009 6.55057C9.09009 6.44901 8.77368 6.39822 8.39087 6.39822H5.96509C5.41821 6.39822 5.00024 6.54276 4.71118 6.83182C4.42993 7.11307 4.28931 7.53494 4.28931 8.09744V21.4803C4.28931 22.0818 4.44165 22.5349 4.74634 22.8396C5.05884 23.1443 5.50415 23.2967 6.08228 23.2967ZM3.64478 12.5037V10.9803H26.7073V12.5037H3.64478Z" fill="black"/>
</svg>
