<svg width="33" height="33" viewBox="0 0 33 33" fill="none" xmlns="http://www.w3.org/2000/svg">
<path d="M15.8438 26.207H6.21094C4.07031 26.207 3 25.457 3 23.957C3 23.0977 3.25 22.2266 3.75 21.3438C4.25781 20.4609 4.97266 19.6523 5.89453 18.918C6.82422 18.1758 7.92578 17.5781 9.19922 17.125C10.4727 16.6719 11.8828 16.4453 13.4297 16.4453C14.3828 16.4453 15.2891 16.5391 16.1484 16.7266C17.0078 16.9141 17.8008 17.1758 18.5273 17.5117C18.1836 17.7852 17.8633 18.0898 17.5664 18.4258C17.2695 18.7617 17.0078 19.125 16.7812 19.5156C16.3047 19.3359 15.7852 19.1953 15.2227 19.0938C14.6602 18.9844 14.0625 18.9297 13.4297 18.9297C12.2188 18.9297 11.1406 19.0898 10.1953 19.4102C9.25781 19.7227 8.46484 20.125 7.81641 20.6172C7.16797 21.1016 6.67188 21.6016 6.32812 22.1172C5.99219 22.625 5.82422 23.0781 5.82422 23.4766C5.82422 23.5625 5.84375 23.625 5.88281 23.6641C5.92969 23.7109 6.01172 23.7344 6.12891 23.7344H15.457C15.457 24.1953 15.4805 24.6133 15.5273 24.9883C15.582 25.3633 15.6875 25.7695 15.8438 26.207ZM13.418 15.2266C12.4492 15.2266 11.5664 14.9727 10.7695 14.4648C9.98047 13.957 9.35156 13.2734 8.88281 12.4141C8.41406 11.5547 8.17969 10.6016 8.17969 9.55469C8.17969 8.53125 8.41406 7.60156 8.88281 6.76562C9.35938 5.92188 9.99219 5.25 10.7812 4.75C11.5781 4.25 12.457 4 13.418 4C14.3789 4 15.2539 4.25391 16.043 4.76172C16.8398 5.26172 17.4766 5.93359 17.9531 6.77734C18.4297 7.62109 18.6641 8.55078 18.6562 9.56641C18.6562 10.6133 18.4219 11.5664 17.9531 12.4258C17.4844 13.2773 16.8516 13.957 16.0547 14.4648C15.2656 14.9727 14.3867 15.2266 13.418 15.2266ZM13.418 12.7422C13.9023 12.7422 14.3477 12.6055 14.7539 12.332C15.168 12.0508 15.4961 11.6719 15.7383 11.1953C15.9883 10.7109 16.1133 10.168 16.1133 9.56641C16.1211 8.98828 16 8.46484 15.75 7.99609C15.5 7.52734 15.1719 7.15625 14.7656 6.88281C14.3594 6.60938 13.9102 6.47266 13.418 6.47266C12.9336 6.47266 12.4844 6.60938 12.0703 6.88281C11.6641 7.15625 11.3359 7.52734 11.0859 7.99609C10.8438 8.45703 10.7227 8.97656 10.7227 9.55469C10.7227 10.1484 10.8438 10.6875 11.0859 11.1719C11.3281 11.6562 11.6523 12.0391 12.0586 12.3203C12.4727 12.6016 12.9258 12.7422 13.418 12.7422ZM23.3906 29.9336C22.5469 29.9336 21.75 29.7734 21 29.4531C20.2578 29.1328 19.6016 28.6875 19.0312 28.1172C18.4688 27.5469 18.0234 26.8867 17.6953 26.1367C17.375 25.3945 17.2148 24.6016 17.2148 23.7578C17.2148 22.9141 17.375 22.1211 17.6953 21.3789C18.0234 20.6367 18.4688 19.9805 19.0312 19.4102C19.6016 18.8398 20.2578 18.3945 21 18.0742C21.75 17.7539 22.5469 17.5938 23.3906 17.5938C24.2344 17.5938 25.0273 17.7539 25.7695 18.0742C26.5195 18.3945 27.1758 18.8398 27.7383 19.4102C28.3086 19.9727 28.7539 20.6289 29.0742 21.3789C29.3945 22.1211 29.5547 22.9141 29.5547 23.7578C29.5547 24.6016 29.3945 25.3945 29.0742 26.1367C28.7539 26.8867 28.3086 27.543 27.7383 28.1055C27.168 28.6758 26.5078 29.1211 25.7578 29.4414C25.0156 29.7695 24.2266 29.9336 23.3906 29.9336ZM23.3789 27.7539C23.6602 27.7539 23.8867 27.668 24.0586 27.4961C24.2305 27.3242 24.3164 27.0977 24.3164 26.8164V24.707H26.4258C26.6992 24.707 26.9219 24.6211 27.0938 24.4492C27.2734 24.2773 27.3633 24.0508 27.3633 23.7695C27.3633 23.4805 27.2734 23.2539 27.0938 23.0898C26.9219 22.918 26.6992 22.832 26.4258 22.832H24.3164V20.7344C24.3164 20.4453 24.2305 20.2188 24.0586 20.0547C23.8867 19.8828 23.6602 19.7969 23.3789 19.7969C23.0977 19.7969 22.8711 19.8828 22.6992 20.0547C22.5273 20.2266 22.4414 20.4531 22.4414 20.7344V22.832H20.332C20.0508 22.832 19.8242 22.918 19.6523 23.0898C19.4805 23.2539 19.3945 23.4805 19.3945 23.7695C19.3945 24.0508 19.4805 24.2773 19.6523 24.4492C19.832 24.6211 20.0586 24.707 20.332 24.707H22.4414V26.8164C22.4414 27.0977 22.5273 27.3242 22.6992 27.4961C22.8711 27.668 23.0977 27.7539 23.3789 27.7539Z" fill="black"/>
</svg>
