<svg width="29" height="32" viewBox="0 0 29 32" fill="none" xmlns="http://www.w3.org/2000/svg">
<path d="M3 16.4102C3 15.9102 3.17578 15.4922 3.52734 15.1562L11.1445 7.53906C11.3242 7.35938 11.5156 7.22656 11.7188 7.14062C11.9297 7.04688 12.1367 7 12.3398 7C12.8398 7 13.2422 7.15625 13.5469 7.46875C13.8594 7.77344 14.0156 8.15234 14.0156 8.60547C14.0156 8.86328 13.9648 9.09375 13.8633 9.29688C13.7695 9.49219 13.6445 9.66797 13.4883 9.82422L10.8633 12.4609L6.98438 16.0234L6.25781 14.957L10.8164 14.7109H24.0586C24.5898 14.7109 25.0156 14.8672 25.3359 15.1797C25.6562 15.4922 25.8164 15.9023 25.8164 16.4102C25.8164 16.918 25.6562 17.3281 25.3359 17.6406C25.0156 17.9531 24.5898 18.1094 24.0586 18.1094H10.8164L6.25781 17.8633L6.98438 16.7969L10.8633 20.3594L13.4883 22.9844C13.6445 23.1406 13.7695 23.3203 13.8633 23.5234C13.9648 23.7188 14.0156 23.9453 14.0156 24.2031C14.0156 24.6562 13.8594 25.0352 13.5469 25.3398C13.2422 25.6523 12.8398 25.8086 12.3398 25.8086C11.9102 25.8086 11.5156 25.6328 11.1562 25.2812L3.52734 17.6641C3.17578 17.3203 3 16.9023 3 16.4102Z" fill="black"/>
</svg>
