<svg width="34" height="33" viewBox="0 0 34 33" fill="none" xmlns="http://www.w3.org/2000/svg">
<path d="M12.1255 25.4561C11.4744 25.4561 10.9658 25.2729 10.5996 24.9067C10.2415 24.5405 10.0625 24.0238 10.0625 23.3564V10.1118C10.0625 9.43636 10.2415 8.91553 10.5996 8.54932C10.9658 8.18311 11.4744 8 12.1255 8H18.3145C19.4456 8 20.4181 8.17904 21.2319 8.53711C22.0457 8.88704 22.6724 9.3916 23.1118 10.0508C23.5594 10.71 23.7832 11.4912 23.7832 12.3945C23.7832 13.0374 23.6408 13.6274 23.356 14.1646C23.0711 14.6935 22.6724 15.133 22.1597 15.4829C21.647 15.8247 21.0529 16.0444 20.3774 16.1421V16.2397C21.2075 16.2804 21.9359 16.488 22.5625 16.8623C23.1973 17.2367 23.6896 17.7331 24.0396 18.3516C24.3976 18.9701 24.5767 19.6781 24.5767 20.4756C24.5767 21.4847 24.3285 22.3636 23.832 23.1123C23.3356 23.8529 22.6317 24.4307 21.7202 24.8457C20.8088 25.2526 19.7305 25.4561 18.4854 25.4561H12.1255ZM14.0908 22.6362H17.2402C18.29 22.6362 19.0916 22.4287 19.645 22.0137C20.2065 21.5905 20.4873 20.9801 20.4873 20.1826C20.4873 19.4014 20.1984 18.8073 19.6206 18.4004C19.0509 17.9935 18.229 17.79 17.1548 17.79H14.0908V22.6362ZM14.0908 15.251H16.7886C17.7407 15.251 18.4813 15.0516 19.0103 14.6528C19.5474 14.2541 19.8159 13.7007 19.8159 12.9927C19.8159 12.3254 19.5758 11.8045 19.0957 11.4302C18.6156 11.0558 17.9482 10.8687 17.0938 10.8687H14.0908V15.251Z" fill="black"/>
</svg>
