<svg width="34" height="33" viewBox="0 0 34 33" fill="none" xmlns="http://www.w3.org/2000/svg">
<path d="M12.1211 10.5146C11.8444 10.5146 11.6084 10.4211 11.4131 10.2339C11.2259 10.0467 11.1323 9.81478 11.1323 9.53809C11.1323 9.26139 11.2259 9.02946 11.4131 8.84229C11.6084 8.64697 11.8444 8.54932 12.1211 8.54932H28.7959C29.0726 8.54932 29.3045 8.64697 29.4917 8.84229C29.687 9.02946 29.7847 9.26139 29.7847 9.53809C29.7847 9.81478 29.687 10.0467 29.4917 10.2339C29.3045 10.4211 29.0726 10.5146 28.7959 10.5146H12.1211ZM12.1211 17.8999C11.8444 17.8999 11.6084 17.8063 11.4131 17.6191C11.2259 17.4238 11.1323 17.1878 11.1323 16.9111C11.1323 16.6344 11.2259 16.4025 11.4131 16.2153C11.6084 16.0282 11.8444 15.9346 12.1211 15.9346H28.7959C29.0726 15.9346 29.3045 16.0282 29.4917 16.2153C29.687 16.4025 29.7847 16.6344 29.7847 16.9111C29.7847 17.1878 29.687 17.4238 29.4917 17.6191C29.3045 17.8063 29.0726 17.8999 28.7959 17.8999H12.1211ZM12.1211 25.2729C11.8444 25.2729 11.6084 25.1794 11.4131 24.9922C11.2259 24.805 11.1323 24.5731 11.1323 24.2964C11.1323 24.0197 11.2259 23.7878 11.4131 23.6006C11.6084 23.4053 11.8444 23.3076 12.1211 23.3076H28.7959C29.0726 23.3076 29.3045 23.4053 29.4917 23.6006C29.687 23.7878 29.7847 24.0197 29.7847 24.2964C29.7847 24.5731 29.687 24.805 29.4917 24.9922C29.3045 25.1794 29.0726 25.2729 28.7959 25.2729H12.1211ZM6.72559 11.064C6.30241 11.064 5.94027 10.9175 5.63916 10.6245C5.33805 10.3234 5.1875 9.96126 5.1875 9.53809C5.1875 9.10677 5.33805 8.74463 5.63916 8.45166C5.94027 8.15055 6.30241 8 6.72559 8C7.14876 8 7.51091 8.15055 7.81201 8.45166C8.11312 8.74463 8.26367 9.10677 8.26367 9.53809C8.26367 9.96126 8.11312 10.3234 7.81201 10.6245C7.51091 10.9175 7.14876 11.064 6.72559 11.064ZM6.72559 18.4492C6.30241 18.4492 5.94027 18.2987 5.63916 17.9976C5.33805 17.6965 5.1875 17.3343 5.1875 16.9111C5.1875 16.488 5.33805 16.1258 5.63916 15.8247C5.94027 15.5236 6.30241 15.373 6.72559 15.373C7.14876 15.373 7.51091 15.5236 7.81201 15.8247C8.11312 16.1258 8.26367 16.488 8.26367 16.9111C8.26367 17.3343 8.11312 17.6965 7.81201 17.9976C7.51091 18.2987 7.14876 18.4492 6.72559 18.4492ZM6.72559 25.8345C6.30241 25.8345 5.94027 25.6839 5.63916 25.3828C5.33805 25.0817 5.1875 24.7196 5.1875 24.2964C5.1875 23.8651 5.33805 23.5029 5.63916 23.21C5.94027 22.9089 6.30241 22.7583 6.72559 22.7583C7.14876 22.7583 7.51091 22.9089 7.81201 23.21C8.11312 23.5029 8.26367 23.8651 8.26367 24.2964C8.26367 24.7196 8.11312 25.0817 7.81201 25.3828C7.51091 25.6839 7.14876 25.8345 6.72559 25.8345Z" fill="black"/>
</svg>
