<svg width="34" height="33" viewBox="0 0 34 33" fill="none" xmlns="http://www.w3.org/2000/svg">
<path d="M6.29053 7.84326C6.03825 7.84326 5.82259 7.75374 5.64355 7.57471C5.46452 7.39567 5.375 7.17594 5.375 6.91553C5.375 6.66325 5.46452 6.44759 5.64355 6.26855C5.82259 6.08952 6.03825 6 6.29053 6H29.0322C29.2926 6 29.5124 6.08952 29.6914 6.26855C29.8786 6.44759 29.9722 6.66325 29.9722 6.91553C29.9722 7.17594 29.8786 7.39567 29.6914 7.57471C29.5124 7.75374 29.2926 7.84326 29.0322 7.84326H6.29053ZM10.8071 14.2397C10.5467 14.2397 10.327 14.1502 10.1479 13.9712C9.96891 13.7922 9.87939 13.5724 9.87939 13.312C9.87939 13.0516 9.96891 12.8359 10.1479 12.665C10.327 12.486 10.5467 12.3965 10.8071 12.3965H24.5278C24.7882 12.3965 25.008 12.486 25.187 12.665C25.366 12.8359 25.4556 13.0516 25.4556 13.312C25.4556 13.5724 25.366 13.7922 25.187 13.9712C25.008 14.1502 24.7882 14.2397 24.5278 14.2397H10.8071ZM6.29053 20.6362C6.03825 20.6362 5.82259 20.5467 5.64355 20.3677C5.46452 20.1886 5.375 19.9689 5.375 19.7085C5.375 19.4481 5.46452 19.2324 5.64355 19.0615C5.82259 18.8825 6.03825 18.793 6.29053 18.793H29.0322C29.2926 18.793 29.5124 18.8825 29.6914 19.0615C29.8786 19.2324 29.9722 19.4481 29.9722 19.7085C29.9722 19.9689 29.8786 20.1886 29.6914 20.3677C29.5124 20.5467 29.2926 20.6362 29.0322 20.6362H6.29053ZM10.8071 27.0205C10.5467 27.0205 10.327 26.931 10.1479 26.752C9.96891 26.5811 9.87939 26.3654 9.87939 26.105C9.87939 25.8446 9.96891 25.6248 10.1479 25.4458C10.327 25.2668 10.5467 25.1772 10.8071 25.1772H24.5278C24.7882 25.1772 25.008 25.2668 25.187 25.4458C25.366 25.6248 25.4556 25.8446 25.4556 26.105C25.4556 26.3654 25.366 26.5811 25.187 26.752C25.008 26.931 24.7882 27.0205 24.5278 27.0205H10.8071Z" fill="black"/>
</svg>
