<svg width="33" height="33" viewBox="0 0 33 33" fill="none" xmlns="http://www.w3.org/2000/svg">
<path d="M7.95508 28.2847C6.77506 28.2847 5.88802 27.9917 5.29395 27.4058C4.70801 26.8198 4.41504 25.9491 4.41504 24.7935V12.9038C4.41504 11.7401 4.70801 10.8693 5.29395 10.2915C5.88802 9.70557 6.77506 9.4126 7.95508 9.4126H25.0327C26.2046 9.4126 27.0876 9.70557 27.6816 10.2915C28.2757 10.8774 28.5728 11.7482 28.5728 12.9038V24.7935C28.5728 25.9491 28.2757 26.8198 27.6816 27.4058C27.0876 27.9917 26.2046 28.2847 25.0327 28.2847H7.95508ZM7.97949 26.6001H24.9961C25.5902 26.6001 26.05 26.4414 26.3755 26.124C26.7091 25.8066 26.876 25.3346 26.876 24.708V12.9893C26.876 12.3626 26.7091 11.8906 26.3755 11.5732C26.05 11.2477 25.5902 11.085 24.9961 11.085H7.97949C7.37728 11.085 6.91341 11.2477 6.58789 11.5732C6.27051 11.8906 6.11182 12.3626 6.11182 12.9893V24.708C6.11182 25.3346 6.27051 25.8066 6.58789 26.124C6.91341 26.4414 7.37728 26.6001 7.97949 26.6001ZM6.86865 7.49609C6.94189 7.01595 7.10466 6.64974 7.35693 6.39746C7.60921 6.13704 7.99577 6.00684 8.5166 6.00684H24.4712C24.992 6.00684 25.3786 6.13704 25.6309 6.39746C25.8831 6.64974 26.05 7.01595 26.1313 7.49609H6.86865ZM9.2124 4.39551C9.24495 3.94792 9.38737 3.61019 9.63965 3.38232C9.90006 3.14632 10.2663 3.02832 10.7383 3.02832H22.2495C22.7297 3.02832 23.0959 3.14632 23.3481 3.38232C23.6086 3.61019 23.751 3.94792 23.7754 4.39551H9.2124ZM17.0493 23.6094C16.8215 23.6094 16.6872 23.4914 16.6465 23.2554C16.5244 22.3683 16.3861 21.644 16.2314 21.0825C16.0768 20.5129 15.849 20.0653 15.5479 19.7397C15.2467 19.4142 14.8195 19.1701 14.2661 19.0073C13.7209 18.8446 12.9884 18.7225 12.0688 18.6411C11.8247 18.6086 11.7026 18.4824 11.7026 18.2627C11.7026 18.043 11.8247 17.9128 12.0688 17.8721C12.8013 17.7744 13.4076 17.6686 13.8877 17.5547C14.376 17.4326 14.7707 17.2739 15.0718 17.0786C15.381 16.8752 15.6252 16.6147 15.8042 16.2974C15.9914 15.98 16.146 15.5771 16.2681 15.0889C16.3901 14.5924 16.5163 13.9902 16.6465 13.2822C16.6953 13.0462 16.8296 12.9282 17.0493 12.9282C17.269 12.9282 17.3993 13.0503 17.4399 13.2944C17.5457 13.9862 17.6556 14.5762 17.7695 15.0645C17.8916 15.5527 18.0462 15.9556 18.2334 16.2729C18.4206 16.5903 18.6688 16.8507 18.978 17.0542C19.2954 17.2576 19.7023 17.4204 20.1987 17.5425C20.6952 17.6646 21.3055 17.7744 22.0298 17.8721C22.2658 17.9128 22.3838 18.043 22.3838 18.2627C22.3838 18.4987 22.2658 18.6248 22.0298 18.6411C21.1183 18.7713 20.39 18.9219 19.8447 19.0928C19.3076 19.2555 18.8926 19.4915 18.5996 19.8008C18.3066 20.11 18.0788 20.5413 17.916 21.0947C17.7614 21.6481 17.6027 22.3683 17.4399 23.2554C17.3911 23.4914 17.2609 23.6094 17.0493 23.6094ZM12.4961 25.4526C12.3333 25.4526 12.2316 25.3631 12.1909 25.1841C12.0933 24.6307 12.0037 24.2279 11.9224 23.9756C11.8491 23.7152 11.6864 23.5361 11.4341 23.4385C11.1899 23.3327 10.7627 23.231 10.1523 23.1333C9.97331 23.117 9.88379 23.0194 9.88379 22.8403C9.88379 22.6776 9.96517 22.5881 10.1279 22.5718C10.7464 22.466 11.1818 22.3602 11.4341 22.2544C11.6864 22.1486 11.8491 21.9696 11.9224 21.7173C12.0037 21.465 12.0933 21.0622 12.1909 20.5088C12.2316 20.3379 12.3333 20.2524 12.4961 20.2524C12.6426 20.2524 12.7362 20.3379 12.7769 20.5088C12.8745 21.0622 12.964 21.465 13.0454 21.7173C13.1268 21.9696 13.2896 22.1486 13.5337 22.2544C13.786 22.3602 14.2254 22.466 14.8521 22.5718C15.0148 22.5881 15.0962 22.6776 15.0962 22.8403C15.0962 23.0112 15.0148 23.1089 14.8521 23.1333C14.2254 23.231 13.786 23.3327 13.5337 23.4385C13.2896 23.5361 13.1268 23.7192 13.0454 23.9878C12.964 24.2482 12.8745 24.6592 12.7769 25.2207C12.7362 25.3753 12.6426 25.4526 12.4961 25.4526Z" fill="black"/>
</svg>
