<svg width="33" height="33" viewBox="0 0 33 33" fill="none" xmlns="http://www.w3.org/2000/svg">
<path d="M6.57036 27.2388C6.31548 26.9839 6.14409 26.6851 6.0562 26.3423C5.9771 25.9907 5.9815 25.6479 6.06939 25.314C6.15728 24.9712 6.31988 24.6812 6.55718 24.4438L14.085 16.9028L6.55718 9.375C6.31988 9.1377 6.15728 8.84766 6.06939 8.50488C5.99029 8.16211 5.99029 7.81934 6.06939 7.47656C6.15728 7.13379 6.32427 6.83496 6.57036 6.58008C6.82525 6.31641 7.12407 6.14502 7.46685 6.06592C7.81841 5.98682 8.16558 5.98682 8.50835 6.06592C8.85113 6.14502 9.14556 6.30762 9.39165 6.55371L16.9195 14.0684L24.4341 6.55371C24.6802 6.30762 24.9747 6.14502 25.3174 6.06592C25.6602 5.97803 25.9986 5.97803 26.3326 6.06592C26.6753 6.15381 26.9786 6.3252 27.2422 6.58008C27.4971 6.83496 27.6685 7.13379 27.7564 7.47656C27.8443 7.81934 27.8443 8.16211 27.7564 8.50488C27.6773 8.83887 27.5147 9.1333 27.2686 9.38818L19.754 16.9028L27.2686 24.4307C27.5147 24.6768 27.6773 24.9712 27.7564 25.314C27.8355 25.6567 27.8311 25.9995 27.7432 26.3423C27.6641 26.6851 27.4971 26.9839 27.2422 27.2388C26.9874 27.4937 26.6885 27.6606 26.3458 27.7397C26.003 27.8276 25.6602 27.832 25.3174 27.7529C24.9747 27.6738 24.6802 27.5068 24.4341 27.252L16.9195 19.7373L9.39165 27.2651C9.14556 27.5024 8.85113 27.6606 8.50835 27.7397C8.17437 27.8276 7.83159 27.8276 7.48003 27.7397C7.13726 27.6606 6.83404 27.4937 6.57036 27.2388Z" fill="black"/>
</svg>
