<svg width="33" height="33" viewBox="0 0 33 33" fill="none" xmlns="http://www.w3.org/2000/svg">
<path d="M16.5 2.04102C16.7832 2.04102 17.0286 2.14486 17.2363 2.35254C17.4535 2.56022 17.562 2.80566 17.562 3.08887V16.7109L17.4771 18.7075L18.2275 17.9146L20.2949 15.7056C20.4837 15.4979 20.7244 15.394 21.0171 15.394C21.3003 15.394 21.5316 15.4837 21.7109 15.6631C21.8997 15.833 21.9941 16.0549 21.9941 16.3286C21.9941 16.5929 21.8903 16.8289 21.6826 17.0366L17.2646 21.2988C17.1325 21.431 17.005 21.5254 16.8823 21.582C16.7596 21.6292 16.6322 21.6528 16.5 21.6528C16.3584 21.6528 16.2262 21.6292 16.1035 21.582C15.9808 21.5254 15.8534 21.431 15.7212 21.2988L11.3032 17.0366C11.0861 16.8289 10.9775 16.5929 10.9775 16.3286C10.9775 16.0549 11.0672 15.833 11.2466 15.6631C11.4354 15.4837 11.6714 15.394 11.9546 15.394C12.2567 15.394 12.5021 15.4979 12.6909 15.7056L14.7583 17.9146L15.5088 18.7217L15.4238 16.7109V3.08887C15.4238 2.80566 15.5277 2.56022 15.7354 2.35254C15.9525 2.14486 16.2074 2.04102 16.5 2.04102ZM8.81104 30.7012C7.4139 30.7012 6.36133 30.3566 5.65332 29.6675C4.95475 28.9784 4.60547 27.9399 4.60547 26.5522V13.3267C4.60547 11.939 4.95475 10.9006 5.65332 10.2114C6.36133 9.5223 7.4139 9.17773 8.81104 9.17773H12.9175V11.3301H8.83936C8.17855 11.3301 7.66878 11.5094 7.31006 11.8682C6.95133 12.2174 6.77197 12.7414 6.77197 13.4399V26.439C6.77197 27.1375 6.95133 27.6615 7.31006 28.0107C7.66878 28.3695 8.17855 28.5488 8.83936 28.5488H24.1465C24.8073 28.5488 25.3171 28.3695 25.6758 28.0107C26.0439 27.6615 26.228 27.1375 26.228 26.439V13.4399C26.228 12.7414 26.0439 12.2174 25.6758 11.8682C25.3171 11.5094 24.8073 11.3301 24.1465 11.3301H20.0684V9.17773H24.1748C25.5814 9.17773 26.634 9.52702 27.3325 10.2256C28.0311 10.9147 28.3804 11.9484 28.3804 13.3267V26.5522C28.3804 27.9305 28.0311 28.9642 27.3325 29.6533C26.634 30.3519 25.5814 30.7012 24.1748 30.7012H8.81104Z" fill="black"/>
</svg>
