<svg width="25" height="24" viewBox="0 0 25 24" fill="none" xmlns="http://www.w3.org/2000/svg">
<path d="M2.77783 3.993C2.77966 3.73038 2.88473 3.47902 3.07034 3.29322C3.25596 3.10742 3.50721 3.00209 3.76983 3H21.7858C22.3338 3 22.7778 3.445 22.7778 3.993V20.007C22.776 20.2696 22.6709 20.521 22.4853 20.7068C22.2997 20.8926 22.0485 20.9979 21.7858 21H3.76983C3.50665 20.9997 3.25433 20.895 3.06832 20.7088C2.88231 20.5226 2.77783 20.2702 2.77783 20.007V3.993ZM4.77783 5V19H20.7778V5H4.77783ZM6.77783 7H12.7778V13H6.77783V7ZM8.77783 9V11H10.7778V9H8.77783ZM6.77783 15H18.7778V17H6.77783V15ZM14.7778 7H18.7778V9H14.7778V7ZM14.7778 11H18.7778V13H14.7778V11Z" fill="black"/>
</svg>
