<svg width="33" height="33" viewBox="0 0 33 33" fill="none" xmlns="http://www.w3.org/2000/svg">
<path d="M25.9746 27.9277L9.37695 11.3301C9.11263 11.0566 8.98047 10.7422 8.98047 10.3867C8.98047 10.0221 9.10807 9.70312 9.36328 9.42969C9.61849 9.15625 9.93294 9.01953 10.3066 9.01953C10.6895 9.01953 11.0176 9.15625 11.291 9.42969L27.875 26.0137C28.1484 26.3053 28.2852 26.6289 28.2852 26.9844C28.2852 27.3398 28.153 27.6543 27.8887 27.9277C27.6426 28.2012 27.3281 28.3379 26.9453 28.3379C26.5716 28.3379 26.248 28.2012 25.9746 27.9277ZM14.5723 15.2402L15.1875 14.6387L10.7988 10.25C10.7077 10.1589 10.6029 10.1133 10.4844 10.1133C10.3659 10.1133 10.2656 10.1589 10.1836 10.25C10.0924 10.332 10.0469 10.4323 10.0469 10.5508C10.056 10.6602 10.1016 10.7559 10.1836 10.8379L14.5723 15.2402ZM21.2441 12.5195C21.1439 12.5195 21.0573 12.4922 20.9844 12.4375C20.9206 12.3828 20.8887 12.3099 20.8887 12.2188C20.7611 11.4622 20.6198 10.847 20.4648 10.373C20.3099 9.88997 20.0911 9.50716 19.8086 9.22461C19.5352 8.93294 19.1569 8.70964 18.6738 8.55469C18.1999 8.39062 17.5801 8.25391 16.8145 8.14453C16.5957 8.09896 16.4863 7.98047 16.4863 7.78906C16.4863 7.58854 16.5957 7.47005 16.8145 7.43359C17.5801 7.32422 18.1953 7.1875 18.6602 7.02344C19.1341 6.85938 19.5033 6.63607 19.7676 6.35352C20.041 6.06185 20.2552 5.67904 20.4102 5.20508C20.5742 4.72201 20.7337 4.11133 20.8887 3.37305C20.916 3.1543 21.0345 3.04492 21.2441 3.04492C21.4355 3.04492 21.554 3.1543 21.5996 3.37305C21.709 4.10221 21.8411 4.70378 21.9961 5.17773C22.151 5.65169 22.3652 6.03451 22.6387 6.32617C22.9212 6.61784 23.2995 6.85026 23.7734 7.02344C24.2565 7.1875 24.8854 7.32422 25.6602 7.43359C25.8607 7.47005 25.9609 7.58854 25.9609 7.78906C25.9609 7.98958 25.8607 8.10807 25.6602 8.14453C24.8854 8.25391 24.2656 8.39062 23.8008 8.55469C23.3359 8.70964 22.9668 8.93294 22.6934 9.22461C22.4199 9.50716 22.2057 9.88997 22.0508 10.373C21.8958 10.8561 21.7454 11.4759 21.5996 12.2324C21.5814 12.3145 21.5404 12.3828 21.4766 12.4375C21.4128 12.4922 21.3353 12.5195 21.2441 12.5195ZM6.84766 22.9785C6.66536 22.9785 6.55599 22.8783 6.51953 22.6777C6.42839 22.0853 6.3418 21.6159 6.25977 21.2695C6.17773 20.9141 6.05013 20.6452 5.87695 20.4629C5.70378 20.2715 5.4349 20.1257 5.07031 20.0254C4.70573 19.916 4.19987 19.8112 3.55273 19.7109C3.36133 19.6836 3.26562 19.5788 3.26562 19.3965C3.26562 19.2142 3.36133 19.1048 3.55273 19.0684C4.19987 18.9772 4.70573 18.8815 5.07031 18.7812C5.4349 18.6719 5.70378 18.5215 5.87695 18.3301C6.05013 18.1387 6.17773 17.8698 6.25977 17.5234C6.3418 17.168 6.42839 16.694 6.51953 16.1016C6.55599 15.9102 6.66536 15.8145 6.84766 15.8145C7.02995 15.8145 7.13477 15.9102 7.16211 16.1016C7.25326 16.694 7.33984 17.168 7.42188 17.5234C7.50391 17.8698 7.63151 18.1387 7.80469 18.3301C7.97786 18.5215 8.24674 18.6719 8.61133 18.7812C8.97591 18.8815 9.48177 18.9772 10.1289 19.0684C10.3294 19.1048 10.4297 19.2142 10.4297 19.3965C10.4297 19.5788 10.3294 19.6836 10.1289 19.7109C9.48177 19.8112 8.97591 19.916 8.61133 20.0254C8.24674 20.1257 7.97786 20.2715 7.80469 20.4629C7.63151 20.6452 7.50391 20.9141 7.42188 21.2695C7.33984 21.6159 7.25326 22.0853 7.16211 22.6777C7.13477 22.8783 7.02995 22.9785 6.84766 22.9785ZM11.1543 26.6836C11.0267 26.6836 10.9401 26.6061 10.8945 26.4512C10.7943 25.9772 10.7077 25.6309 10.6348 25.4121C10.5618 25.1842 10.416 25.0202 10.1973 24.9199C9.97852 24.8197 9.5957 24.7194 9.04883 24.6191C8.88477 24.5827 8.80273 24.487 8.80273 24.332C8.80273 24.1862 8.88932 24.0996 9.0625 24.0723C9.60938 23.9811 9.99219 23.8854 10.2109 23.7852C10.4297 23.6849 10.571 23.5254 10.6348 23.3066C10.7077 23.0788 10.7943 22.7279 10.8945 22.2539C10.9401 22.0807 11.0267 21.9941 11.1543 21.9941C11.3092 21.9941 11.4004 22.0716 11.4277 22.2266C11.5189 22.7096 11.5964 23.0651 11.6602 23.293C11.7331 23.5117 11.8835 23.6712 12.1113 23.7715C12.3392 23.8717 12.7266 23.972 13.2734 24.0723C13.4284 24.0996 13.5059 24.1862 13.5059 24.332C13.5059 24.487 13.4284 24.5827 13.2734 24.6191C12.7266 24.7194 12.3346 24.8197 12.0977 24.9199C11.8698 25.0202 11.7194 25.1842 11.6465 25.4121C11.5827 25.6309 11.5098 25.9772 11.4277 26.4512C11.4004 26.6061 11.3092 26.6836 11.1543 26.6836Z" fill="black"/>
</svg>
