<svg width="33" height="33" viewBox="0 0 33 33" fill="none" xmlns="http://www.w3.org/2000/svg">
<path d="M18.2637 30.2109C18.0996 30.2109 17.9629 30.1562 17.8535 30.0469C17.7533 29.9466 17.6895 29.8145 17.6621 29.6504C17.4707 28.2103 17.2611 27.0026 17.0332 26.0273C16.8053 25.0521 16.5046 24.2591 16.1309 23.6484C15.7572 23.0286 15.2604 22.5365 14.6406 22.1719C14.0299 21.8073 13.2415 21.5156 12.2754 21.2969C11.3092 21.069 10.1198 20.8639 8.70703 20.6816C8.53385 20.6634 8.39258 20.5996 8.2832 20.4902C8.17383 20.3809 8.11914 20.2441 8.11914 20.0801C8.11914 19.916 8.17383 19.7793 8.2832 19.6699C8.39258 19.5605 8.53385 19.4967 8.70703 19.4785C10.1289 19.3236 11.3229 19.1458 12.2891 18.9453C13.2552 18.7357 14.0482 18.444 14.668 18.0703C15.2878 17.6966 15.7845 17.1953 16.1582 16.5664C16.541 15.9375 16.8418 15.1309 17.0605 14.1465C17.2884 13.1621 17.4889 11.9453 17.6621 10.4961C17.6895 10.3411 17.7533 10.2135 17.8535 10.1133C17.9629 10.0039 18.0996 9.94922 18.2637 9.94922C18.4277 9.94922 18.5599 10.0039 18.6602 10.1133C18.7695 10.2135 18.8379 10.3411 18.8652 10.4961C19.0475 11.9453 19.248 13.1621 19.4668 14.1465C19.6947 15.1309 19.9954 15.9375 20.3691 16.5664C20.7428 17.1953 21.2396 17.6966 21.8594 18.0703C22.4792 18.444 23.2721 18.7357 24.2383 18.9453C25.2135 19.1458 26.4076 19.3236 27.8203 19.4785C27.9935 19.4967 28.1302 19.5605 28.2305 19.6699C28.3398 19.7793 28.3945 19.916 28.3945 20.0801C28.3945 20.2441 28.3398 20.3809 28.2305 20.4902C28.1302 20.5996 27.9935 20.6634 27.8203 20.6816C26.4076 20.8366 25.2135 21.0189 24.2383 21.2285C23.2721 21.429 22.4792 21.7161 21.8594 22.0898C21.2396 22.4635 20.7428 22.9648 20.3691 23.5938C19.9954 24.2227 19.6947 25.0293 19.4668 26.0137C19.248 26.998 19.0475 28.2103 18.8652 29.6504C18.8379 29.8145 18.7695 29.9466 18.6602 30.0469C18.5599 30.1562 18.4277 30.2109 18.2637 30.2109ZM9.5 15.8691C9.26302 15.8691 9.1263 15.7415 9.08984 15.4863C8.98958 14.6204 8.88021 13.946 8.76172 13.4629C8.64323 12.9707 8.46094 12.6016 8.21484 12.3555C7.96875 12.1094 7.59049 11.9225 7.08008 11.7949C6.57878 11.6673 5.89062 11.526 5.01562 11.3711C4.74219 11.3346 4.60547 11.2025 4.60547 10.9746C4.60547 10.7559 4.72396 10.6237 4.96094 10.5781C5.85417 10.4141 6.55143 10.2682 7.05273 10.1406C7.56315 10.0039 7.94596 9.81706 8.20117 9.58008C8.45638 9.33398 8.64323 8.9694 8.76172 8.48633C8.88021 8.00326 8.98958 7.33333 9.08984 6.47656C9.1263 6.22135 9.26302 6.09375 9.5 6.09375C9.73698 6.09375 9.86914 6.2168 9.89648 6.46289C10.015 7.33789 10.1335 8.02604 10.252 8.52734C10.3704 9.01953 10.5527 9.39323 10.7988 9.64844C11.054 9.89453 11.4323 10.0814 11.9336 10.209C12.444 10.3275 13.1458 10.4505 14.0391 10.5781C14.1393 10.5964 14.2214 10.6419 14.2852 10.7148C14.3581 10.7786 14.3945 10.8652 14.3945 10.9746C14.3945 11.2025 14.276 11.3346 14.0391 11.3711C13.1458 11.5443 12.4486 11.6992 11.9473 11.8359C11.446 11.9727 11.0677 12.1641 10.8125 12.4102C10.5573 12.6471 10.3704 13.0072 10.252 13.4902C10.1335 13.9642 10.015 14.6341 9.89648 15.5C9.88737 15.6003 9.84635 15.6868 9.77344 15.7598C9.70052 15.8327 9.60938 15.8691 9.5 15.8691ZM15.7891 7.00977C15.625 7.00977 15.5339 6.92773 15.5156 6.76367C15.388 6.08008 15.2695 5.57878 15.1602 5.25977C15.0599 4.93164 14.8457 4.69922 14.5176 4.5625C14.1986 4.42578 13.6608 4.29362 12.9043 4.16602C12.7402 4.12956 12.6582 4.03841 12.6582 3.89258C12.6582 3.72852 12.7402 3.63737 12.9043 3.61914C13.6608 3.48242 14.1986 3.35026 14.5176 3.22266C14.8457 3.08594 15.0599 2.85807 15.1602 2.53906C15.2695 2.21094 15.388 1.70052 15.5156 1.00781C15.5339 0.84375 15.625 0.761719 15.7891 0.761719C15.9349 0.761719 16.026 0.84375 16.0625 1.00781C16.181 1.70052 16.2949 2.21094 16.4043 2.53906C16.5137 2.85807 16.7279 3.08594 17.0469 3.22266C17.3659 3.35026 17.9036 3.48242 18.6602 3.61914C18.8242 3.63737 18.9062 3.72852 18.9062 3.89258C18.9062 4.03841 18.8242 4.12956 18.6602 4.16602C17.9036 4.29362 17.3659 4.42578 17.0469 4.5625C16.7279 4.69922 16.5137 4.93164 16.4043 5.25977C16.2949 5.57878 16.181 6.08008 16.0625 6.76367C16.026 6.92773 15.9349 7.00977 15.7891 7.00977Z" fill="black"/>
</svg>
