<svg width="33" height="33" viewBox="0 0 33 33" fill="none" xmlns="http://www.w3.org/2000/svg">
<path d="M3.94922 14.2012C3.94922 12.7884 4.21354 11.4668 4.74219 10.2363C5.27083 9.00586 6 7.92578 6.92969 6.99609C7.86849 6.05729 8.95312 5.32357 10.1836 4.79492C11.4141 4.25716 12.7311 3.98828 14.1348 3.98828C15.5475 3.98828 16.8691 4.25716 18.0996 4.79492C19.3301 5.32357 20.4147 6.05729 21.3535 6.99609C22.2923 7.92578 23.026 9.00586 23.5547 10.2363C24.0833 11.4668 24.3477 12.7884 24.3477 14.2012C24.3477 15.377 24.1562 16.498 23.7734 17.5645C23.3906 18.6217 22.862 19.5788 22.1875 20.4355L28.668 26.9434C28.7956 27.0801 28.8913 27.2305 28.9551 27.3945C29.028 27.5677 29.0645 27.7454 29.0645 27.9277C29.0645 28.2012 29.0052 28.4427 28.8867 28.6523C28.7682 28.8711 28.6042 29.0397 28.3945 29.1582C28.1849 29.2858 27.9434 29.3496 27.6699 29.3496C27.4876 29.3496 27.3053 29.3132 27.123 29.2402C26.9499 29.1764 26.7949 29.0807 26.6582 28.9531L20.1504 22.418C19.3027 23.0378 18.373 23.5254 17.3613 23.8809C16.3496 24.2272 15.2741 24.4004 14.1348 24.4004C12.7311 24.4004 11.4141 24.1361 10.1836 23.6074C8.95312 23.0788 7.86849 22.3451 6.92969 21.4062C6 20.4674 5.27083 19.3828 4.74219 18.1523C4.21354 16.9219 3.94922 15.6048 3.94922 14.2012ZM5.93164 14.2012C5.93164 15.3314 6.14583 16.3932 6.57422 17.3867C7.0026 18.3711 7.59049 19.2415 8.33789 19.998C9.0944 20.7454 9.96484 21.3333 10.9492 21.7617C11.9427 22.181 13.0046 22.3906 14.1348 22.3906C15.2741 22.3906 16.3359 22.181 17.3203 21.7617C18.3138 21.3333 19.1842 20.7454 19.9316 19.998C20.6882 19.2415 21.276 18.3711 21.6953 17.3867C22.1237 16.3932 22.3379 15.3314 22.3379 14.2012C22.3379 13.0618 22.1237 12 21.6953 11.0156C21.276 10.0221 20.6882 9.15169 19.9316 8.4043C19.1842 7.64779 18.3138 7.0599 17.3203 6.64062C16.3359 6.21224 15.2741 5.99805 14.1348 5.99805C13.0046 5.99805 11.9427 6.21224 10.9492 6.64062C9.96484 7.0599 9.0944 7.64779 8.33789 8.4043C7.59049 9.15169 7.0026 10.0221 6.57422 11.0156C6.14583 12 5.93164 13.0618 5.93164 14.2012ZM14.1621 19.6973C14.0527 19.6973 13.9616 19.6654 13.8887 19.6016C13.8158 19.5286 13.7702 19.4421 13.752 19.3418C13.6243 18.4212 13.4785 17.6693 13.3145 17.0859C13.1504 16.4935 12.9134 16.0332 12.6035 15.7051C12.2936 15.3678 11.8516 15.1172 11.2773 14.9531C10.7122 14.7799 9.95573 14.6523 9.00781 14.5703C8.76172 14.543 8.63867 14.4154 8.63867 14.1875C8.63867 13.9596 8.76172 13.8275 9.00781 13.791C9.95573 13.6634 10.7077 13.5176 11.2637 13.3535C11.8197 13.1803 12.2435 12.9342 12.5352 12.6152C12.8359 12.2871 13.0729 11.8405 13.2461 11.2754C13.4193 10.7103 13.5879 9.96289 13.752 9.0332C13.7975 8.79622 13.9342 8.67773 14.1621 8.67773C14.3809 8.67773 14.513 8.80078 14.5586 9.04688C14.6953 9.94922 14.8457 10.6829 15.0098 11.248C15.1738 11.8132 15.4108 12.2598 15.7207 12.5879C16.0306 12.9069 16.4681 13.1576 17.0332 13.3398C17.6074 13.513 18.3639 13.6634 19.3027 13.791C19.5488 13.8275 19.6719 13.9596 19.6719 14.1875C19.6719 14.4245 19.5488 14.5521 19.3027 14.5703C18.3548 14.707 17.6029 14.862 17.0469 15.0352C16.4909 15.1992 16.0579 15.4453 15.748 15.7734C15.4473 16.1016 15.2148 16.5527 15.0508 17.127C14.8867 17.6921 14.7227 18.4349 14.5586 19.3555C14.4948 19.5833 14.3626 19.6973 14.1621 19.6973Z" fill="black"/>
</svg>
