<svg width="33" height="33" viewBox="0 0 33 33" fill="none" xmlns="http://www.w3.org/2000/svg">
<path d="M4.97461 27.0801V7.61134C4.97461 6.49024 5.27995 5.64259 5.89062 5.06837C6.51042 4.48504 7.32617 4.16603 8.33789 4.11134C9.86914 4.02931 11.3411 3.91082 12.7539 3.75587C14.1667 3.60092 15.5293 3.41407 16.8418 3.19532C18.1543 2.97657 19.4258 2.73048 20.6562 2.45704C21.8411 2.19272 22.7526 2.33855 23.3906 2.89454C24.0378 3.45053 24.3613 4.3392 24.3613 5.56056V24.7695C24.3613 25.8542 24.1608 26.6654 23.7598 27.2031C23.3678 27.7409 22.7207 28.1283 21.8184 28.3652C20.196 28.7845 18.651 29.1172 17.1836 29.3633C15.7253 29.6185 14.2897 29.8099 12.877 29.9375C11.4642 30.0651 10.0332 30.1608 8.58398 30.2246C7.44466 30.2884 6.55599 30.0469 5.91797 29.5C5.28906 28.9531 4.97461 28.1465 4.97461 27.0801ZM6.875 26.752C6.875 27.2715 7.02995 27.668 7.33984 27.9414C7.65885 28.224 8.10091 28.3516 8.66602 28.3242C10.1061 28.2695 11.5098 28.1784 12.877 28.0508C14.2441 27.9323 15.5977 27.7591 16.9375 27.5313C18.2865 27.3125 19.6445 27.03 21.0117 26.6836C21.5221 26.556 21.8913 26.3418 22.1191 26.041C22.3561 25.7402 22.4746 25.2891 22.4746 24.6875V5.87501C22.4746 5.29168 22.3014 4.86329 21.9551 4.58985C21.6178 4.3073 21.153 4.22983 20.5605 4.35743C19.3483 4.62175 18.0996 4.86329 16.8145 5.08204C15.5293 5.30079 14.1986 5.48764 12.8223 5.64259C11.446 5.78842 10.0241 5.8978 8.55664 5.97071C8.04622 5.98894 7.63607 6.12566 7.32617 6.38087C7.02539 6.62696 6.875 7.02345 6.875 7.57032V26.752ZM9.80078 10.5781C9.60026 10.5872 9.43164 10.528 9.29492 10.4004C9.16732 10.2728 9.10352 10.1133 9.10352 9.92188C9.10352 9.73959 9.1582 9.58464 9.26758 9.45704C9.38607 9.32944 9.5638 9.25652 9.80078 9.23829C11.6328 9.13803 13.319 8.97397 14.8594 8.7461C16.4089 8.50912 17.931 8.23113 19.4258 7.91212C19.681 7.84832 19.877 7.88478 20.0137 8.02149C20.1504 8.1491 20.2188 8.3086 20.2188 8.50001C20.2188 8.66407 20.1732 8.81446 20.082 8.95118C19.9909 9.07879 19.8132 9.16993 19.5488 9.22462C17.9993 9.55274 16.4453 9.8353 14.8867 10.0723C13.3281 10.3093 11.6328 10.4779 9.80078 10.5781ZM9.80078 14.7891C9.60026 14.8073 9.43164 14.7526 9.29492 14.625C9.16732 14.4883 9.10352 14.3288 9.10352 14.1465C9.10352 13.9551 9.1582 13.7956 9.26758 13.668C9.38607 13.5404 9.5638 13.4675 9.80078 13.4492C11.6328 13.349 13.319 13.1849 14.8594 12.957C16.4089 12.7201 17.931 12.4421 19.4258 12.1231C19.681 12.0684 19.877 12.1048 20.0137 12.2324C20.1504 12.36 20.2188 12.5195 20.2188 12.7109C20.2188 12.875 20.1732 13.0254 20.082 13.1621C19.9909 13.2897 19.8132 13.3854 19.5488 13.4492C17.9993 13.7774 16.4453 14.0599 14.8867 14.2969C13.3281 14.5247 11.6328 14.6888 9.80078 14.7891ZM9.80078 19.0137C9.60026 19.0228 9.43164 18.9636 9.29492 18.8359C9.16732 18.7083 9.10352 18.5488 9.10352 18.3574C9.10352 18.1751 9.1582 18.0202 9.26758 17.8926C9.38607 17.765 9.5638 17.6921 9.80078 17.6738C11.6328 17.5736 13.319 17.4095 14.8594 17.1817C16.4089 16.9447 17.931 16.6667 19.4258 16.3477C19.681 16.2839 19.877 16.3203 20.0137 16.457C20.1504 16.5846 20.2188 16.7442 20.2188 16.9356C20.2188 17.0996 20.1732 17.25 20.082 17.3867C19.9909 17.5143 19.8132 17.6055 19.5488 17.6602C17.9993 17.9883 16.4453 18.2708 14.8867 18.5078C13.3281 18.7448 11.6328 18.9134 9.80078 19.0137ZM9.80078 23.2109C9.60026 23.2292 9.43164 23.1745 9.29492 23.0469C9.16732 22.9102 9.10352 22.7507 9.10352 22.5684C9.10352 22.377 9.1582 22.2175 9.26758 22.0899C9.38607 21.9622 9.5638 21.8893 9.80078 21.8711C10.8216 21.8255 11.7012 21.7617 12.4395 21.6797C13.1868 21.5886 13.8887 21.4974 14.5449 21.4063C14.8092 21.3516 15.0098 21.3926 15.1465 21.5293C15.2923 21.666 15.3652 21.8255 15.3652 22.0078C15.3652 22.1628 15.3105 22.3132 15.2012 22.459C15.1009 22.5957 14.9505 22.6777 14.75 22.7051C14.0208 22.8145 13.2734 22.9147 12.5078 23.0059C11.7422 23.097 10.8398 23.1654 9.80078 23.2109ZM14.9688 31.3731C16.1081 31.209 17.2839 31.013 18.4961 30.7852C19.7174 30.5573 20.9707 30.2839 22.2559 29.9649C23.0944 29.737 23.7917 29.3997 24.3477 28.9531C24.9036 28.5065 25.3184 27.9369 25.5918 27.2442C25.8743 26.5606 26.0156 25.7357 26.0156 24.7695V5.56056C26.0156 5.37826 26.0111 5.20509 26.002 5.04103C25.9928 4.86785 25.9746 4.69923 25.9473 4.53517C26.6309 4.7448 27.1458 5.14129 27.4922 5.72462C27.8477 6.30795 28.0254 7.07358 28.0254 8.02149V27.4356C28.0254 28.7481 27.6973 29.7324 27.041 30.3887C26.3848 31.0449 25.4095 31.3731 24.1152 31.3731H14.9688Z" fill="black"/>
</svg>
