<svg width="33" height="33" viewBox="0 0 33 33" fill="none" xmlns="http://www.w3.org/2000/svg">
<path d="M30.6763 20.2354C30.6763 21.1061 30.4647 21.7775 30.0415 22.2495C29.6265 22.7215 29.0283 22.9575 28.2471 22.9575H5.00488C4.37826 22.9575 3.90625 22.75 3.58887 22.335C3.27148 21.9199 3.11279 21.3055 3.11279 20.4917L7.77588 16.2803C8.02002 16.0524 8.2723 15.8815 8.53271 15.7676C8.80127 15.6536 9.07389 15.5967 9.35059 15.5967C9.63542 15.5967 9.91618 15.6577 10.1929 15.7798C10.4696 15.8937 10.734 16.0646 10.9863 16.2925L14.0015 19.0146H13.4644L19.7388 13.4116C20.0155 13.1593 20.3044 12.9762 20.6055 12.8623C20.9147 12.7402 21.2362 12.6792 21.5698 12.6792C21.9035 12.6792 22.2249 12.7402 22.5342 12.8623C22.8516 12.9844 23.1445 13.1715 23.4131 13.4238L30.6763 20.2354ZM11.5112 13.5703C10.9823 13.5703 10.498 13.4401 10.0586 13.1797C9.61914 12.9193 9.26921 12.5693 9.00879 12.1299C8.74837 11.6904 8.61816 11.2021 8.61816 10.665C8.61816 10.1442 8.74837 9.66813 9.00879 9.23682C9.26921 8.79736 9.61914 8.44743 10.0586 8.18701C10.498 7.92659 10.9823 7.79639 11.5112 7.79639C12.0321 7.79639 12.5081 7.92659 12.9395 8.18701C13.3708 8.44743 13.7166 8.79736 13.9771 9.23682C14.2375 9.66813 14.3677 10.1442 14.3677 10.665C14.3677 11.2021 14.2375 11.6904 13.9771 12.1299C13.7166 12.5693 13.3708 12.9193 12.9395 13.1797C12.5081 13.4401 12.0321 13.5703 11.5112 13.5703ZM4.69971 24.2759C3.72314 24.2759 2.9541 23.9992 2.39258 23.4458C1.83919 22.8843 1.5625 22.1152 1.5625 21.1387V7.13721C1.5625 6.16064 1.83919 5.39567 2.39258 4.84229C2.9541 4.28076 3.72314 4 4.69971 4H28.9429C29.9194 4 30.6844 4.28076 31.2378 4.84229C31.7993 5.39567 32.0801 6.16064 32.0801 7.13721V21.1387C32.0801 22.1152 31.7993 22.8843 31.2378 23.4458C30.6844 23.9992 29.9194 24.2759 28.9429 24.2759H4.69971ZM4.73633 22.3105H28.9062C29.2887 22.3105 29.5858 22.2048 29.7974 21.9932C30.009 21.7816 30.1147 21.4886 30.1147 21.1143V7.16162C30.1147 6.78727 30.009 6.4943 29.7974 6.28271C29.5858 6.07113 29.2887 5.96533 28.9062 5.96533H4.73633C4.35384 5.96533 4.0568 6.07113 3.84521 6.28271C3.63363 6.4943 3.52783 6.78727 3.52783 7.16162V21.1143C3.52783 21.4886 3.63363 21.7816 3.84521 21.9932C4.0568 22.2048 4.35384 22.3105 4.73633 22.3105ZM10.6812 28.4141C10.4126 28.4141 10.1807 28.3164 9.98535 28.1211C9.79004 27.9258 9.69238 27.6938 9.69238 27.4253C9.69238 27.1486 9.79004 26.9126 9.98535 26.7173C10.1807 26.5301 10.4126 26.4365 10.6812 26.4365H22.9614C23.23 26.4365 23.4619 26.5301 23.6572 26.7173C23.8525 26.9126 23.9502 27.1486 23.9502 27.4253C23.9502 27.6938 23.8525 27.9258 23.6572 28.1211C23.4619 28.3164 23.23 28.4141 22.9614 28.4141H10.6812Z" fill="black"/>
</svg>
