<svg width="33" height="33" viewBox="0 0 33 33" fill="none" xmlns="http://www.w3.org/2000/svg">
<path d="M16.6606 11.9438C17.4419 12.0821 18.0929 12.2856 18.6138 12.5541C19.1346 12.8145 19.5863 13.1401 19.9688 13.5307C20.9616 14.5154 21.6208 15.6018 21.9463 16.79C22.2718 17.97 22.2677 19.15 21.9341 20.33C21.6086 21.51 20.9575 22.5883 19.981 23.5649L15.8062 27.7519C14.8377 28.7203 13.7635 29.3673 12.5835 29.6928C11.4035 30.0264 10.2194 30.0305 9.03125 29.705C7.85124 29.3795 6.76481 28.7203 5.77197 27.7275C4.78727 26.7428 4.13216 25.6604 3.80664 24.4804C3.48112 23.2922 3.48112 22.1082 3.80664 20.9281C4.1403 19.7481 4.79134 18.6698 5.75977 17.6933L9.34863 14.1166C9.28353 14.5154 9.27132 14.9345 9.31201 15.3739C9.36084 15.8053 9.4707 16.2122 9.6416 16.5946L7.24902 18.9872C6.54102 19.6952 6.06901 20.4765 5.83301 21.331C5.59701 22.1855 5.59701 23.044 5.83301 23.9067C6.06901 24.7611 6.54102 25.5465 7.24902 26.2626C7.95703 26.9706 8.73828 27.4386 9.59277 27.6664C10.4554 27.9024 11.314 27.9024 12.1685 27.6664C13.0229 27.4304 13.8042 26.9584 14.5122 26.2504L18.5039 22.2709C19.2119 21.5629 19.6798 20.7817 19.9077 19.9272C20.1437 19.0727 20.1437 18.2182 19.9077 17.3637C19.6717 16.5011 19.1997 15.7117 18.4917 14.9955C18.0929 14.5968 17.6169 14.2794 17.0635 14.0434C16.5182 13.8074 15.8428 13.6568 15.0371 13.5917L16.6606 11.9438ZM16.3555 22.0024C15.5742 21.864 14.9232 21.6646 14.4023 21.4042C13.8815 21.1357 13.4299 20.8061 13.0474 20.4154C12.0545 19.4307 11.3953 18.3484 11.0698 17.1684C10.7443 15.9802 10.7443 14.7961 11.0698 13.6161C11.4035 12.4361 12.0586 11.3578 13.0352 10.3813L17.1978 6.20646C18.1743 5.2299 19.2526 4.57885 20.4326 4.25333C21.6126 3.91967 22.7926 3.91561 23.9727 4.24113C25.1608 4.56665 26.2513 5.22583 27.2441 6.21867C28.2288 7.20337 28.884 8.28979 29.2095 9.47794C29.535 10.658 29.5309 11.838 29.1973 13.018C28.8717 14.198 28.2248 15.2763 27.2563 16.2528L23.6675 19.8295C23.7326 19.4307 23.7407 19.0157 23.6919 18.5844C23.6512 18.1531 23.5454 17.7421 23.3745 17.3515L25.7671 14.9589C26.4751 14.2509 26.9471 13.4696 27.1831 12.6152C27.4191 11.7607 27.4191 10.9062 27.1831 10.0517C26.9471 9.18904 26.4751 8.40372 25.7671 7.69572C25.0509 6.97957 24.2656 6.50757 23.4111 6.2797C22.5566 6.0437 21.7021 6.0437 20.8477 6.2797C19.9932 6.5157 19.2078 6.98771 18.4917 7.69572L14.5122 11.6752C13.8042 12.3832 13.3322 13.1645 13.0962 14.019C12.8602 14.8735 12.8602 15.732 13.0962 16.5946C13.3322 17.4491 13.8083 18.2345 14.5244 18.9506C14.9232 19.3494 15.3952 19.6667 15.9404 19.9027C16.4938 20.1388 17.1733 20.2893 17.979 20.3544L16.3555 22.0024Z" fill="black"/>
</svg>
