<svg width="33" height="33" viewBox="0 0 33 33" fill="none" xmlns="http://www.w3.org/2000/svg">
<path d="M10.2988 19.2344C9.98145 19.2344 9.71696 19.1326 9.50537 18.9292C9.29378 18.7176 9.18799 18.4491 9.18799 18.1235V14.7666C9.18799 14.4411 9.29378 14.1725 9.50537 13.9609C9.71696 13.7493 9.98145 13.6436 10.2988 13.6436H22.6035C22.929 13.6436 23.1976 13.7493 23.4092 13.9609C23.6208 14.1725 23.7266 14.4411 23.7266 14.7666V18.1113C23.7266 18.4368 23.6208 18.7054 23.4092 18.917C23.1976 19.1286 22.929 19.2344 22.6035 19.2344H10.2988ZM16.4512 28.9023C14.734 28.9023 13.1227 28.5768 11.6172 27.9258C10.1117 27.2829 8.78923 26.3918 7.6499 25.2524C6.51058 24.1131 5.6154 22.7907 4.96436 21.2852C4.32145 19.7796 4 18.1683 4 16.4512C4 14.734 4.32145 13.1227 4.96436 11.6172C5.6154 10.1117 6.51058 8.78923 7.6499 7.6499C8.78923 6.50244 10.1117 5.60726 11.6172 4.96436C13.1227 4.32145 14.734 4 16.4512 4C18.1683 4 19.7796 4.32145 21.2852 4.96436C22.7907 5.60726 24.1131 6.50244 25.2524 7.6499C26.3918 8.78923 27.2829 10.1117 27.9258 11.6172C28.5768 13.1227 28.9023 14.734 28.9023 16.4512C28.9023 18.1683 28.5768 19.7796 27.9258 21.2852C27.2829 22.7907 26.3918 24.1131 25.2524 25.2524C24.1131 26.3918 22.7907 27.2829 21.2852 27.9258C19.7796 28.5768 18.1683 28.9023 16.4512 28.9023ZM16.4512 26.8271C17.8835 26.8271 19.2262 26.5586 20.4795 26.0215C21.7327 25.4844 22.8354 24.7397 23.7876 23.7876C24.7397 22.8354 25.4844 21.7327 26.0215 20.4795C26.5586 19.2262 26.8271 17.8835 26.8271 16.4512C26.8271 15.0189 26.5586 13.6761 26.0215 12.4229C25.4844 11.1615 24.7397 10.0588 23.7876 9.11475C22.8354 8.1626 21.7327 7.41797 20.4795 6.88086C19.2262 6.34375 17.8835 6.0752 16.4512 6.0752C15.0189 6.0752 13.6761 6.34375 12.4229 6.88086C11.1696 7.41797 10.0669 8.1626 9.11475 9.11475C8.1626 10.0588 7.41797 11.1615 6.88086 12.4229C6.34375 13.6761 6.0752 15.0189 6.0752 16.4512C6.0752 17.8835 6.34375 19.2262 6.88086 20.4795C7.41797 21.7327 8.1626 22.8354 9.11475 23.7876C10.0669 24.7397 11.1696 25.4844 12.4229 26.0215C13.6761 26.5586 15.0189 26.8271 16.4512 26.8271Z" fill="black"/>
</svg>
