<svg width="34" height="33" viewBox="0 0 34 33" fill="none" xmlns="http://www.w3.org/2000/svg">
<path d="M12.4141 25.4561C12.1292 25.4561 11.8932 25.3747 11.7061 25.2119C11.527 25.041 11.4375 24.8132 11.4375 24.5283C11.4375 24.2516 11.527 24.0319 11.7061 23.8691C11.8851 23.7064 12.117 23.625 12.4019 23.625H15.1484L18.1147 9.83105H15.3804C15.0955 9.83105 14.8595 9.74967 14.6724 9.58691C14.4933 9.41602 14.4038 9.18815 14.4038 8.90332C14.4038 8.62663 14.4933 8.4069 14.6724 8.24414C14.8514 8.08138 15.0833 8 15.3682 8H23.1196C23.4045 8 23.6364 8.08138 23.8154 8.24414C23.9945 8.4069 24.084 8.62663 24.084 8.90332C24.084 9.18815 23.9904 9.41602 23.8032 9.58691C23.6242 9.74967 23.3923 9.83105 23.1074 9.83105H20.373L17.4067 23.625H20.1411C20.4341 23.625 20.6701 23.7064 20.8491 23.8691C21.0282 24.0319 21.1177 24.2516 21.1177 24.5283C21.1177 24.8132 21.0241 25.041 20.8369 25.2119C20.6579 25.3747 20.4219 25.4561 20.1289 25.4561H12.4141Z" fill="black"/>
</svg>
