<svg width="34" height="33" viewBox="0 0 34 33" fill="none" xmlns="http://www.w3.org/2000/svg">
<path d="M6.22803 7.84326C5.97575 7.84326 5.76009 7.75374 5.58105 7.57471C5.40202 7.39567 5.3125 7.17594 5.3125 6.91553C5.3125 6.66325 5.40202 6.44759 5.58105 6.26855C5.76009 6.08952 5.97575 6 6.22803 6H28.9697C29.2301 6 29.4499 6.08952 29.6289 6.26855C29.8161 6.44759 29.9097 6.66325 29.9097 6.91553C29.9097 7.17594 29.8161 7.39567 29.6289 7.57471C29.4499 7.75374 29.2301 7.84326 28.9697 7.84326H6.22803ZM6.22803 14.2397C5.97575 14.2397 5.76009 14.1502 5.58105 13.9712C5.40202 13.7922 5.3125 13.5724 5.3125 13.312C5.3125 13.0516 5.40202 12.8359 5.58105 12.665C5.76009 12.486 5.97575 12.3965 6.22803 12.3965H19.9609C20.2214 12.3965 20.4411 12.486 20.6201 12.665C20.7992 12.8359 20.8887 13.0516 20.8887 13.312C20.8887 13.5724 20.7992 13.7922 20.6201 13.9712C20.4411 14.1502 20.2214 14.2397 19.9609 14.2397H6.22803ZM6.22803 20.6362C5.97575 20.6362 5.76009 20.5467 5.58105 20.3677C5.40202 20.1886 5.3125 19.9689 5.3125 19.7085C5.3125 19.4481 5.40202 19.2324 5.58105 19.0615C5.76009 18.8825 5.97575 18.793 6.22803 18.793H28.9697C29.2301 18.793 29.4499 18.8825 29.6289 19.0615C29.8161 19.2324 29.9097 19.4481 29.9097 19.7085C29.9097 19.9689 29.8161 20.1886 29.6289 20.3677C29.4499 20.5467 29.2301 20.6362 28.9697 20.6362H6.22803ZM6.22803 27.0205C5.97575 27.0205 5.76009 26.931 5.58105 26.752C5.40202 26.5811 5.3125 26.3654 5.3125 26.105C5.3125 25.8446 5.40202 25.6248 5.58105 25.4458C5.76009 25.2668 5.97575 25.1772 6.22803 25.1772H19.9609C20.2214 25.1772 20.4411 25.2668 20.6201 25.4458C20.7992 25.6248 20.8887 25.8446 20.8887 26.105C20.8887 26.3654 20.7992 26.5811 20.6201 26.752C20.4411 26.931 20.2214 27.0205 19.9609 27.0205H6.22803Z" fill="black"/>
</svg>
