<svg width="33" height="33" viewBox="0 0 33 33" fill="none" xmlns="http://www.w3.org/2000/svg">
<path d="M7.61328 28.502C6.29167 28.502 5.29818 28.1738 4.63281 27.5176C3.97656 26.8704 3.64844 25.8952 3.64844 24.5918V8.78711C3.64844 7.48372 3.97656 6.50846 4.63281 5.86133C5.29818 5.20508 6.29167 4.87695 7.61328 4.87695H25.3867C26.7083 4.87695 27.6973 5.20508 28.3535 5.86133C29.0189 6.51758 29.3516 7.49284 29.3516 8.78711V24.5918C29.3516 25.8861 29.0189 26.8613 28.3535 27.5176C27.6973 28.1738 26.7083 28.502 25.3867 28.502H7.61328ZM7.44922 26.6152H25.5371C26.1478 26.6152 26.6217 26.4512 26.959 26.123C27.2962 25.804 27.4648 25.3255 27.4648 24.6875V12.6562C27.4648 12.0091 27.2962 11.526 26.959 11.207C26.6217 10.8789 26.1478 10.7148 25.5371 10.7148H7.44922C6.82943 10.7148 6.35547 10.8789 6.02734 11.207C5.70833 11.526 5.54883 12.0091 5.54883 12.6562V24.6875C5.54883 25.3255 5.70833 25.804 6.02734 26.123C6.35547 26.4512 6.82943 26.6152 7.44922 26.6152ZM9.60938 15.4863C9.39974 15.4863 9.22201 15.4134 9.07617 15.2676C8.93945 15.1217 8.87109 14.944 8.87109 14.7344C8.87109 14.5339 8.93945 14.3652 9.07617 14.2285C9.22201 14.0918 9.39974 14.0234 9.60938 14.0234H23.4043C23.6139 14.0234 23.7871 14.0918 23.9238 14.2285C24.0605 14.3652 24.1289 14.5339 24.1289 14.7344C24.1289 14.944 24.0605 15.1217 23.9238 15.2676C23.7871 15.4134 23.6139 15.4863 23.4043 15.4863H9.60938ZM9.60938 19.4102C9.39974 19.4102 9.22201 19.3418 9.07617 19.2051C8.93945 19.0592 8.87109 18.8861 8.87109 18.6855C8.87109 18.4759 8.93945 18.3027 9.07617 18.166C9.22201 18.0202 9.39974 17.9473 9.60938 17.9473H23.4043C23.6139 17.9473 23.7871 18.0202 23.9238 18.166C24.0605 18.3027 24.1289 18.4759 24.1289 18.6855C24.1289 18.8861 24.0605 19.0592 23.9238 19.2051C23.7871 19.3418 23.6139 19.4102 23.4043 19.4102H9.60938ZM9.60938 23.334C9.39974 23.334 9.22201 23.2656 9.07617 23.1289C8.93945 22.9922 8.87109 22.8236 8.87109 22.623C8.87109 22.4134 8.93945 22.2357 9.07617 22.0898C9.22201 21.944 9.39974 21.8711 9.60938 21.8711H18.4551C18.6647 21.8711 18.8379 21.944 18.9746 22.0898C19.1204 22.2357 19.1934 22.4134 19.1934 22.623C19.1934 22.8236 19.1204 22.9922 18.9746 23.1289C18.8379 23.2656 18.6647 23.334 18.4551 23.334H9.60938Z" fill="black"/>
</svg>
