<svg width="33" height="33" viewBox="0 0 33 33" fill="none" xmlns="http://www.w3.org/2000/svg">
<path d="M12.1177 9.57128C11.8817 9.57128 11.6823 9.4899 11.5195 9.32714C11.3568 9.16438 11.2754 8.965 11.2754 8.72899C11.2754 8.49299 11.3568 8.29361 11.5195 8.13085C11.6823 7.96809 11.8817 7.88671 12.1177 7.88671H27.2056C27.4416 7.88671 27.641 7.96809 27.8037 8.13085C27.9665 8.29361 28.0479 8.49299 28.0479 8.72899C28.0479 8.965 27.9665 9.16438 27.8037 9.32714C27.641 9.4899 27.4416 9.57128 27.2056 9.57128H12.1177ZM12.1177 16.5171C11.8817 16.5171 11.6823 16.4398 11.5195 16.2851C11.3568 16.1224 11.2754 15.9189 11.2754 15.6748C11.2754 15.4388 11.3568 15.2435 11.5195 15.0889C11.6823 14.9261 11.8817 14.8447 12.1177 14.8447H27.2056C27.4416 14.8447 27.641 14.9261 27.8037 15.0889C27.9665 15.2435 28.0479 15.4388 28.0479 15.6748C28.0479 15.9189 27.9665 16.1224 27.8037 16.2851C27.641 16.4398 27.4416 16.5171 27.2056 16.5171H12.1177ZM12.1177 23.4629C11.8817 23.4629 11.6823 23.3856 11.5195 23.2309C11.3568 23.0682 11.2754 22.8688 11.2754 22.6328C11.2754 22.3887 11.3568 22.1893 11.5195 22.0347C11.6823 21.8719 11.8817 21.7905 12.1177 21.7905H27.2056C27.4416 21.7905 27.641 21.8719 27.8037 22.0347C27.9665 22.1893 28.0479 22.3887 28.0479 22.6328C28.0479 22.8688 27.9665 23.0682 27.8037 23.2309C27.641 23.3856 27.4416 23.4629 27.2056 23.4629H12.1177ZM5.86768 10.4136C5.63981 10.5438 5.42822 10.5763 5.23291 10.5112C5.04574 10.438 4.95215 10.2711 4.95215 10.0107V7.47167C4.95215 7.21125 5.04574 7.04849 5.23291 6.98339C5.42822 6.91828 5.63981 6.95084 5.86768 7.08104L7.83301 8.27733C7.95508 8.35058 8.03646 8.44823 8.07715 8.5703C8.11784 8.69237 8.11784 8.81444 8.07715 8.93651C8.03646 9.05858 7.95508 9.15624 7.83301 9.22948L5.86768 10.4136ZM5.86768 17.3472C5.63981 17.4692 5.42822 17.4977 5.23291 17.4326C5.04574 17.3675 4.95215 17.2047 4.95215 16.9443V14.4053C4.95215 14.1448 5.04574 13.9821 5.23291 13.917C5.42822 13.8519 5.63981 13.8844 5.86768 14.0146L7.83301 15.2109C7.95508 15.2842 8.03646 15.3818 8.07715 15.5039C8.11784 15.626 8.11784 15.748 8.07715 15.8701C8.03646 15.9922 7.95508 16.0898 7.83301 16.1631L5.86768 17.3472ZM5.86768 24.3052C5.63981 24.4272 5.42822 24.4557 5.23291 24.3906C5.04574 24.3336 4.95215 24.1709 4.95215 23.9023V21.3633C4.95215 21.1029 5.04574 20.9401 5.23291 20.875C5.42822 20.8099 5.63981 20.8424 5.86768 20.9726L7.83301 22.1811C7.95508 22.2462 8.03646 22.3398 8.07715 22.4619C8.11784 22.584 8.11784 22.706 8.07715 22.8281C8.03646 22.9502 7.95508 23.0478 7.83301 23.1211L5.86768 24.3052Z" fill="black"/>
</svg>
