<svg width="25" height="24" viewBox="0 0 25 24" fill="none" xmlns="http://www.w3.org/2000/svg">
<g clip-path="url(#clip0_1656_3058)">
<path d="M20.7778 17H22.7778V19H2.77783V17H4.77783V10C4.77783 7.87827 5.62069 5.84344 7.12098 4.34315C8.62127 2.84285 10.6561 2 12.7778 2C14.8996 2 16.9344 2.84285 18.4347 4.34315C19.935 5.84344 20.7778 7.87827 20.7778 10V17ZM18.7778 17V10C18.7778 8.4087 18.1457 6.88258 17.0205 5.75736C15.8953 4.63214 14.3691 4 12.7778 4C11.1865 4 9.66041 4.63214 8.53519 5.75736C7.40997 6.88258 6.77783 8.4087 6.77783 10V17H18.7778ZM9.77783 21H15.7778V23H9.77783V21Z" fill="black"/>
</g>
<defs>
<clipPath id="clip0_1656_3058">
<rect width="24" height="24" fill="white" transform="translate(0.777832)"/>
</clipPath>
</defs>
</svg>
