<svg width="34" height="33" viewBox="0 0 34 33" fill="none" xmlns="http://www.w3.org/2000/svg">
<path d="M12.7573 10.126C12.4806 10.126 12.2446 10.0324 12.0493 9.84521C11.8621 9.65804 11.7686 9.42611 11.7686 9.14941C11.7686 8.87272 11.8621 8.64079 12.0493 8.45361C12.2446 8.2583 12.4806 8.16064 12.7573 8.16064H28.8584C29.1351 8.16064 29.367 8.2583 29.5542 8.45361C29.7495 8.64079 29.8472 8.87272 29.8472 9.14941C29.8472 9.42611 29.7495 9.65804 29.5542 9.84521C29.367 10.0324 29.1351 10.126 28.8584 10.126H12.7573ZM12.7573 17.5112C12.4806 17.5112 12.2446 17.4176 12.0493 17.2305C11.8621 17.0352 11.7686 16.7992 11.7686 16.5225C11.7686 16.2458 11.8621 16.0138 12.0493 15.8267C12.2446 15.6395 12.4806 15.5459 12.7573 15.5459H28.8584C29.1351 15.5459 29.367 15.6395 29.5542 15.8267C29.7495 16.0138 29.8472 16.2458 29.8472 16.5225C29.8472 16.7992 29.7495 17.0352 29.5542 17.2305C29.367 17.4176 29.1351 17.5112 28.8584 17.5112H12.7573ZM12.7573 24.8843C12.4806 24.8843 12.2446 24.7907 12.0493 24.6035C11.8621 24.4163 11.7686 24.1844 11.7686 23.9077C11.7686 23.631 11.8621 23.3991 12.0493 23.2119C12.2446 23.0166 12.4806 22.9189 12.7573 22.9189H28.8584C29.1351 22.9189 29.367 23.0166 29.5542 23.2119C29.7495 23.3991 29.8472 23.631 29.8472 23.9077C29.8472 24.1844 29.7495 24.4163 29.5542 24.6035C29.367 24.7907 29.1351 24.8843 28.8584 24.8843H12.7573ZM7.91113 11.603C7.66699 11.603 7.47168 11.5379 7.3252 11.4077C7.17871 11.2694 7.10547 11.0618 7.10547 10.7852V7.52588H7.08105L6.51953 7.9043C6.42188 7.97754 6.34456 8.02637 6.2876 8.05078C6.23063 8.06706 6.16146 8.0752 6.08008 8.0752C5.94173 8.0752 5.81966 8.02637 5.71387 7.92871C5.60807 7.83105 5.55518 7.70085 5.55518 7.53809C5.55518 7.31836 5.68132 7.12305 5.93359 6.95215L6.80029 6.354C6.95492 6.24821 7.10547 6.16276 7.25195 6.09766C7.40658 6.03255 7.58968 6 7.80127 6C8.06982 6 8.28548 6.07731 8.44824 6.23193C8.61914 6.37842 8.70459 6.58187 8.70459 6.84229V10.7852C8.70459 11.0618 8.63135 11.2694 8.48486 11.4077C8.33838 11.5379 8.14714 11.603 7.91113 11.603ZM5.9458 18.9639C5.74235 18.9639 5.57959 18.9028 5.45752 18.7808C5.33545 18.6587 5.27441 18.5041 5.27441 18.3169C5.27441 18.0483 5.38835 17.8205 5.61621 17.6333L7.21533 16.3149C7.53271 16.0627 7.74023 15.8633 7.83789 15.7168C7.94368 15.5622 7.99658 15.4116 7.99658 15.2651C7.99658 15.0942 7.93962 14.9559 7.82568 14.8501C7.71175 14.7443 7.56527 14.6914 7.38623 14.6914C7.06885 14.6914 6.82471 14.842 6.65381 15.1431C6.50732 15.3872 6.29574 15.5093 6.01904 15.5093C5.57145 15.5093 5.34766 15.3099 5.34766 14.9111C5.34766 14.5205 5.53483 14.1909 5.90918 13.9224C6.29167 13.6538 6.77588 13.5195 7.36182 13.5195C8.021 13.5195 8.54183 13.6701 8.92432 13.9712C9.3068 14.2723 9.49805 14.667 9.49805 15.1553C9.49805 15.5133 9.40853 15.8185 9.22949 16.0708C9.05046 16.3149 8.75342 16.6079 8.33838 16.9497L7.3374 17.7554V17.792H9.08301C9.25391 17.792 9.39225 17.8449 9.49805 17.9507C9.61198 18.0565 9.66895 18.203 9.66895 18.3901C9.66895 18.561 9.61198 18.6994 9.49805 18.8052C9.39225 18.911 9.25391 18.9639 9.08301 18.9639H5.9458ZM7.38623 26.5688C6.88981 26.5688 6.40967 26.4549 5.9458 26.2271C5.48193 26.0073 5.25 25.6899 5.25 25.2749C5.25 25.0877 5.31104 24.9412 5.43311 24.8354C5.56331 24.7215 5.72607 24.6646 5.92139 24.6646C6.03532 24.6646 6.12891 24.689 6.20215 24.7378C6.27539 24.7785 6.34863 24.8314 6.42188 24.8965C6.53581 25.0104 6.67008 25.1203 6.82471 25.2261C6.98747 25.3237 7.17464 25.3726 7.38623 25.3726C7.58968 25.3726 7.76058 25.3197 7.89893 25.2139C8.03727 25.0999 8.10645 24.9616 8.10645 24.7988C8.10645 24.4245 7.82568 24.2373 7.26416 24.2373H7.10547C6.73112 24.2373 6.54395 24.0623 6.54395 23.7124C6.54395 23.3625 6.73112 23.1875 7.10547 23.1875H7.23975C7.49202 23.1875 7.68734 23.1468 7.82568 23.0654C7.96403 22.9759 8.0332 22.8457 8.0332 22.6748C8.0332 22.4876 7.9681 22.3493 7.83789 22.2598C7.71582 22.1702 7.5612 22.1255 7.37402 22.1255C7.22754 22.1255 7.08919 22.154 6.95898 22.2109C6.83691 22.2679 6.70671 22.3737 6.56836 22.5283C6.47884 22.626 6.39339 22.6992 6.31201 22.748C6.23877 22.7969 6.13704 22.8213 6.00684 22.8213C5.81966 22.8213 5.66911 22.7684 5.55518 22.6626C5.44124 22.5487 5.38428 22.4062 5.38428 22.2354C5.38428 21.9668 5.48193 21.7389 5.67725 21.5518C5.8807 21.3646 6.13298 21.2222 6.43408 21.1245C6.74333 21.0269 7.05664 20.978 7.37402 20.978C7.97624 20.978 8.47673 21.1042 8.87549 21.3564C9.28239 21.6006 9.48584 21.9546 9.48584 22.4185C9.48584 22.7765 9.38005 23.0573 9.16846 23.2607C8.95687 23.4642 8.69645 23.5944 8.38721 23.6514V23.688C8.81038 23.7205 9.13184 23.8467 9.35156 24.0664C9.57943 24.2861 9.69336 24.5628 9.69336 24.8965C9.69336 25.4092 9.48991 25.8161 9.08301 26.1172C8.68424 26.4183 8.11865 26.5688 7.38623 26.5688Z" fill="black"/>
</svg>
