<svg width="31" height="33" viewBox="0 0 31 33" fill="none" xmlns="http://www.w3.org/2000/svg">
<path d="M4.0625 19.9902C4.0625 18.4359 4.40023 17.0687 5.07568 15.8887C5.75928 14.7005 6.75212 13.7728 8.0542 13.1055C9.35628 12.4382 10.9351 12.1045 12.7905 12.1045H20.9814L24.7778 12.2754L24.5581 12.8369L21.5308 10.2612L18.0151 6.81885C17.9175 6.72119 17.8442 6.61133 17.7954 6.48926C17.7466 6.36719 17.7222 6.22884 17.7222 6.07422C17.7222 5.75684 17.8198 5.50049 18.0151 5.30518C18.2104 5.10173 18.4709 5 18.7964 5C19.1056 5 19.3701 5.11393 19.5898 5.3418L26.7676 12.3853C26.8896 12.4992 26.9792 12.6253 27.0361 12.7637C27.1012 12.902 27.1338 13.0485 27.1338 13.2031C27.1338 13.3496 27.1012 13.492 27.0361 13.6304C26.9792 13.7687 26.8896 13.8949 26.7676 14.0088L19.5898 21.0522C19.3701 21.2801 19.1056 21.394 18.7964 21.394C18.4709 21.394 18.2104 21.2964 18.0151 21.1011C17.8198 20.8976 17.7222 20.6372 17.7222 20.3198C17.7222 20.1652 17.7466 20.0269 17.7954 19.9048C17.8442 19.7827 17.9175 19.6729 18.0151 19.5752L21.5308 16.145L24.5581 13.5571L24.7778 14.1187L20.9814 14.2896H12.6074C11.2158 14.2896 10.048 14.5256 9.104 14.9976C8.15999 15.4696 7.44385 16.1287 6.95557 16.9751C6.47542 17.8133 6.23535 18.7777 6.23535 19.8682C6.23535 20.9668 6.47542 21.9474 6.95557 22.8101C7.44385 23.6727 8.15999 24.3522 9.104 24.8486C10.048 25.3532 11.2158 25.6055 12.6074 25.6055H15.415C15.7487 25.6055 16.0173 25.7113 16.2207 25.9229C16.4242 26.1344 16.5259 26.3908 16.5259 26.6919C16.5259 26.993 16.4242 27.2493 16.2207 27.4609C16.0173 27.6725 15.7487 27.7783 15.415 27.7783H12.5952C10.7723 27.7783 9.22607 27.4528 7.95654 26.8018C6.68701 26.1589 5.71859 25.2515 5.05127 24.0796C4.39209 22.9159 4.0625 21.5527 4.0625 19.9902Z" fill="black"/>
</svg>
