<svg width="34" height="33" viewBox="0 0 34 33" fill="none" xmlns="http://www.w3.org/2000/svg">
<path d="M6.35303 7.84326C6.10075 7.84326 5.88509 7.75374 5.70605 7.57471C5.52702 7.39567 5.4375 7.17594 5.4375 6.91553C5.4375 6.66325 5.52702 6.44759 5.70605 6.26855C5.88509 6.08952 6.10075 6 6.35303 6H29.0947C29.3551 6 29.5749 6.08952 29.7539 6.26855C29.9411 6.44759 30.0347 6.66325 30.0347 6.91553C30.0347 7.17594 29.9411 7.39567 29.7539 7.57471C29.5749 7.75374 29.3551 7.84326 29.0947 7.84326H6.35303ZM6.35303 20.6362C6.10075 20.6362 5.88509 20.5467 5.70605 20.3677C5.52702 20.1886 5.4375 19.9689 5.4375 19.7085C5.4375 19.4481 5.52702 19.2324 5.70605 19.0615C5.88509 18.8825 6.10075 18.793 6.35303 18.793H29.0947C29.3551 18.793 29.5749 18.8825 29.7539 19.0615C29.9411 19.2324 30.0347 19.4481 30.0347 19.7085C30.0347 19.9689 29.9411 20.1886 29.7539 20.3677C29.5749 20.5467 29.3551 20.6362 29.0947 20.6362H6.35303ZM15.374 14.2397C15.1136 14.2397 14.8939 14.1502 14.7148 13.9712C14.5358 13.7922 14.4463 13.5724 14.4463 13.312C14.4463 13.0516 14.5358 12.8359 14.7148 12.665C14.8939 12.486 15.1136 12.3965 15.374 12.3965H29.0947C29.3551 12.3965 29.5749 12.486 29.7539 12.665C29.9411 12.8359 30.0347 13.0516 30.0347 13.312C30.0347 13.5724 29.9411 13.7922 29.7539 13.9712C29.5749 14.1502 29.3551 14.2397 29.0947 14.2397H15.374ZM15.374 27.0205C15.1136 27.0205 14.8939 26.931 14.7148 26.752C14.5358 26.5811 14.4463 26.3654 14.4463 26.105C14.4463 25.8446 14.5358 25.6248 14.7148 25.4458C14.8939 25.2668 15.1136 25.1772 15.374 25.1772H29.0947C29.3551 25.1772 29.5749 25.2668 29.7539 25.4458C29.9411 25.6248 30.0347 25.8446 30.0347 26.105C30.0347 26.3654 29.9411 26.5811 29.7539 26.752C29.5749 26.931 29.3551 27.0205 29.0947 27.0205H15.374Z" fill="black"/>
</svg>
