<svg width="33" height="33" viewBox="0 0 33 33" fill="none" xmlns="http://www.w3.org/2000/svg">
<path d="M19.2179 10.3116H21.2218C21.8546 10.3116 22.3624 10.3702 22.7452 10.4874C23.1359 10.6046 23.4913 10.8077 23.8116 11.0967C24.132 11.378 24.4991 11.7725 24.9132 12.2803L28.8741 17.2256C29.0226 17.4131 29.1398 17.5967 29.2257 17.7764C29.3195 17.9561 29.382 18.1592 29.4132 18.3858C29.4445 18.6124 29.4601 18.8819 29.4601 19.1944V25.6749C29.4601 26.7842 29.1788 27.6202 28.6163 28.1827C28.0538 28.7452 27.2062 29.0264 26.0734 29.0264H6.80774C5.67493 29.0264 4.82336 28.7452 4.25305 28.1827C3.69055 27.6202 3.4093 26.7842 3.4093 25.6749V19.1944C3.4093 18.8819 3.42493 18.6124 3.45618 18.3858C3.49524 18.1592 3.55774 17.9561 3.64368 17.7764C3.72961 17.5967 3.85071 17.4131 4.00696 17.2256L7.9679 12.2803C8.37415 11.7725 8.73743 11.378 9.05774 11.0967C9.37805 10.8077 9.73352 10.6046 10.1241 10.4874C10.5148 10.3702 11.0265 10.3116 11.6593 10.3116H13.6515V11.7178H11.5304C11.1163 11.7178 10.7491 11.7921 10.4288 11.9405C10.1085 12.0889 9.81165 12.335 9.53821 12.6788L5.30774 18.0342C5.2218 18.1436 5.19836 18.2569 5.23743 18.3741C5.27649 18.4835 5.38196 18.5381 5.55383 18.5381H13.007C13.2648 18.5381 13.4601 18.6241 13.5929 18.796C13.7257 18.9678 13.7921 19.1631 13.7921 19.3819V19.4171C13.7921 19.878 13.9015 20.3155 14.1202 20.7296C14.339 21.1436 14.6476 21.4835 15.046 21.7491C15.4445 22.0147 15.9093 22.1475 16.4406 22.1475C16.9718 22.1475 17.4327 22.0147 17.8234 21.7491C18.2218 21.4835 18.5304 21.1436 18.7491 20.7296C18.9679 20.3155 19.0773 19.878 19.0773 19.4171V19.3819C19.0773 19.1631 19.1437 18.9678 19.2765 18.796C19.4093 18.6241 19.6124 18.5381 19.8859 18.5381H27.339C27.5031 18.5381 27.6007 18.4835 27.632 18.3741C27.671 18.2569 27.6515 18.1436 27.5734 18.0342L23.3312 12.6788C23.0577 12.335 22.7609 12.0889 22.4406 11.9405C22.1202 11.7921 21.757 11.7178 21.3507 11.7178H19.2179V10.3116ZM6.83118 27.3975H26.0499C26.6202 27.3975 27.0616 27.2452 27.3741 26.9405C27.6866 26.6358 27.8429 26.1866 27.8429 25.5928V20.0264H20.6241C20.5382 20.7139 20.3038 21.3311 19.921 21.878C19.546 22.4249 19.0577 22.8546 18.4562 23.1671C17.8546 23.4796 17.1827 23.6358 16.4406 23.6358C15.6984 23.6358 15.0265 23.4796 14.4249 23.1671C13.8234 22.8546 13.3312 22.4249 12.9484 21.878C12.5656 21.3311 12.3312 20.7139 12.2452 20.0264H5.03821V25.5928C5.03821 26.1866 5.19055 26.6358 5.49524 26.9405C5.80774 27.2452 6.25305 27.3975 6.83118 27.3975ZM16.4406 3.28033C16.6515 3.28033 16.8351 3.35846 16.9913 3.51471C17.1554 3.67096 17.2374 3.85846 17.2374 4.07721V14.5421L17.1788 16.1827L17.8351 15.4913L19.6398 13.5811C19.7804 13.4249 19.9601 13.3467 20.1788 13.3467C20.3898 13.3467 20.5656 13.4131 20.7062 13.546C20.8468 13.6788 20.9171 13.8467 20.9171 14.0499C20.9171 14.2374 20.839 14.4131 20.6827 14.5772L17.0148 18.128C16.9132 18.2374 16.8156 18.3116 16.7218 18.3506C16.6359 18.3897 16.5421 18.4092 16.4406 18.4092C16.3312 18.4092 16.2296 18.3897 16.1359 18.3506C16.0499 18.3116 15.9562 18.2374 15.8546 18.128L12.1866 14.5772C12.0304 14.4131 11.9523 14.2374 11.9523 14.0499C11.9523 13.8467 12.0187 13.6788 12.1515 13.546C12.2921 13.4131 12.4679 13.3467 12.6788 13.3467C12.9054 13.3467 13.089 13.4249 13.2296 13.5811L15.0343 15.4913L15.6906 16.1827L15.632 14.5421V4.07721C15.632 3.85846 15.7101 3.67096 15.8663 3.51471C16.0304 3.35846 16.2218 3.28033 16.4406 3.28033Z" fill="black"/>
</svg>
