<svg width="33" height="33" viewBox="0 0 33 33" fill="none" xmlns="http://www.w3.org/2000/svg">
<path d="M9.70801 29.0752C9.33561 29.0752 9.04362 28.9567 8.83203 28.7197C8.62044 28.4827 8.51465 28.1442 8.51465 27.7041V6.90918C8.51465 5.80046 8.79395 4.9668 9.35254 4.4082C9.91113 3.84115 10.7363 3.55762 11.8281 3.55762H21.1719C22.2721 3.55762 23.0973 3.84115 23.6475 4.4082C24.2061 4.9668 24.4854 5.80046 24.4854 6.90918V27.7041C24.4854 28.1442 24.3796 28.4827 24.168 28.7197C23.9564 28.9567 23.6644 29.0752 23.292 29.0752C23.0127 29.0752 22.7546 28.9863 22.5176 28.8086C22.2891 28.6309 21.9294 28.305 21.4385 27.8311L16.6143 23.0195C16.5381 22.9518 16.4661 22.9518 16.3984 23.0195L11.5488 27.8311C11.0664 28.305 10.7067 28.6309 10.4697 28.8086C10.2327 28.9863 9.97884 29.0752 9.70801 29.0752ZM10.6094 26.1807L15.8906 20.9756C16.0768 20.7979 16.2799 20.709 16.5 20.709C16.7201 20.709 16.9189 20.7979 17.0967 20.9756L22.4033 26.1807C22.488 26.2568 22.5684 26.2865 22.6445 26.2695C22.7207 26.2526 22.7588 26.1807 22.7588 26.0537V6.94727C22.7588 6.39714 22.6149 5.98242 22.3271 5.70312C22.0479 5.42383 21.6331 5.28418 21.083 5.28418H11.9043C11.3542 5.28418 10.9352 5.42383 10.6475 5.70312C10.3682 5.98242 10.2285 6.39714 10.2285 6.94727V26.0537C10.2285 26.1807 10.2666 26.2526 10.3428 26.2695C10.4274 26.2865 10.5163 26.2568 10.6094 26.1807Z" fill="black"/>
</svg>
