<svg width="33" height="33" viewBox="0 0 33 33" fill="none" xmlns="http://www.w3.org/2000/svg">
<path d="M10.8724 5.69934C10.6526 5.69934 10.4655 5.62203 10.3109 5.46741C10.1644 5.31278 10.0911 5.12561 10.0911 4.90588C10.0911 4.6943 10.1644 4.51119 10.3109 4.35657C10.4655 4.20195 10.6526 4.12463 10.8724 4.12463C11.0921 4.12463 11.2793 4.20195 11.4339 4.35657C11.5885 4.51119 11.6658 4.6943 11.6658 4.90588C11.6658 5.12561 11.5885 5.31278 11.4339 5.46741C11.2793 5.62203 11.0921 5.69934 10.8724 5.69934ZM9.68829 7.84778C9.47671 7.84778 9.2936 7.77047 9.13898 7.61584C8.98435 7.46122 8.90704 7.27405 8.90704 7.05432C8.90704 6.84273 8.98435 6.65963 9.13898 6.505C9.2936 6.34224 9.47671 6.26086 9.68829 6.26086C9.90802 6.26086 10.0952 6.34224 10.2498 6.505C10.4044 6.65963 10.4818 6.84273 10.4818 7.05432C10.4818 7.27405 10.4044 7.46122 10.2498 7.61584C10.0952 7.77047 9.90802 7.84778 9.68829 7.84778ZM8.50421 9.99622C8.28448 9.99622 8.09731 9.9189 7.94269 9.76428C7.78807 9.60966 7.71075 9.42249 7.71075 9.20276C7.71075 8.98303 7.78807 8.79993 7.94269 8.65344C8.09731 8.49882 8.28448 8.42151 8.50421 8.42151C8.72394 8.42151 8.90704 8.49882 9.05353 8.65344C9.20815 8.79993 9.28546 8.98303 9.28546 9.20276C9.28546 9.42249 9.20815 9.60966 9.05353 9.76428C8.90704 9.9189 8.72394 9.99622 8.50421 9.99622ZM7.30792 12.1202C7.0882 12.1202 6.89695 12.047 6.73419 11.9005C6.57957 11.7459 6.50226 11.5587 6.50226 11.339C6.50226 11.1193 6.57957 10.9321 6.73419 10.7775C6.89695 10.6228 7.0882 10.5455 7.30792 10.5455C7.51951 10.5455 7.70262 10.6228 7.85724 10.7775C8.01186 10.9321 8.08917 11.1193 8.08917 11.339C8.08917 11.5587 8.01186 11.7459 7.85724 11.9005C7.70262 12.047 7.51951 12.1202 7.30792 12.1202ZM6.11163 14.2809C5.90004 14.2809 5.71694 14.2036 5.56232 14.049C5.40769 13.8862 5.33038 13.699 5.33038 13.4874C5.33038 13.2677 5.40769 13.0805 5.56232 12.9259C5.71694 12.7713 5.90004 12.694 6.11163 12.694C6.33136 12.694 6.51853 12.7713 6.67316 12.9259C6.82778 13.0805 6.90509 13.2677 6.90509 13.4874C6.90509 13.699 6.82778 13.8862 6.67316 14.049C6.51853 14.2036 6.33136 14.2809 6.11163 14.2809ZM4.91534 16.4171C4.69562 16.4171 4.50844 16.3398 4.35382 16.1852C4.20734 16.0306 4.13409 15.8434 4.13409 15.6237C4.13409 15.4039 4.20734 15.2208 4.35382 15.0743C4.50844 14.9197 4.69562 14.8424 4.91534 14.8424C5.13507 14.8424 5.32225 14.9197 5.47687 15.0743C5.63149 15.2208 5.7088 15.4039 5.7088 15.6237C5.7088 15.8434 5.63149 16.0306 5.47687 16.1852C5.32225 16.3398 5.13507 16.4171 4.91534 16.4171ZM6.11163 18.5533C5.90004 18.5533 5.71694 18.476 5.56232 18.3214C5.40769 18.1668 5.33038 17.9796 5.33038 17.7599C5.33038 17.5483 5.40769 17.3652 5.56232 17.2106C5.71694 17.0559 5.90004 16.9786 6.11163 16.9786C6.33136 16.9786 6.51853 17.0559 6.67316 17.2106C6.82778 17.3652 6.90509 17.5483 6.90509 17.7599C6.90509 17.9796 6.82778 18.1668 6.67316 18.3214C6.51853 18.476 6.33136 18.5533 6.11163 18.5533ZM7.30792 20.714C7.0882 20.714 6.89695 20.6367 6.73419 20.4821C6.57957 20.3193 6.50226 20.1321 6.50226 19.9205C6.50226 19.7008 6.57957 19.5136 6.73419 19.359C6.89695 19.2044 7.0882 19.1271 7.30792 19.1271C7.51951 19.1271 7.70262 19.2044 7.85724 19.359C8.01186 19.5136 8.08917 19.7008 8.08917 19.9205C8.08917 20.1321 8.01186 20.3193 7.85724 20.4821C7.70262 20.6367 7.51951 20.714 7.30792 20.714ZM8.50421 22.838C8.28448 22.838 8.09731 22.7607 7.94269 22.6061C7.78807 22.4515 7.71075 22.2643 7.71075 22.0446C7.71075 21.833 7.78807 21.6499 7.94269 21.4952C8.09731 21.3406 8.28448 21.2633 8.50421 21.2633C8.72394 21.2633 8.90704 21.3406 9.05353 21.4952C9.20815 21.6499 9.28546 21.833 9.28546 22.0446C9.28546 22.2643 9.20815 22.4515 9.05353 22.6061C8.90704 22.7607 8.72394 22.838 8.50421 22.838ZM9.68829 24.9865C9.47671 24.9865 9.2936 24.9091 9.13898 24.7545C8.98435 24.5999 8.90704 24.4127 8.90704 24.193C8.90704 23.9733 8.98435 23.7902 9.13898 23.6437C9.2936 23.4891 9.47671 23.4117 9.68829 23.4117C9.90802 23.4117 10.0952 23.4891 10.2498 23.6437C10.4044 23.7902 10.4818 23.9733 10.4818 24.193C10.4818 24.4127 10.4044 24.5999 10.2498 24.7545C10.0952 24.9091 9.90802 24.9865 9.68829 24.9865ZM10.8724 27.1349C10.6526 27.1349 10.4655 27.0535 10.3109 26.8907C10.1644 26.7361 10.0911 26.553 10.0911 26.3414C10.0911 26.1217 10.1644 25.9345 10.3109 25.7799C10.4655 25.6253 10.6526 25.548 10.8724 25.548C11.0921 25.548 11.2793 25.6253 11.4339 25.7799C11.5885 25.9345 11.6658 26.1217 11.6658 26.3414C11.6658 26.553 11.5885 26.7361 11.4339 26.8907C11.2793 27.0535 11.0921 27.1349 10.8724 27.1349ZM16.5975 27.318C16.4347 27.318 16.2679 27.2692 16.097 27.1715C15.9342 27.0739 15.7918 26.9274 15.6697 26.7321L9.85919 16.8077C9.72898 16.5799 9.61912 16.3764 9.5296 16.1974C9.44008 16.0184 9.39532 15.8271 9.39532 15.6237C9.39532 15.4283 9.44008 15.2412 9.5296 15.0621C9.61912 14.8831 9.72898 14.6796 9.85919 14.4518L15.6697 4.52747C15.7837 4.33215 15.9261 4.18567 16.097 4.08801C16.2679 3.99036 16.4347 3.94153 16.5975 3.94153C16.8172 3.94153 17.0084 4.00663 17.1712 4.13684C17.334 4.25891 17.452 4.38912 17.5252 4.52747L11.3851 15.2086C11.3362 15.2819 11.2996 15.3551 11.2752 15.4283C11.2508 15.4934 11.2386 15.5586 11.2386 15.6237C11.2386 15.6888 11.2508 15.7579 11.2752 15.8312C11.2996 15.9044 11.3362 15.9777 11.3851 16.0509L17.5252 26.7198C17.452 26.8663 17.334 27.0006 17.1712 27.1227C17.0166 27.2529 16.8253 27.318 16.5975 27.318ZM22.4202 27.3058C22.1191 27.3058 21.8546 27.2122 21.6268 27.025C21.407 26.8379 21.171 26.5245 20.9188 26.0851L15.6697 16.9908C15.5151 16.7304 15.4012 16.4944 15.3279 16.2828C15.2547 16.0631 15.2181 15.8434 15.2181 15.6237C15.2181 15.4039 15.2506 15.1883 15.3157 14.9767C15.389 14.7651 15.5029 14.5291 15.6575 14.2687L20.9188 5.16223C21.171 4.73092 21.407 4.42167 21.6268 4.2345C21.8546 4.04732 22.1191 3.95374 22.4202 3.95374C22.7132 3.95374 22.9695 4.04732 23.1893 4.2345C23.4171 4.42167 23.6531 4.73092 23.8973 5.16223L29.1707 14.2687C29.3091 14.5291 29.4149 14.7651 29.4881 14.9767C29.5613 15.1883 29.598 15.4039 29.598 15.6237C29.598 15.8434 29.5613 16.0631 29.4881 16.2828C29.4149 16.4944 29.3091 16.7304 29.1707 16.9908L23.8973 26.0851C23.6531 26.5245 23.4171 26.8379 23.1893 27.025C22.9695 27.2122 22.7132 27.3058 22.4202 27.3058ZM22.4202 25.1207C22.4691 25.1207 22.5138 25.0882 22.5545 25.0231L27.6204 16.1241C27.7262 15.9288 27.7791 15.762 27.7791 15.6237C27.7791 15.4853 27.7262 15.3226 27.6204 15.1354L22.5545 6.23645C22.5138 6.17135 22.4691 6.13879 22.4202 6.13879C22.3633 6.13879 22.3144 6.17135 22.2737 6.23645L17.1956 15.1354C17.0898 15.3144 17.0369 15.4772 17.0369 15.6237C17.0369 15.762 17.0898 15.9288 17.1956 16.1241L22.2737 25.0231C22.3144 25.0882 22.3633 25.1207 22.4202 25.1207Z" fill="black"/>
</svg>
