<svg width="33" height="33" viewBox="0 0 33 33" fill="none" xmlns="http://www.w3.org/2000/svg">
<path d="M19.6616 27.7588C18.1479 27.7588 16.7197 27.4658 15.377 26.8799C14.0342 26.3021 12.8501 25.5046 11.8247 24.4873C10.8075 23.4619 10.0099 22.2819 9.43213 20.9473C8.85433 19.6126 8.56543 18.1844 8.56543 16.6626C8.56543 15.1489 8.85433 13.7248 9.43213 12.3901C10.0099 11.0555 10.8075 9.87549 11.8247 8.8501C12.8501 7.82471 14.0301 7.02311 15.3647 6.44531C16.7075 5.85938 18.1317 5.56641 19.6372 5.56641C21.1509 5.56641 22.5791 5.85938 23.9219 6.44531C25.2646 7.02311 26.4447 7.82471 27.4619 8.8501C28.4873 9.87549 29.2889 11.0555 29.8667 12.3901C30.4526 13.7248 30.7456 15.1489 30.7456 16.6626C30.7456 18.1844 30.4526 19.6126 29.8667 20.9473C29.2889 22.2819 28.4914 23.4619 27.4741 24.4873C26.4569 25.5046 25.2769 26.3021 23.9341 26.8799C22.5913 27.4658 21.1672 27.7588 19.6616 27.7588ZM19.6616 26.062C20.9637 26.062 22.1844 25.8179 23.3237 25.3296C24.4631 24.8494 25.46 24.1821 26.3145 23.3276C27.1771 22.465 27.8485 21.4681 28.3286 20.3369C28.8169 19.1976 29.057 17.9728 29.0488 16.6626C29.0488 15.3605 28.8047 14.1439 28.3164 13.0127C27.8281 11.8734 27.1527 10.8765 26.29 10.022C25.4355 9.15934 24.4386 8.48796 23.2993 8.00781C22.16 7.51953 20.9393 7.27539 19.6372 7.27539C18.3351 7.27539 17.1144 7.51953 15.9751 8.00781C14.8439 8.48796 13.8511 9.15934 12.9966 10.022C12.1421 10.8765 11.4748 11.8734 10.9946 13.0127C10.5145 14.1439 10.2744 15.3605 10.2744 16.6626C10.2744 17.9728 10.5145 19.1976 10.9946 20.3369C11.4748 21.4681 12.1421 22.465 12.9966 23.3276C13.8592 24.1821 14.8561 24.8494 15.9873 25.3296C17.1266 25.8179 18.3514 26.062 19.6616 26.062ZM11.8735 23.877C11.3608 24.292 10.783 24.6175 10.1401 24.8535C9.49723 25.0895 8.82585 25.2075 8.12598 25.2075C7.13314 25.2075 6.2583 25.0203 5.50146 24.646C4.75277 24.2716 4.16683 23.7549 3.74365 23.0957C3.32861 22.4284 3.12109 21.6553 3.12109 20.7764C3.12109 19.4987 3.58903 18.4896 4.5249 17.749C5.46077 17.0003 6.79948 16.5527 8.54102 16.4062L9.26123 16.3452L9.56641 17.8589L8.77295 17.9199C7.57666 17.9932 6.66113 18.2821 6.02637 18.7866C5.3916 19.283 5.07422 19.9382 5.07422 20.752C5.07422 21.3135 5.2207 21.8058 5.51367 22.229C5.80664 22.6522 6.20947 22.9818 6.72217 23.2178C7.243 23.4456 7.84115 23.5596 8.5166 23.5596C9.01302 23.5596 9.48096 23.4985 9.92041 23.3765C10.3599 23.2544 10.7708 23.0754 11.1533 22.8394L11.8735 23.877ZM10.9214 11.499C10.4819 11.377 10.014 11.3159 9.51758 11.3159C8.53288 11.3159 7.7028 11.5275 7.02734 11.9507C6.35189 12.3657 5.83512 13.0371 5.47705 13.9648C5.30615 14.3066 5.03353 14.4775 4.65918 14.4775C4.41504 14.4775 4.21159 14.4002 4.04883 14.2456C3.88607 14.0828 3.80469 13.8672 3.80469 13.5986C3.80469 13.4603 3.8291 13.3057 3.87793 13.1348C3.92676 12.9639 3.99186 12.797 4.07324 12.6343C4.46387 11.7391 5.14746 11.0148 6.12402 10.4614C7.10872 9.8999 8.25619 9.61914 9.56641 9.61914C10.4616 9.61914 11.2591 9.74528 11.959 9.99756L10.9214 11.499ZM20.4917 26.7822V23.4985H20.3574C20.0482 24.1577 19.5884 24.7437 18.978 25.2563C18.3677 25.7772 17.6637 26.1882 16.8662 26.4893L15.084 25.0244C15.8408 24.9349 16.5407 24.7355 17.1836 24.4263C17.8265 24.117 18.384 23.7183 18.856 23.23C19.3361 22.7417 19.7064 22.1883 19.9668 21.5698C20.2354 20.9513 20.3696 20.2881 20.3696 19.5801V17.3828L14.6201 17.7856C13.9447 17.8263 13.3343 17.9281 12.7891 18.0908C12.252 18.2454 11.784 18.4489 11.3853 18.7012C10.9865 18.9535 10.665 19.2546 10.4209 19.6045L9.96924 17.1631C11.0679 16.4632 12.5205 16.0563 14.3271 15.9424L20.3696 15.564V13.8672C20.3696 12.4512 19.9465 11.3485 19.1001 10.5591C18.2537 9.76156 17.0819 9.36279 15.5845 9.36279C15.2752 9.36279 14.9863 9.375 14.7178 9.39941C14.4492 9.42383 14.1888 9.46045 13.9365 9.50928C13.6924 9.54997 13.4523 9.60693 13.2163 9.68018L15.5234 7.36084C15.7594 7.36084 15.9954 7.36491 16.2314 7.37305C16.4756 7.38118 16.7116 7.39746 16.9395 7.42188C18.7542 7.6416 20.1702 8.30078 21.1875 9.39941C22.2048 10.4899 22.7134 11.9019 22.7134 13.6353V26.7578L20.4917 26.7822Z" fill="black"/>
</svg>
