<svg width="33" height="33" viewBox="0 0 33 33" fill="none" xmlns="http://www.w3.org/2000/svg">
<path d="M18.5 28.4912C17.6367 28.4912 16.7946 28.4023 15.9736 28.2246C15.1611 28.0469 14.3825 27.793 13.6377 27.4629C13.8408 27.2259 14.027 26.972 14.1963 26.7012C14.374 26.4388 14.5221 26.1637 14.6406 25.876C15.2331 26.1299 15.8509 26.3203 16.4941 26.4473C17.1458 26.5827 17.8145 26.6504 18.5 26.6504C19.9303 26.6504 21.2676 26.3838 22.5117 25.8506C23.7559 25.3174 24.8519 24.5811 25.7998 23.6416C26.7477 22.6937 27.484 21.5977 28.0088 20.3535C28.542 19.1009 28.8086 17.7594 28.8086 16.3291C28.8086 14.9072 28.542 13.5742 28.0088 12.3301C27.4756 11.0775 26.735 9.98145 25.7871 9.04199C24.8477 8.09408 23.7516 7.35352 22.499 6.82031C21.2549 6.28711 19.9176 6.02051 18.4873 6.02051C17.167 6.02051 15.9229 6.24902 14.7549 6.70605C13.5954 7.16309 12.5586 7.80208 11.6445 8.62305C10.7305 9.44401 9.98145 10.4004 9.39746 11.4922C8.82194 12.584 8.45378 13.7689 8.29297 15.0469C8.00521 15.0215 7.68359 15.0173 7.32812 15.0342C6.98112 15.0511 6.67643 15.085 6.41406 15.1357C6.55794 13.6038 6.97266 12.1777 7.6582 10.8574C8.35221 9.52865 9.24512 8.36491 10.3369 7.36621C11.4287 6.35905 12.6686 5.57617 14.0566 5.01758C15.4531 4.45052 16.93 4.16699 18.4873 4.16699C20.1546 4.16699 21.7204 4.48438 23.1846 5.11914C24.6488 5.75391 25.9395 6.63411 27.0566 7.75977C28.1823 8.87695 29.0625 10.1719 29.6973 11.6445C30.3405 13.1087 30.6621 14.6702 30.6621 16.3291C30.6621 17.9964 30.3405 19.5664 29.6973 21.0391C29.0625 22.5033 28.1865 23.7939 27.0693 24.9111C25.9521 26.0283 24.6615 26.9043 23.1973 27.5391C21.7331 28.1738 20.1673 28.4912 18.5 28.4912ZM22.8545 26.7646L21.0518 18.3477H15.9355L15.3389 21.4199C15.2627 20.9375 15.14 20.4847 14.9707 20.0615C14.8099 19.6299 14.611 19.2236 14.374 18.8428L14.5771 17.8906C14.6279 17.6283 14.7549 17.404 14.958 17.2178C15.1611 17.0231 15.3896 16.9258 15.6436 16.9258H15.7832L17.7637 10.8828C17.8483 10.6374 17.988 10.4766 18.1826 10.4004C18.3857 10.3242 18.5889 10.3242 18.792 10.4004C18.9951 10.4766 19.139 10.6374 19.2236 10.8828L21.2295 16.9258H21.3691C21.623 16.9258 21.8473 17.0231 22.042 17.2178C22.2367 17.4124 22.3594 17.641 22.4102 17.9033L24.1748 26.1045L22.8545 26.7646ZM7.86133 28.6436C7.02344 28.6436 6.24056 28.487 5.5127 28.1738C4.78483 27.8607 4.1416 27.4248 3.58301 26.8662C3.02441 26.3076 2.58854 25.6644 2.27539 24.9365C1.96224 24.2087 1.80566 23.4258 1.80566 22.5879C1.80566 21.4876 2.08073 20.4805 2.63086 19.5664C3.18099 18.6523 3.91309 17.9202 4.82715 17.3701C5.74121 16.82 6.7526 16.5449 7.86133 16.5449C8.95312 16.5449 9.95605 16.82 10.8701 17.3701C11.7926 17.9202 12.5247 18.6523 13.0664 19.5664C13.6165 20.4805 13.8916 21.4876 13.8916 22.5879C13.8916 23.4173 13.7308 24.196 13.4092 24.9238C13.096 25.6517 12.6602 26.2949 12.1016 26.8535C11.543 27.4121 10.8997 27.848 10.1719 28.1611C9.44401 28.4827 8.67383 28.6436 7.86133 28.6436ZM7.84863 26.3965C8.06022 26.3965 8.22949 26.333 8.35645 26.2061C8.4834 26.0791 8.54688 25.9098 8.54688 25.6982V23.2861H10.9463C11.1579 23.2861 11.3271 23.2227 11.4541 23.0957C11.5811 22.9688 11.6445 22.7995 11.6445 22.5879C11.6445 22.3763 11.5811 22.207 11.4541 22.0801C11.3271 21.9531 11.1579 21.8896 10.9463 21.8896H8.54688V19.4902C8.54688 19.2786 8.4834 19.1094 8.35645 18.9824C8.22949 18.8555 8.06022 18.792 7.84863 18.792C7.63704 18.792 7.46777 18.8555 7.34082 18.9824C7.21387 19.1094 7.15039 19.2786 7.15039 19.4902V21.8896H4.73828C4.53516 21.8896 4.36589 21.9531 4.23047 22.0801C4.10352 22.207 4.04004 22.3763 4.04004 22.5879C4.04004 22.7995 4.10352 22.9688 4.23047 23.0957C4.36589 23.2227 4.53516 23.2861 4.73828 23.2861H7.15039V25.6982C7.15039 25.9098 7.21387 26.0791 7.34082 26.2061C7.46777 26.333 7.63704 26.3965 7.84863 26.3965Z" fill="black"/>
</svg>
