<svg width="33" height="33" viewBox="0 0 33 33" fill="none" xmlns="http://www.w3.org/2000/svg">
<path d="M12.9835 25.2407C12.7617 25.2407 12.5835 25.1784 12.4489 25.0539C12.3142 24.9294 12.2429 24.762 12.235 24.5519L11.8786 12.0714C11.8707 11.869 11.9341 11.7056 12.0687 11.581C12.2113 11.4487 12.3934 11.3826 12.6152 11.3826C12.829 11.3826 13.0033 11.4448 13.1379 11.5694C13.2805 11.6939 13.3518 11.8574 13.3518 12.0597L13.72 24.5519C13.72 24.7542 13.6527 24.9216 13.5181 25.0539C13.3834 25.1784 13.2052 25.2407 12.9835 25.2407ZM16.5 25.2407C16.2782 25.2407 16.0961 25.1784 15.9535 25.0539C15.811 24.9216 15.7397 24.7542 15.7397 24.5519V12.0714C15.7397 11.869 15.811 11.7056 15.9535 11.581C16.0961 11.4487 16.2782 11.3826 16.5 11.3826C16.7297 11.3826 16.9158 11.4487 17.0584 11.581C17.2009 11.7056 17.2722 11.869 17.2722 12.0714V24.5519C17.2722 24.7542 17.2009 24.9216 17.0584 25.0539C16.9158 25.1784 16.7297 25.2407 16.5 25.2407ZM20.0284 25.2407C19.7987 25.2407 19.6166 25.1784 19.4819 25.0539C19.3473 24.9216 19.2839 24.7542 19.2918 24.5519L19.6482 12.0714C19.6562 11.8612 19.7274 11.6939 19.8621 11.5694C19.9967 11.4448 20.171 11.3826 20.3848 11.3826C20.6145 11.3826 20.7967 11.4487 20.9313 11.581C21.0659 11.7056 21.1293 11.869 21.1214 12.0714L20.765 24.5519C20.7571 24.762 20.6858 24.9294 20.5511 25.0539C20.4165 25.1784 20.2423 25.2407 20.0284 25.2407ZM11.2846 8.33543V5.72025C11.2846 4.87966 11.546 4.21808 12.0687 3.73552C12.5993 3.24517 13.3201 3 14.2309 3H18.7454C19.6562 3 20.3729 3.24517 20.8957 3.73552C21.4263 4.21808 21.6916 4.87966 21.6916 5.72025V8.33543H19.8027V5.837C19.8027 5.5101 19.6918 5.24547 19.47 5.04311C19.2562 4.84074 18.9711 4.73956 18.6147 4.73956H14.3616C14.0052 4.73956 13.7161 4.84074 13.4943 5.04311C13.2805 5.24547 13.1736 5.5101 13.1736 5.837V8.33543H11.2846ZM5.89101 9.26942C5.65341 9.26942 5.44353 9.1838 5.26136 9.01257C5.08712 8.83356 5 8.62341 5 8.38213C5 8.14863 5.08712 7.94627 5.26136 7.77503C5.44353 7.59602 5.65341 7.50651 5.89101 7.50651H27.1209C27.3585 7.50651 27.5644 7.59213 27.7386 7.76336C27.9129 7.93459 28 8.14085 28 8.38213C28 8.62341 27.9129 8.83356 27.7386 9.01257C27.5723 9.1838 27.3664 9.26942 27.1209 9.26942H5.89101ZM11.0589 29C10.2035 29 9.5105 28.7509 8.97986 28.2528C8.45713 27.7625 8.17596 27.097 8.13636 26.2564L7.29287 9.0476H9.15806L10.0015 26.0462C10.0174 26.3887 10.1402 26.6728 10.3698 26.8985C10.5995 27.1242 10.8846 27.2371 11.2252 27.2371H21.7629C22.1114 27.2371 22.4005 27.1242 22.6302 26.8985C22.8598 26.6806 22.9826 26.3965 22.9985 26.0462L23.7944 9.0476H25.7071L24.8755 26.2447C24.8359 27.0853 24.5508 27.7547 24.0201 28.2528C23.4895 28.7509 22.8004 29 21.953 29H11.0589Z" fill="black"/>
</svg>
