<svg width="34" height="33" viewBox="0 0 34 33" fill="none" xmlns="http://www.w3.org/2000/svg">
<path d="M17.917 24.0908C16.4521 24.0908 15.1867 23.8182 14.1206 23.2729C13.0627 22.7277 12.2448 21.9709 11.667 21.0024C11.0973 20.0259 10.8125 18.8988 10.8125 17.6211V7.13525C10.8125 6.79346 10.9102 6.52083 11.1055 6.31738C11.3089 6.10579 11.5815 6 11.9233 6C12.2733 6 12.55 6.10579 12.7534 6.31738C12.965 6.52083 13.0708 6.79346 13.0708 7.13525V17.438C13.0708 18.3494 13.262 19.147 13.6445 19.8306C14.027 20.5142 14.5804 21.0513 15.3047 21.4419C16.029 21.8244 16.8997 22.0156 17.917 22.0156C19.4469 22.0156 20.6392 21.5924 21.4937 20.7461C22.3481 19.8997 22.7754 18.797 22.7754 17.438V7.13525C22.7754 6.79346 22.873 6.52083 23.0684 6.31738C23.2718 6.10579 23.5444 6 23.8862 6C24.2362 6 24.5129 6.10579 24.7163 6.31738C24.9279 6.52083 25.0337 6.79346 25.0337 7.13525V17.6211C25.0337 18.8988 24.7448 20.0259 24.167 21.0024C23.5973 21.9709 22.7795 22.7277 21.7134 23.2729C20.6473 23.8182 19.3818 24.0908 17.917 24.0908ZM11.5327 27.8384C11.3374 27.8384 11.1665 27.7692 11.02 27.6309C10.8817 27.4925 10.8125 27.3216 10.8125 27.1182C10.8125 26.9066 10.8817 26.7316 11.02 26.5933C11.1665 26.4549 11.3374 26.3857 11.5327 26.3857H24.3013C24.5047 26.3857 24.6756 26.4549 24.814 26.5933C24.9604 26.7316 25.0337 26.9066 25.0337 27.1182C25.0337 27.3216 24.9604 27.4925 24.814 27.6309C24.6756 27.7692 24.5047 27.8384 24.3013 27.8384H11.5327Z" fill="black"/>
</svg>
