<svg width="31" height="33" viewBox="0 0 31 33" fill="none" xmlns="http://www.w3.org/2000/svg">
<path d="M27.0713 19.9902C27.0713 21.5527 26.7376 22.9159 26.0703 24.0796C25.4111 25.2515 24.4468 26.1589 23.1772 26.8018C21.9077 27.4528 20.3615 27.7783 18.5386 27.7783H15.7188C15.3851 27.7783 15.1165 27.6725 14.9131 27.4609C14.7096 27.2493 14.6079 26.993 14.6079 26.6919C14.6079 26.3908 14.7096 26.1344 14.9131 25.9229C15.1165 25.7113 15.3851 25.6055 15.7188 25.6055H18.5264C19.918 25.6055 21.0858 25.3532 22.0298 24.8486C22.9738 24.3522 23.6859 23.6727 24.166 22.8101C24.6462 21.9474 24.8862 20.9668 24.8862 19.8682C24.8862 18.7777 24.6462 17.8133 24.166 16.9751C23.6859 16.1287 22.9738 15.4696 22.0298 14.9976C21.0858 14.5256 19.918 14.2896 18.5264 14.2896H10.1401L6.35596 14.1187L6.57568 13.5571L9.59082 16.145L13.1187 19.5752C13.2082 19.6729 13.2773 19.7827 13.3262 19.9048C13.3831 20.0269 13.4116 20.1652 13.4116 20.3198C13.4116 20.6372 13.3099 20.8976 13.1064 21.1011C12.9111 21.2964 12.6507 21.394 12.3252 21.394C12.0241 21.394 11.7637 21.2801 11.5439 21.0522L4.36621 14.0088C4.24414 13.8949 4.15055 13.7687 4.08545 13.6304C4.02848 13.492 4 13.3496 4 13.2031C4 13.0485 4.02848 12.902 4.08545 12.7637C4.15055 12.6253 4.24414 12.4992 4.36621 12.3853L11.5439 5.3418C11.7637 5.11393 12.0241 5 12.3252 5C12.6507 5 12.9111 5.10173 13.1064 5.30518C13.3099 5.50049 13.4116 5.75684 13.4116 6.07422C13.4116 6.22884 13.3831 6.36719 13.3262 6.48926C13.2773 6.61133 13.2082 6.72119 13.1187 6.81885L9.59082 10.2612L6.57568 12.8369L6.35596 12.2754L10.1401 12.1045H18.3433C20.1987 12.1045 21.7775 12.4382 23.0796 13.1055C24.3817 13.7728 25.3704 14.7005 26.0459 15.8887C26.7295 17.0687 27.0713 18.4359 27.0713 19.9902Z" fill="black"/>
</svg>
