<svg width="33" height="33" viewBox="0 0 33 33" fill="none" xmlns="http://www.w3.org/2000/svg">
<path d="M3.92218 24.7501C3.64874 24.7501 3.41681 24.6549 3.22638 24.4645C3.04083 24.274 2.94806 24.0446 2.94806 23.776C2.94806 23.5026 3.04083 23.2706 3.22638 23.0802C3.41681 22.8898 3.64874 22.7946 3.92218 22.7946C4.19562 22.7946 4.42755 22.8898 4.61798 23.0802C4.80841 23.2706 4.90363 23.5026 4.90363 23.776C4.90363 24.0446 4.80841 24.274 4.61798 24.4645C4.42755 24.6549 4.19562 24.7501 3.92218 24.7501ZM7.99445 24.7501C7.72589 24.7501 7.4964 24.6549 7.30597 24.4645C7.11554 24.274 7.02032 24.0446 7.02032 23.776C7.02032 23.5026 7.11554 23.2706 7.30597 23.0802C7.4964 22.8898 7.72589 22.7946 7.99445 22.7946C8.263 22.7946 8.49249 22.8898 8.68292 23.0802C8.87823 23.2706 8.97589 23.5026 8.97589 23.776C8.97589 24.0446 8.87823 24.274 8.68292 24.4645C8.49249 24.6549 8.263 24.7501 7.99445 24.7501ZM12.0667 24.7501C11.7933 24.7501 11.5613 24.6549 11.3709 24.4645C11.1805 24.274 11.0853 24.0446 11.0853 23.776C11.0853 23.5026 11.1805 23.2706 11.3709 23.0802C11.5613 22.8898 11.7933 22.7946 12.0667 22.7946C12.3353 22.7946 12.5648 22.8898 12.7552 23.0802C12.9456 23.2706 13.0408 23.5026 13.0408 23.776C13.0408 24.0446 12.9456 24.274 12.7552 24.4645C12.5648 24.6549 12.3353 24.7501 12.0667 24.7501ZM16.139 24.7501C15.8655 24.7501 15.6336 24.6549 15.4432 24.4645C15.2527 24.274 15.1575 24.0446 15.1575 23.776C15.1575 23.5026 15.2527 23.2706 15.4432 23.0802C15.6336 22.8898 15.8655 22.7946 16.139 22.7946C16.4124 22.7946 16.6443 22.8898 16.8348 23.0802C17.0252 23.2706 17.1204 23.5026 17.1204 23.776C17.1204 24.0446 17.0252 24.274 16.8348 24.4645C16.6443 24.6549 16.4124 24.7501 16.139 24.7501ZM20.2112 24.7501C19.9378 24.7501 19.7059 24.6549 19.5154 24.4645C19.325 24.274 19.2298 24.0446 19.2298 23.776C19.2298 23.5026 19.325 23.2706 19.5154 23.0802C19.7059 22.8898 19.9378 22.7946 20.2112 22.7946C20.4798 22.7946 20.7093 22.8898 20.8997 23.0802C21.0901 23.2706 21.1854 23.5026 21.1854 23.776C21.1854 24.0446 21.0901 24.274 20.8997 24.4645C20.7093 24.6549 20.4798 24.7501 20.2112 24.7501ZM24.2762 24.7501C24.0076 24.7501 23.7781 24.6549 23.5877 24.4645C23.3973 24.274 23.3021 24.0446 23.3021 23.776C23.3021 23.5026 23.3973 23.2706 23.5877 23.0802C23.7781 22.8898 24.0076 22.7946 24.2762 22.7946C24.5496 22.7946 24.7816 22.8898 24.972 23.0802C25.1624 23.2706 25.2576 23.5026 25.2576 23.776C25.2576 24.0446 25.1624 24.274 24.972 24.4645C24.7816 24.6549 24.5496 24.7501 24.2762 24.7501ZM28.3411 24.7501C28.0726 24.7501 27.8431 24.6549 27.6526 24.4645C27.4622 24.274 27.367 24.0446 27.367 23.776C27.367 23.5026 27.4622 23.2706 27.6526 23.0802C27.8431 22.8898 28.0726 22.7946 28.3411 22.7946C28.6146 22.7946 28.8465 22.8898 29.0369 23.0802C29.2274 23.2706 29.3226 23.5026 29.3226 23.776C29.3226 24.0446 29.2274 24.274 29.0369 24.4645C28.8465 24.6549 28.6146 24.7501 28.3411 24.7501ZM3.62921 20.1652C3.30695 20.1652 3.04572 20.0748 2.84552 19.8942C2.64532 19.7135 2.54523 19.462 2.54523 19.1398C2.54523 18.9347 2.58429 18.7125 2.66241 18.4733L5.5921 10.1969C5.73859 9.76233 5.96075 9.4425 6.25861 9.23743C6.55646 9.02747 6.93732 8.92249 7.40118 8.92249C7.89435 8.92249 8.2923 9.02747 8.59503 9.23743C8.90265 9.4425 9.12726 9.76477 9.26886 10.2042L12.1546 18.3781C12.1937 18.5148 12.223 18.6393 12.2425 18.7516C12.2669 18.8639 12.2791 18.9835 12.2791 19.1105C12.2791 19.4327 12.1717 19.6891 11.9568 19.8795C11.7469 20.0699 11.4734 20.1652 11.1365 20.1652C10.8387 20.1652 10.5945 20.0919 10.4041 19.9454C10.2186 19.7941 10.077 19.5475 9.97931 19.2057L9.38605 17.4406H5.38702L4.78644 19.2057C4.69366 19.5426 4.55206 19.7867 4.36163 19.9381C4.1712 20.0895 3.92706 20.1652 3.62921 20.1652ZM5.87775 15.778H8.93927L7.44513 11.0612H7.36456L5.87775 15.778ZM14.4398 20.2018C14.1126 20.2018 13.8563 20.109 13.6707 19.9235C13.4852 19.7379 13.3924 19.4791 13.3924 19.1471V10.1603C13.3924 9.83313 13.4901 9.5719 13.6854 9.37659C13.8856 9.18127 14.1443 9.08362 14.4617 9.08362C14.7742 9.08362 15.0281 9.18127 15.2234 9.37659C15.4236 9.5719 15.5237 9.83313 15.5237 10.1603V13.4269H15.5164C15.7313 12.9191 16.056 12.5211 16.4905 12.233C16.93 11.9449 17.4378 11.8009 18.014 11.8009C18.7122 11.8009 19.3128 11.9718 19.8157 12.3136C20.3235 12.6505 20.7142 13.1339 20.9876 13.7638C21.2659 14.3888 21.4051 15.1359 21.4051 16.005C21.4051 16.8693 21.2684 17.6163 20.9949 18.2462C20.7215 18.8712 20.3309 19.3546 19.8231 19.6964C19.3201 20.0333 18.7171 20.2018 18.014 20.2018C17.4036 20.2018 16.8787 20.0577 16.4393 19.7697C16.0047 19.4816 15.6873 19.0885 15.4871 18.5905H15.5018V19.1471C15.5018 19.4791 15.4041 19.7379 15.2088 19.9235C15.0184 20.109 14.762 20.2018 14.4398 20.2018ZM17.3841 18.5026C17.7601 18.5026 18.0848 18.4025 18.3582 18.2023C18.6365 18.0021 18.8489 17.7164 18.9954 17.3453C19.1468 16.9694 19.2225 16.5226 19.2225 16.005C19.2225 15.4874 19.1468 15.0431 18.9954 14.672C18.8441 14.296 18.6317 14.0079 18.3582 13.8077C18.0848 13.6027 17.7601 13.5001 17.3841 13.5001C17.0228 13.5001 16.7005 13.6027 16.4173 13.8077C16.1341 14.0128 15.9119 14.3033 15.7508 14.6793C15.5945 15.0553 15.5164 15.4972 15.5164 16.005C15.5164 16.5177 15.5945 16.962 15.7508 17.338C15.9119 17.7091 16.1341 17.9972 16.4173 18.2023C16.7005 18.4025 17.0228 18.5026 17.3841 18.5026ZM26.1732 20.2018C25.3577 20.2018 24.6522 20.0309 24.0565 19.6891C23.4608 19.3473 22.9969 18.8615 22.6649 18.2316C22.3377 17.5968 22.1741 16.8448 22.1741 15.9757C22.1741 15.1163 22.3377 14.3693 22.6649 13.7345C22.992 13.0997 23.4534 12.609 24.0491 12.2623C24.6448 11.9108 25.348 11.735 26.1585 11.735C26.7054 11.735 27.2108 11.8204 27.6746 11.9913C28.1385 12.1573 28.5364 12.3917 28.8685 12.6945C29.2005 12.9923 29.4422 13.339 29.5936 13.7345C29.6229 13.8175 29.6473 13.903 29.6668 13.9908C29.6863 14.0787 29.6961 14.1642 29.6961 14.2472C29.6961 14.506 29.6058 14.7086 29.4251 14.8551C29.2444 15.0016 29.0272 15.0748 28.7733 15.0748C28.5486 15.0748 28.3631 15.0309 28.2166 14.943C28.075 14.8502 27.9529 14.7086 27.8504 14.5182C27.66 14.1373 27.4305 13.8566 27.1619 13.6759C26.8934 13.4952 26.5784 13.4049 26.2171 13.4049C25.6458 13.4049 25.1917 13.6295 24.8548 14.0787C24.5179 14.528 24.3494 15.1578 24.3494 15.9684C24.3494 16.7887 24.5154 17.4235 24.8475 17.8727C25.1844 18.317 25.636 18.5392 26.2025 18.5392C26.5931 18.5392 26.9202 18.4464 27.1839 18.2609C27.4525 18.0753 27.6746 17.8214 27.8504 17.4991C27.9774 17.2843 28.1116 17.1256 28.2532 17.0231C28.3948 16.9156 28.5828 16.8619 28.8172 16.8619C29.0711 16.8619 29.2859 16.9425 29.4617 17.1036C29.6424 17.2648 29.7327 17.4747 29.7327 17.7335C29.7327 17.8068 29.723 17.8898 29.7034 17.9825C29.6839 18.0753 29.6522 18.1754 29.6082 18.2828C29.4471 18.6588 29.1956 18.9908 28.8538 19.2789C28.512 19.567 28.1092 19.7941 27.6453 19.9601C27.1863 20.1212 26.6956 20.2018 26.1732 20.2018Z" fill="black"/>
</svg>
